{
.appVersion = "1075";
copyright = "\\(c\\) 2017 IBM Corp. All rights reserved.";
customParameters = (
{
name = vendorID;
value = "IBM ";
},
{
name = panose;
value = (
2,
11,
8,
9,
5,
0,
0,
0,
0,
0
);
},
{
name = unicodeRanges;
value = (
0,
1,
2,
3,
5,
6,
29,
31,
32,
33,
35,
36,
37,
38,
45,
60,
62
);
},
{
name = codePageRanges;
value = (
1252,
1250,
1254,
1257,
1258
);
},
{
name = glyphOrder;
value = (
.notdef,
a,
a.alt01,
b,
c,
d,
e,
f,
g,
g.alt01,
g.alt02,
h,
i,
j,
k,
l,
m,
n,
o,
p,
q,
r,
s,
t,
u,
v,
w,
x,
y,
z,
A,
B,
C,
D,
E,
F,
G,
H,
I,
J,
K,
L,
M,
N,
O,
P,
Q,
R,
S,
T,
U,
V,
W,
X,
Y,
Z,
zero,
zero.alt01,
zero.alt02,
one,
two,
three,
four,
five,
six,
seven,
eight,
nine,
ampersand,
at,
hyphen,
uni00AD,
endash,
emdash,
underscore,
period,
ellipsis,
colon,
comma,
semicolon,
quotesingle,
quotedbl,
quoteleft,
quoteright,
quotedblleft,
quotedblright,
quotesinglbase,
quotedblbase,
guilsinglleft,
guilsinglright,
guillemotleft,
guillemotright,
exclamdown,
exclam,
questiondown,
question,
parenleft,
parenright,
bracketleft,
bracketright,
braceleft,
braceright,
slash,
backslash,
fraction,
percent,
perthousand,
bar,
brokenbar,
section,
paragraph,
copyright,
registered,
trademark,
ordfeminine,
ordmasculine,
degree,
asterisk,
dagger,
daggerdbl,
numbersign,
asciicircum,
asciitilde,
plus,
minus,
plusminus,
multiply,
divide,
equal,
approxequal,
notequal,
less,
greater,
lessequal,
greaterequal,
periodcentered,
bullet,
lozenge,
logicalnot,
radical,
integral,
infinity,
uni212E,
uni2113,
uni2116,
partialdiff,
cent,
Euro,
florin,
sterling,
dollar,
yen,
uni0E3F,
uni20A1,
uni20A4,
uni20A6,
uni20A8,
uni20A9,
uni20AA,
uni20AB,
uni20AD,
uni20AE,
uni20B1,
uni20B2,
uni20B4,
uni20B5,
uni20B8,
uni20B9,
uni20BA,
uni20BD,
uni20BF,
fi,
fl,
aacute,
abreve,
acircumflex,
adieresis,
uni1EA1,
agrave,
uni1EA3,
amacron,
aogonek,
aring,
aringacute,
atilde,
uni1EAF,
uni1EB7,
uni1EB1,
uni1EB3,
uni1EB5,
uni1EA5,
uni1EAD,
uni1EA7,
uni1EA9,
uni1EAB,
aacute.alt01,
abreve.alt01,
acircumflex.alt01,

glyphs = (
{
glyphname = .notdef;
lastChange = "2017-11-24 23:54:01 +0000";
layers = (
{
layerId = "2D832C46-3B02-4AC2-BC3D-33D8B64E8998";
paths = (
{
closed = 1;
nodes = (
"50 -250 LINE",
"550 -250 LINE",
"550 670 LINE",
"50 670 LINE"
);
}
);
width = 600;
}
);
note = .notdef;
},
{
glyphname = a;
lastChange = "2017-11-24 23:54:01 +0000";
layers = (
{
layerId = "2D832C46-3B02-4AC2-BC3D-33D8B64E8998";
paths = (
{
closed = 1;
nodes = (
"493 0 LINE",
"579 516 LINE",
"433 516 LINE",
"417 420 LINE",
"410 420 LINE",
"395 488 OFFCURVE",
"356 528 OFFCURVE",
"275 528 CURVE SMOOTH",
"132 528 OFFCURVE",
"38 393 OFFCURVE",
"38 188 CURVE SMOOTH",
"38 67 OFFCURVE",
"80 -12 OFFCURVE",
"189 -12 CURVE SMOOTH",
"277 -12 OFFCURVE",
"323 44 OFFCURVE",
"362 123 CURVE",
"367 123 LINE",
"347 0 LINE"
);
},
{
closed = 1;
nodes = (
"204 101 OFFCURVE",
"187 139 OFFCURVE",
"186 188 CURVE",
"186 205 OFFCURVE",
"188 221 OFFCURVE",
"190 233 CURVE SMOOTH",
"200 293 LINE SMOOTH",
"213 371 OFFCURVE",
"250 415 OFFCURVE",
"322 415 CURVE SMOOTH",
"385 415 OFFCURVE",
"411 384 OFFCURVE",
"402 330 CURVE SMOOTH",
"388 247 LINE SMOOTH",
"381 204 OFFCURVE",
"357 169 OFFCURVE",
"341 150 CURVE SMOOTH",
"317 120 OFFCURVE",
"290 101 OFFCURVE",
"254 101 CURVE SMOOTH"
);
}
);
width = 600;
}
);
note = a;
unicode = 0061;
},
{
glyphname = a.alt01;
lastChange = "2017-11-24 23:54:01 +0000";
layers = (
{
layerId = "2D832C46-3B02-4AC2-BC3D-33D8B64E8998";
paths = (
{
closed = 1;
nodes = (
"269 -12 OFFCURVE",
"324 25 OFFCURVE",
"353 91 CURVE",
"358 91 LINE",
"343 0 LINE",
"483 0 LINE",
"531 290 LINE SMOOTH",
"535 316 OFFCURVE",
"538 337 OFFCURVE",
"538 358 CURVE SMOOTH",
"538 471 OFFCURVE",
"448 528 OFFCURVE",
"311 528 CURVE SMOOTH",
"204 528 OFFCURVE",
"129 481 OFFCURVE",
"88 432 CURVE",
"162 357 LINE",
"198 396 OFFCURVE",
"236 420 OFFCURVE",
"298 420 CURVE SMOOTH",
"365 420 OFFCURVE",
"393 391 OFFCURVE",
"393 347 CURVE SMOOTH",
"393 339 OFFCURVE",
"392 329 OFFCURVE",
"391 323 CURVE SMOOTH",
"387 301 LINE",
"292 301 LINE SMOOTH",
"126 301 OFFCURVE",
"37 240 OFFCURVE",
"37 117 CURVE SMOOTH",
"37 36 OFFCURVE",
"99 -12 OFFCURVE",
"199 -12 CURVE SMOOTH"
);
},
{
closed = 1;
nodes = (
"211 84 OFFCURVE",
"185 100 OFFCURVE",
"185 132 CURVE SMOOTH",
"185 139 OFFCURVE",
"185 144 OFFCURVE",
"187 160 CURVE SMOOTH",
"192 200 OFFCURVE",
"229 221 OFFCURVE",
"289 221 CURVE SMOOTH",
"374 221 LINE",
"364 161 LINE SMOOTH",
"356 113 OFFCURVE",
"308 84 OFFCURVE",
"253 84 CURVE SMOOTH"
);
}
);
width = 600;
}
);
note = a.alt01;
},
{
glyphname = b;
lastChange = "2017-11-24 23:54:01 +0000";
layers = (
{
layerId = "2D832C46-3B02-4AC2-BC3D-33D8B64E8998";
paths = (
{
closed = 1;
nodes = (
"21 0 LINE",
"167 0 LINE",
"183 96 LINE",
"190 96 LINE",
"205 28 OFFCURVE",
"244 -12 OFFCURVE",
"325 -12 CURVE SMOOTH",
"468 -12 OFFCURVE",
"562 123 OFFCURVE",
"562 328 CURVE SMOOTH",
"562 449 OFFCURVE",
"520 528 OFFCURVE",
"411 528 CURVE SMOOTH",
"323 528 OFFCURVE",
"277 472 OFFCURVE",
"238 393 CURVE",
"233 393 LINE",
"290 740 LINE",
"144 740 LINE"
);
},
{
closed = 1;
nodes = (
"215 101 OFFCURVE",
"189 132 OFFCURVE",
"198 186 CURVE SMOOTH",
"212 269 LINE SMOOTH",
"219 312 OFFCURVE",
"243 347 OFFCURVE",
"259 366 CURVE SMOOTH",
"283 396 OFFCURVE",
"310 415 OFFCURVE",
"346 415 CURVE SMOOTH",
"396 415 OFFCURVE",
"413 377 OFFCURVE",
"414 328 CURVE SMOOTH",
"414 311 OFFCURVE",
"412 295 OFFCURVE",
"410 283 CURVE SMOOTH",
"400 223 LINE SMOOTH",
"387 145 OFFCURVE",
"350 101 OFFCURVE",
"278 101 CURVE SMOOTH"
);
}
);
width = 600;
}
);
note = b;
unicode = 0062;
},
{
glyphname = c;
lastChange = "2017-11-24 23:54:01 +0000";
layers = (
{
layerId = "2D832C46-3B02-4AC2-BC3D-33D8B64E8998";
paths = (
{
closed = 1;
nodes = (
"397 -12 OFFCURVE",
"465 48 OFFCURVE",
"533 156 CURVE",
"442 215 LINE",
"369 119 OFFCURVE",
"339 105 OFFCURVE",
"297 105 CURVE SMOOTH",
"231 105 OFFCURVE",
"206 141 OFFCURVE",
"206 194 CURVE SMOOTH",
"206 210 OFFCURVE",
"208 229 OFFCURVE",
"210 241 CURVE SMOOTH",
"220 301 LINE SMOOTH",
"232 373 OFFCURVE",
"274 411 OFFCURVE",
"331 411 CURVE SMOOTH",
"389 411 OFFCURVE",
"410 384 OFFCURVE",
"424 341 CURVE",
"543 397 LINE",
"521 475 OFFCURVE",
"461 528 OFFCURVE",
"343 528 CURVE SMOOTH",
"159 528 OFFCURVE",
"57 382 OFFCURVE",
"57 206 CURVE SMOOTH",
"57 68 OFFCURVE",
"133 -12 OFFCURVE",
"273 -12 CURVE SMOOTH"
);
}
);
width = 600;
}
);
note = c;
unicode = 0063;
},
{
glyphname = d;
lastChange = "2017-11-24 23:54:01 +0000";
layers = (
{
layerId = "2D832C46-3B02-4AC2-BC3D-33D8B64E8998";
paths = (
{
closed = 1;
nodes = (
"347 0 LINE",
"493 0 LINE",
"616 740 LINE",
"470 740 LINE",
"417 420 LINE",
"410 420 LINE",
"395 488 OFFCURVE",
"356 528 OFFCURVE",
"275 528 CURVE SMOOTH",
"132 528 OFFCURVE",
"38 393 OFFCURVE",
"38 188 CURVE SMOOTH",
"38 67 OFFCURVE",
"80 -12 OFFCURVE",
"189 -12 CURVE SMOOTH",
"277 -12 OFFCURVE",
"323 44 OFFCURVE",
"362 123 CURVE",
"367 123 LINE"
);
},
{
closed = 1;
nodes = (
"204 101 OFFCURVE",
"187 139 OFFCURVE",
"186 188 CURVE",
"186 205 OFFCURVE",
"188 221 OFFCURVE",
"190 233 CURVE SMOOTH",
"200 293 LINE SMOOTH",
"213 371 OFFCURVE",
"250 415 OFFCURVE",
"322 415 CURVE SMOOTH",
"385 415 OFFCURVE",
"411 384 OFFCURVE",
"402 330 CURVE SMOOTH",
"388 247 LINE SMOOTH",
"381 204 OFFCURVE",
"357 169 OFFCURVE",
"341 150 CURVE SMOOTH",
"317 120 OFFCURVE",
"290 101 OFFCURVE",
"254 101 CURVE SMOOTH"
);
}
);
width = 600;
}
);
note = d;
unicode = 0064;
},
{
glyphname = e;
lastChange = "2017-11-24 23:54:01 +0000";
layers = (
{
layerId = "2D832C46-3B02-4AC2-BC3D-33D8B64E8998";
paths = (
{
closed = 1;
nodes = (
"413 -12 OFFCURVE",
"479 52 OFFCURVE",
"533 129 CURVE",
"442 188 LINE",
"389 120 OFFCURVE",
"357 100 OFFCURVE",
"300 100 CURVE SMOOTH",
"230 100 OFFCURVE",
"201 131 OFFCURVE",
"201 186 CURVE SMOOTH",
"201 191 OFFCURVE",
"201 195 OFFCURVE",
"202 203 CURVE",
"496 214 OFFCURVE",
"550 303 OFFCURVE",
"550 386 CURVE SMOOTH",
"550 481 OFFCURVE",
"464 528 OFFCURVE",
"360 528 CURVE SMOOTH",
"177 528 OFFCURVE",
"56 400 OFFCURVE",
"56 208 CURVE SMOOTH",
"56 71 OFFCURVE",
"129 -12 OFFCURVE",
"281 -12 CURVE SMOOTH"
);
},
{
closed = 1;
nodes = (
"389 425 OFFCURVE",
"409 406 OFFCURVE",
"409 373 CURVE SMOOTH",
"409 340 OFFCURVE",
"397 297 OFFCURVE",
"212 287 CURVE",
"215 301 LINE SMOOTH",
"234 390 OFFCURVE",
"282 425 OFFCURVE",
"345 425 CURVE SMOOTH"
);
}
);
width = 600;
}
);
note = e;
unicode = 0065;
},
{
glyphname = f;
lastChange = "2017-11-24 23:54:01 +0000";
layers = (
{
layerId = "2D832C46-3B02-4AC2-BC3D-33D8B64E8998";
paths = (
{
closed = 1;
nodes = (
"257 -212 OFFCURVE",
"315 -165 OFFCURVE",
"334 -53 CURVE SMOOTH",
"410 402 LINE",
"597 402 LINE",
"616 516 LINE",
"430 516 LINE",
"448 626 LINE",
"634 626 LINE",
"653 740 LINE",
"475 740 LINE SMOOTH",
"368 740 OFFCURVE",
"311 680 OFFCURVE",
"297 594 CURVE SMOOTH",
"284 516 LINE",
"121 516 LINE",
"102 402 LINE",
"265 402 LINE",
"183 -92 LINE",
"171 -97 LINE",
"68 39 LINE",
"-32 -30 LINE",
"9 -89 LINE SMOOTH",
"61 -163 OFFCURVE",
"100 -212 OFFCURVE",
"173 -212 CURVE SMOOTH"
);
}
);
width = 600;
}
);
note = f;
unicode = 0066;
},
{
glyphname = g;
lastChange = "2017-11-24 23:54:01 +0000";
layers = (
{
layerId = "2D832C46-3B02-4AC2-BC3D-33D8B64E8998";
paths = (
{
closed = 1;
nodes = (
"377 -212 OFFCURVE",
"473 -131 OFFCURVE",
"501 36 CURVE SMOOTH",
"581 516 LINE",
"435 516 LINE",
"419 420 LINE",
"411 420 LINE",
"397 488 OFFCURVE",
"358 528 OFFCURVE",
"275 528 CURVE SMOOTH",
"130 528 OFFCURVE",
"41 396 OFFCURVE",
"41 208 CURVE SMOOTH",
"41 93 OFFCURVE",
"85 8 OFFCURVE",
"196 8 CURVE SMOOTH",
"285 8 OFFCURVE",
"330 64 OFFCURVE",
"368 143 CURVE",
"374 143 LINE",
"359 54 LINE SMOOTH",
"338 -72 OFFCURVE",
"294 -99 OFFCURVE",
"220 -99 CURVE SMOOTH",
"174 -99 OFFCURVE",
"132 -85 OFFCURVE",
"100 -46 CURVE",
"13 -136 LINE",
"65 -197 OFFCURVE",
"128 -212 OFFCURVE",
"224 -212 CURVE SMOOTH"
);
},
{
closed = 1;
nodes = (
"210 122 OFFCURVE",
"191 158 OFFCURVE",
"191 202 CURVE SMOOTH",
"191 223 OFFCURVE",
"193 239 OFFCURVE",
"195 251 CURVE SMOOTH",
"202 293 LINE SMOOTH",
"214 365 OFFCURVE",
"251 415 OFFCURVE",
"325 415 CURVE SMOOTH",
"390 415 OFFCURVE",
"413 381 OFFCURVE",
"405 333 CURVE SMOOTH",
"394 266 LINE SMOOTH",
"386 218 OFFCURVE",
"361 187 OFFCURVE",
"345 168 CURVE SMOOTH",
"321 140 OFFCURVE",
"296 122 OFFCURVE",
"260 122 CURVE SMOOTH"
);
}
);
width = 600;
}
);
note = g;
unicode = 0067;
},
{
glyphname = g.alt01;
lastChange = "2017-11-24 23:54:01 +0000";
layers = (
{
layerId = "2D832C46-3B02-4AC2-BC3D-33D8B64E8998";
paths = (
{
closed = 1;
nodes = (
"439 -212 OFFCURVE",
"536 -153 OFFCURVE",
"536 -30 CURVE SMOOTH",
"536 44 OFFCURVE",
"474 96 OFFCURVE",
"346 96 CURVE SMOOTH",
"236 96 LINE SMOOTH",
"198 96 OFFCURVE",
"166 99 OFFCURVE",
"166 127 CURVE SMOOTH",
"166 148 OFFCURVE",
"180 162 OFFCURVE",
"200 170 CURVE",
"224 163 OFFCURVE",
"251 160 OFFCURVE",
"281 160 CURVE SMOOTH",
"433 160 OFFCURVE",
"540 238 OFFCURVE",
"540 373 CURVE SMOOTH",
"540 429 OFFCURVE",
"516 470 OFFCURVE",
"474 496 CURVE",
"476 507 LINE",
"600 507 LINE",
"618 614 LINE",
"527 614 LINE SMOOTH",
"478 614 OFFCURVE",
"443 584 OFFCURVE",
"436 544 CURVE SMOOTH",
"431 516 LINE",
"405 524 OFFCURVE",
"375 528 OFFCURVE",
"342 528 CURVE SMOOTH",
"192 528 OFFCURVE",
"85 451 OFFCURVE",
"85 315 CURVE SMOOTH",
"85 256 OFFCURVE",
"112 212 OFFCURVE",
"160 186 CURVE",
"158 179 LINE",
"90 168 OFFCURVE",
"50 142 OFFCURVE",
"50 84 CURVE SMOOTH",
"50 47 OFFCURVE",
"72 26 OFFCURVE",
"109 14 CURVE",
"108 8 LINE",
"34 -10 OFFCURVE",
"-9 -41 OFFCURVE",
"-9 -109 CURVE SMOOTH",
"-9 -170 OFFCURVE",
"45 -212 OFFCURVE",
"222 -212 CURVE SMOOTH"
);
},
{
closed = 1;
nodes = (
"117 -48 OFFCURVE",
"126 -31 OFFCURVE",
"145 -19 CURVE",
"323 -19 LINE SMOOTH",
"377 -19 OFFCURVE",
"394 -33 OFFCURVE",
"394 -59 CURVE SMOOTH",
"394 -96 OFFCURVE",
"364 -118 OFFCURVE",
"296 -118 CURVE SMOOTH",
"200 -118 LINE SMOOTH",
"140 -118 OFFCURVE",
"117 -98 OFFCURVE",
"117 -69 CURVE SMOOTH"
);
},
{
closed = 1;
nodes = (
"245 253 OFFCURVE",
"224 279 OFFCURVE",
"224 316 CURVE SMOOTH",
"224 324 OFFCURVE",
"225 332 OFFCURVE",
"229 356 CURVE SMOOTH",
"237 404 OFFCURVE",
"269 435 OFFCURVE",
"325 435 CURVE SMOOTH",
"381 435 OFFCURVE",
"402 409 OFFCURVE",
"402 372 CURVE SMOOTH",
"402 364 OFFCURVE",
"401 356 OFFCURVE",
"397 332 CURVE SMOOTH",
"389 284 OFFCURVE",
"357 253 OFFCURVE",
"301 253 CURVE SMOOTH"
);
}
);
width = 600;
}
);
note = g.alt01;
},
{
glyphname = g.alt02;
lastChange = "2017-11-24 23:54:01 +0000";
layers = (
{
layerId = "2D832C46-3B02-4AC2-BC3D-33D8B64E8998";
paths = (
{
closed = 1;
nodes = (
"439 -212 OFFCURVE",
"536 -153 OFFCURVE",
"536 -30 CURVE SMOOTH",
"536 44 OFFCURVE",
"474 96 OFFCURVE",
"346 96 CURVE SMOOTH",
"236 96 LINE SMOOTH",
"198 96 OFFCURVE",
"166 99 OFFCURVE",
"166 127 CURVE SMOOTH",
"166 148 OFFCURVE",
"180 162 OFFCURVE",
"200 170 CURVE",
"224 163 OFFCURVE",
"251 160 OFFCURVE",
"281 160 CURVE SMOOTH",
"433 160 OFFCURVE",
"540 238 OFFCURVE",
"540 373 CURVE SMOOTH",
"540 390 OFFCURVE",
"536 404 OFFCURVE",
"530 418 CURVE",
"601 418 LINE",
"618 516 LINE",
"423 516 LINE",
"400 523 OFFCURVE",
"373 528 OFFCURVE",
"342 528 CURVE SMOOTH",
"192 528 OFFCURVE",
"85 451 OFFCURVE",
"85 315 CURVE SMOOTH",
"85 256 OFFCURVE",
"112 212 OFFCURVE",
"160 186 CURVE",
"158 179 LINE",
"90 168 OFFCURVE",
"50 142 OFFCURVE",
"50 84 CURVE SMOOTH",
"50 47 OFFCURVE",
"72 26 OFFCURVE",
"109 14 CURVE",
"108 8 LINE",
"34 -10 OFFCURVE",
"-9 -41 OFFCURVE",
"-9 -109 CURVE SMOOTH",
"-9 -170 OFFCURVE",
"45 -212 OFFCURVE",
"222 -212 CURVE SMOOTH"
);
},
{
closed = 1;
nodes = (
"245 253 OFFCURVE",
"224 279 OFFCURVE",
"224 316 CURVE SMOOTH",
"224 324 OFFCURVE",
"225 332 OFFCURVE",
"229 356 CURVE SMOOTH",
"237 404 OFFCURVE",
"269 435 OFFCURVE",
"325 435 CURVE SMOOTH",
"381 435 OFFCURVE",
"402 409 OFFCURVE",
"402 372 CURVE SMOOTH",
"402 364 OFFCURVE",
"401 356 OFFCURVE",
"397 332 CURVE SMOOTH",
"389 284 OFFCURVE",
"357 253 OFFCURVE",
"301 253 CURVE SMOOTH"
);
},
{
closed = 1;
nodes = (
"394 -96 OFFCURVE",
"364 -118 OFFCURVE",
"296 -118 CURVE SMOOTH",
"200 -118 LINE SMOOTH",
"140 -118 OFFCURVE",
"117 -98 OFFCURVE",
"117 -69 CURVE SMOOTH",
"117 -48 OFFCURVE",
"126 -31 OFFCURVE",
"145 -19 CURVE",
"323 -19 LINE SMOOTH",
"377 -19 OFFCURVE",
"394 -33 OFFCURVE",
"394 -59 CURVE SMOOTH"
);
}
);
width = 600;
}
);
note = g.alt02;
},
{
glyphname = h;
lastChange = "2017-11-24 23:54:01 +0000";
layers = (
{
layerId = "2D832C46-3B02-4AC2-BC3D-33D8B64E8998";
paths = (
{
closed = 1;
nodes = (
"25 0 LINE",
"171 0 LINE",
"216 269 LINE SMOOTH",
"223 311 OFFCURVE",
"248 349 OFFCURVE",
"263 369 CURVE SMOOTH",
"286 399 OFFCURVE",
"310 416 OFFCURVE",
"344 416 CURVE SMOOTH",
"389 416 OFFCURVE",
"404 382 OFFCURVE",
"404 355 CURVE SMOOTH",
"404 330 OFFCURVE",
"400 311 OFFCURVE",
"397 293 CURVE SMOOTH",
"348 0 LINE",
"494 0 LINE",
"540 275 LINE SMOOTH",
"548 323 OFFCURVE",
"551 350 OFFCURVE",
"551 379 CURVE SMOOTH",
"551 459 OFFCURVE",
"511 528 OFFCURVE",
"410 528 CURVE SMOOTH",
"328 528 OFFCURVE",
"281 477 OFFCURVE",
"242 393 CURVE",
"237 393 LINE",
"294 740 LINE",
"148 740 LINE"
);
}
);
width = 600;
}
);
note = h;
unicode = 0068;
},
{
glyphname = i;
lastChange = "2017-11-24 23:54:01 +0000";
layers = (
{
layerId = "2D832C46-3B02-4AC2-BC3D-33D8B64E8998";
paths = (
{
closed = 1;
nodes = (
"399 584 OFFCURVE",
"426 608 OFFCURVE",
"433 650 CURVE SMOOTH",
"437 674 OFFCURVE",
"438 683 OFFCURVE",
"438 690 CURVE SMOOTH",
"438 725 OFFCURVE",
"416 751 OFFCURVE",
"356 751 CURVE SMOOTH",
"296 751 OFFCURVE",
"269 727 OFFCURVE",
"262 685 CURVE SMOOTH",
"258 661 OFFCURVE",
"257 652 OFFCURVE",
"257 645 CURVE SMOOTH",
"257 610 OFFCURVE",
"279 584 OFFCURVE",
"339 584 CURVE SMOOTH"
);
},
{
closed = 1;
nodes = (
"367 -12 OFFCURVE",
"423 27 OFFCURVE",
"490 103 CURVE SMOOTH",
"551 173 LINE",
"471 244 LINE",
"331 101 LINE",
"314 106 LINE",
"391 516 LINE",
"87 516 LINE",
"68 402 LINE",
"224 402 LINE",
"184 188 LINE SMOOTH",
"176 147 OFFCURVE",
"174 130 OFFCURVE",
"174 108 CURVE SMOOTH",
"174 35 OFFCURVE",
"216 -12 OFFCURVE",
"298 -12 CURVE SMOOTH"
);
}
);
width = 600;
}
);
note = i;
unicode = 0069;
},
{
glyphname = j;
lastChange = "2017-11-24 23:54:01 +0000";
layers = (
{
layerId = "2D832C46-3B02-4AC2-BC3D-33D8B64E8998";
paths = (
{
closed = 1;
nodes = (
"312 -212 OFFCURVE",
"365 -162 OFFCURVE",
"386 -37 CURVE SMOOTH",
"478 516 LINE",
"143 516 LINE",
"124 402 LINE",
"313 402 LINE",
"230 -96 LINE",
"217 -101 LINE",
"104 54 LINE",
"4 -15 LINE",
"36 -65 LINE SMOOTH",
"97 -160 OFFCURVE",
"137 -212 OFFCURVE",
"216 -212 CURVE SMOOTH"
);
},
{
closed = 1;
nodes = (
"482 584 OFFCURVE",
"509 608 OFFCURVE",
"516 650 CURVE SMOOTH",
"520 674 OFFCURVE",
"521 683 OFFCURVE",
"521 690 CURVE SMOOTH",
"521 725 OFFCURVE",
"499 751 OFFCURVE",
"439 751 CURVE SMOOTH",
"379 751 OFFCURVE",
"352 727 OFFCURVE",
"345 685 CURVE SMOOTH",
"341 661 OFFCURVE",
"340 652 OFFCURVE",
"340 645 CURVE SMOOTH",
"340 610 OFFCURVE",
"362 584 OFFCURVE",
"422 584 CURVE SMOOTH"
);
}
);
width = 600;
}
);
note = j;
unicode = 006A;
},
{
glyphname = k;
lastChange = "2017-11-24 23:54:01 +0000";
layers = (
{
layerId = "2D832C46-3B02-4AC2-BC3D-33D8B64E8998";
paths = (
{
closed = 1;
nodes = (
"24 0 LINE",
"170 0 LINE",
"215 269 LINE SMOOTH",
"223 317 OFFCURVE",
"241 346 OFFCURVE",
"261 371 CURVE SMOOTH",
"291 409 OFFCURVE",
"316 419 OFFCURVE",
"341 419 CURVE SMOOTH",
"384 419 OFFCURVE",
"408 395 OFFCURVE",
"408 361 CURVE SMOOTH",
"408 297 OFFCURVE",
"344 262 OFFCURVE",
"225 227 CURVE",
"275 90 LINE SMOOTH",
"298 26 OFFCURVE",
"331 -12 OFFCURVE",
"394 -12 CURVE SMOOTH",
"447 -12 OFFCURVE",
"491 14 OFFCURVE",
"534 60 CURVE SMOOTH",
"586 116 LINE",
"516 185 LINE",
"434 105 LINE",
"419 108 LINE",
"377 218 LINE",
"492 253 OFFCURVE",
"554 311 OFFCURVE",
"554 406 CURVE SMOOTH",
"554 474 OFFCURVE",
"505 528 OFFCURVE",
"420 528 CURVE SMOOTH",
"332 528 OFFCURVE",
"277 470 OFFCURVE",
"242 393 CURVE",
"236 393 LINE",
"293 740 LINE",
"147 740 LINE"
);
}
);
width = 600;
}
);
note = k;
unicode = 006B;
},
{
glyphname = l;
lastChange = "2017-11-24 23:54:01 +0000";
layers = (
{
layerId = "2D832C46-3B02-4AC2-BC3D-33D8B64E8998";
paths = (
{
closed = 1;
nodes = (
"339 -12 OFFCURVE",
"395 27 OFFCURVE",
"462 103 CURVE SMOOTH",
"523 173 LINE",
"443 244 LINE",
"303 101 LINE",
"288 106 LINE",
"405 740 LINE",
"106 740 LINE",
"87 626 LINE",
"239 626 LINE",
"158 188 LINE SMOOTH",
"150 147 OFFCURVE",
"148 130 OFFCURVE",
"148 108 CURVE SMOOTH",
"148 35 OFFCURVE",
"188 -12 OFFCURVE",
"270 -12 CURVE SMOOTH"
);
}
);
width = 600;
}
);
note = l;
unicode = 006C;
},
{
glyphname = m;
lastChange = "2017-11-24 23:54:01 +0000";
layers = (
{
layerId = "2D832C46-3B02-4AC2-BC3D-33D8B64E8998";
paths = (
{
closed = 1;
nodes = (
"106 0 LINE",
"160 324 LINE SMOOTH",
"163 342 OFFCURVE",
"170 366 OFFCURVE",
"184 389 CURVE SMOOTH",
"200 415 OFFCURVE",
"215 421 OFFCURVE",
"230 421 CURVE SMOOTH",
"249 421 OFFCURVE",
"259 408 OFFCURVE",
"259 383 CURVE SMOOTH",
"259 369 OFFCURVE",
"257 353 OFFCURVE",
"255 341 CURVE SMOOTH",
"198 0 LINE",
"316 0 LINE",
"368 312 LINE SMOOTH",
"374 348 OFFCURVE",
"381 369 OFFCURVE",
"393 389 CURVE SMOOTH",
"408 414 OFFCURVE",
"423 421 OFFCURVE",
"440 421 CURVE SMOOTH",
"458 421 OFFCURVE",
"469 406 OFFCURVE",
"469 382 CURVE SMOOTH",
"469 369 OFFCURVE",
"467 353 OFFCURVE",
"465 341 CURVE SMOOTH",
"408 0 LINE",
"526 0 LINE",
"585 356 LINE SMOOTH",
"589 380 OFFCURVE",
"592 409 OFFCURVE",
"592 432 CURVE SMOOTH",
"592 495 OFFCURVE",
"563 528 OFFCURVE",
"504 528 CURVE SMOOTH",
"441 528 OFFCURVE",
"405 484 OFFCURVE",
"380 426 CURVE",
"375 426 LINE",
"382 494 OFFCURVE",
"350 528 OFFCURVE",
"297 528 CURVE SMOOTH",
"243 528 OFFCURVE",
"206 486 OFFCURVE",
"183 426 CURVE",
"177 426 LINE",
"192 516 LINE",
"74 516 LINE",
"-12 0 LINE"
);
}
);
width = 600;
}
);
note = m;
unicode = 006D;
},
{
glyphname = n;
lastChange = "2017-11-24 23:54:01 +0000";
layers = (
{
layerId = "2D832C46-3B02-4AC2-BC3D-33D8B64E8998";
paths = (
{
closed = 1;
nodes = (
"171 0 LINE",
"216 269 LINE SMOOTH",
"223 311 OFFCURVE",
"248 349 OFFCURVE",
"263 369 CURVE SMOOTH",
"286 399 OFFCURVE",
"310 416 OFFCURVE",
"344 416 CURVE SMOOTH",
"389 416 OFFCURVE",
"404 382 OFFCURVE",
"404 355 CURVE SMOOTH",
"404 330 OFFCURVE",
"400 311 OFFCURVE",
"397 293 CURVE SMOOTH",
"348 0 LINE",
"494 0 LINE",
"540 275 LINE SMOOTH",
"548 323 OFFCURVE",
"551 350 OFFCURVE",
"551 379 CURVE SMOOTH",
"551 459 OFFCURVE",
"511 528 OFFCURVE",
"410 528 CURVE SMOOTH",
"328 528 OFFCURVE",
"281 477 OFFCURVE",
"242 393 CURVE",
"237 393 LINE",
"257 516 LINE",
"111 516 LINE",
"25 0 LINE"
);
}
);
width = 600;
}
);
note = n;
unicode = 006E;
},
{
glyphname = o;
lastChange = "2017-11-24 23:54:01 +0000";
layers = (
{
layerId = "2D832C46-3B02-4AC2-BC3D-33D8B64E8998";
paths = (
{
closed = 1;
nodes = (
"438 -12 OFFCURVE",
"557 109 OFFCURVE",
"557 306 CURVE SMOOTH",
"557 442 OFFCURVE",
"475 528 OFFCURVE",
"335 528 CURVE SMOOTH",
"162 528 OFFCURVE",
"43 407 OFFCURVE",
"43 210 CURVE SMOOTH",
"43 74 OFFCURVE",
"125 -12 OFFCURVE",
"265 -12 CURVE SMOOTH"
);
},
{
closed = 1;
nodes = (
"222 97 OFFCURVE",
"188 127 OFFCURVE",
"188 188 CURVE SMOOTH",
"188 200 OFFCURVE",
"191 217 OFFCURVE",
"193 229 CURVE SMOOTH",
"206 307 LINE SMOOTH",
"218 379 OFFCURVE",
"260 419 OFFCURVE",
"324 419 CURVE SMOOTH",
"378 419 OFFCURVE",
"412 389 OFFCURVE",
"412 328 CURVE SMOOTH",
"412 316 OFFCURVE",
"409 299 OFFCURVE",
"407 287 CURVE SMOOTH",
"394 209 LINE SMOOTH",
"382 137 OFFCURVE",
"340 97 OFFCURVE",
"276 97 CURVE SMOOTH"
);
}
);
width = 600;
}
);
note = o;
unicode = 006F;
},
{
glyphname = p;
lastChange = "2017-11-24 23:54:01 +0000";
layers = (
{
layerId = "2D832C46-3B02-4AC2-BC3D-33D8B64E8998";
paths = (
{
closed = 1;
nodes = (
"-13 -200 LINE",
"133 -200 LINE",
"183 96 LINE",
"190 96 LINE",
"205 28 OFFCURVE",
"244 -12 OFFCURVE",
"325 -12 CURVE SMOOTH",
"468 -12 OFFCURVE",
"562 123 OFFCURVE",
"562 328 CURVE SMOOTH",
"562 449 OFFCURVE",
"520 528 OFFCURVE",
"411 528 CURVE SMOOTH",
"323 528 OFFCURVE",
"277 472 OFFCURVE",
"238 393 CURVE",
"233 393 LINE",
"253 516 LINE",
"107 516 LINE"
);
},
{
closed = 1;
nodes = (
"215 101 OFFCURVE",
"189 132 OFFCURVE",
"198 186 CURVE SMOOTH",
"212 269 LINE SMOOTH",
"219 312 OFFCURVE",
"243 347 OFFCURVE",
"259 366 CURVE SMOOTH",
"283 396 OFFCURVE",
"310 415 OFFCURVE",
"346 415 CURVE SMOOTH",
"396 415 OFFCURVE",
"413 377 OFFCURVE",
"414 328 CURVE SMOOTH",
"414 311 OFFCURVE",
"412 295 OFFCURVE",
"410 283 CURVE SMOOTH",
"400 223 LINE SMOOTH",
"387 145 OFFCURVE",
"350 101 OFFCURVE",
"278 101 CURVE SMOOTH"
);
}
);
width = 600;
}
);
note = p;
unicode = 0070;
},
{
glyphname = q;
lastChange = "2017-11-24 23:54:01 +0000";
layers = (
{
layerId = "2D832C46-3B02-4AC2-BC3D-33D8B64E8998";
paths = (
{
closed = 1;
nodes = (
"314 -200 LINE",
"460 -200 LINE",
"579 516 LINE",
"433 516 LINE",
"417 420 LINE",
"410 420 LINE",
"395 488 OFFCURVE",
"356 528 OFFCURVE",
"275 528 CURVE SMOOTH",
"132 528 OFFCURVE",
"38 393 OFFCURVE",
"38 188 CURVE SMOOTH",
"38 67 OFFCURVE",
"80 -12 OFFCURVE",
"189 -12 CURVE SMOOTH",
"277 -12 OFFCURVE",
"323 44 OFFCURVE",
"362 123 CURVE",
"367 123 LINE"
);
},
{
closed = 1;
nodes = (
"204 101 OFFCURVE",
"187 139 OFFCURVE",
"186 188 CURVE",
"186 205 OFFCURVE",
"188 221 OFFCURVE",
"190 233 CURVE SMOOTH",
"200 293 LINE SMOOTH",
"213 371 OFFCURVE",
"250 415 OFFCURVE",
"322 415 CURVE SMOOTH",
"385 415 OFFCURVE",
"411 384 OFFCURVE",
"402 330 CURVE SMOOTH",
"388 247 LINE SMOOTH",
"381 204 OFFCURVE",
"357 169 OFFCURVE",
"341 150 CURVE SMOOTH",
"317 120 OFFCURVE",
"290 101 OFFCURVE",
"254 101 CURVE SMOOTH"
);
}
);
width = 600;
}
);
note = q;
unicode = 0071;
},
{
glyphname = r;
lastChange = "2017-11-24 23:54:01 +0000";
layers = (
{
layerId = "2D832C46-3B02-4AC2-BC3D-33D8B64E8998";
paths = (
{
closed = 1;
nodes = (
"292 0 LINE",
"331 236 LINE SMOOTH",
"337 272 OFFCURVE",
"359 309 OFFCURVE",
"372 325 CURVE SMOOTH",
"396 355 OFFCURVE",
"426 370 OFFCURVE",
"480 370 CURVE SMOOTH",
"571 370 LINE",
"597 516 LINE",
"563 516 LINE SMOOTH",
"462 516 OFFCURVE",
"400 458 OFFCURVE",
"357 360 CURVE",
"351 360 LINE",
"378 516 LINE",
"114 516 LINE",
"95 402 LINE",
"213 402 LINE",
"146 0 LINE"
);
}
);
width = 600;
}
);
note = r;
unicode = 0072;
},
{
glyphname = s;
lastChange = "2017-11-24 23:54:01 +0000";
layers = (
{
layerId = "2D832C46-3B02-4AC2-BC3D-33D8B64E8998";
paths = (
{
closed = 1;
nodes = (
"412 -12 OFFCURVE",
"511 56 OFFCURVE",
"511 170 CURVE SMOOTH",
"511 254 OFFCURVE",
"458 290 OFFCURVE",
"372 309 CURVE SMOOTH",
"295 326 LINE SMOOTH",
"263 333 OFFCURVE",
"244 341 OFFCURVE",
"244 369 CURVE SMOOTH",
"244 406 OFFCURVE",
"278 425 OFFCURVE",
"330 425 CURVE SMOOTH",
"388 425 OFFCURVE",
"436 402 OFFCURVE",
"459 373 CURVE",
"539 455 LINE",
"504 500 OFFCURVE",
"426 528 OFFCURVE",
"334 528 CURVE SMOOTH",
"200 528 OFFCURVE",
"100 466 OFFCURVE",
"100 350 CURVE SMOOTH",
"100 259 OFFCURVE",
"161 226 OFFCURVE",
"239 209 CURVE SMOOTH",
"313 193 LINE SMOOTH",
"344 186 OFFCURVE",
"366 176 OFFCURVE",
"366 148 CURVE SMOOTH",
"366 111 OFFCURVE",
"328 91 OFFCURVE",
"268 91 CURVE SMOOTH",
"207 91 OFFCURVE",
"152 112 OFFCURVE",
"123 153 CURVE",
"41 72 LINE",
"76 18 OFFCURVE",
"155 -12 OFFCURVE",
"258 -12 CURVE SMOOTH"
);
}
);
width = 600;
}
);
note = s;
unicode = 0073;
},
{
glyphname = t;
lastChange = "2017-11-24 23:54:01 +0000";
layers = (
{
layerId = "2D832C46-3B02-4AC2-BC3D-33D8B64E8998";
paths = (
{
closed = 1;
nodes = (
"349 -12 OFFCURVE",
"397 23 OFFCURVE",
"482 96 CURVE SMOOTH",
"542 148 LINE",
"470 230 LINE",
"314 107 LINE",
"294 114 LINE",
"342 402 LINE",
"544 402 LINE",
"563 516 LINE",
"361 516 LINE",
"391 698 LINE",
"255 698 LINE",
"235 576 LINE SMOOTH",
"228 531 OFFCURVE",
"208 516 OFFCURVE",
"165 516 CURVE SMOOTH",
"82 516 LINE",
"63 402 LINE",
"195 402 LINE",
"158 182 LINE SMOOTH",
"153 152 OFFCURVE",
"151 134 OFFCURVE",
"151 116 CURVE SMOOTH",
"151 39 OFFCURVE",
"190 -12 OFFCURVE",
"278 -12 CURVE SMOOTH"
);
}
);
width = 600;
}
);
note = t;
unicode = 0074;
},
{
glyphname = u;
lastChange = "2017-11-24 23:54:01 +0000";
layers = (
{
layerId = "2D832C46-3B02-4AC2-BC3D-33D8B64E8998";
paths = (
{
closed = 1;
nodes = (
"342 0 LINE",
"488 0 LINE",
"574 516 LINE",
"428 516 LINE",
"383 247 LINE SMOOTH",
"376 205 OFFCURVE",
"351 167 OFFCURVE",
"336 147 CURVE SMOOTH",
"313 117 OFFCURVE",
"289 100 OFFCURVE",
"255 100 CURVE SMOOTH",
"210 100 OFFCURVE",
"195 134 OFFCURVE",
"195 161 CURVE SMOOTH",
"195 186 OFFCURVE",
"199 206 OFFCURVE",
"202 224 CURVE SMOOTH",
"251 516 LINE",
"105 516 LINE",
"59 241 LINE SMOOTH",
"51 193 OFFCURVE",
"48 166 OFFCURVE",
"48 137 CURVE SMOOTH",
"48 57 OFFCURVE",
"88 -12 OFFCURVE",
"189 -12 CURVE SMOOTH",
"271 -12 OFFCURVE",
"318 39 OFFCURVE",
"357 123 CURVE",
"362 123 LINE"
);
}
);
width = 600;
}
);
note = u;
unicode = 0075;
},
{
glyphname = v;
lastChange = "2017-11-24 23:54:01 +0000";
layers = (
{
layerId = "2D832C46-3B02-4AC2-BC3D-33D8B64E8998";
paths = (
{
closed = 1;
nodes = (
"55 516 LINE",
"36 402 LINE",
"125 402 LINE",
"90 172 LINE SMOOTH",
"86 147 OFFCURVE",
"84 133 OFFCURVE",
"84 111 CURVE SMOOTH",
"84 36 OFFCURVE",
"126 -12 OFFCURVE",
"211 -12 CURVE SMOOTH",
"385 -12 OFFCURVE",
"553 146 OFFCURVE",
"553 350 CURVE SMOOTH",
"553 423 OFFCURVE",
"536 486 OFFCURVE",
"502 528 CURVE",
"372 480 LINE",
"393 441 OFFCURVE",
"406 395 OFFCURVE",
"406 350 CURVE SMOOTH",
"406 242 OFFCURVE",
"360 133 OFFCURVE",
"233 88 CURVE",
"221 96 LINE",
"286 516 LINE"
);
}
);
width = 600;
}
);
note = v;
unicode = 0076;
},
{
glyphname = w;
lastChange = "2017-11-24 23:54:01 +0000";
layers = (
{
layerId = "2D832C46-3B02-4AC2-BC3D-33D8B64E8998";
paths = (
{
closed = 1;
nodes = (
"167 -12 OFFCURVE",
"211 25 OFFCURVE",
"235 98 CURVE",
"242 98 LINE",
"239 39 OFFCURVE",
"265 -12 OFFCURVE",
"337 -12 CURVE SMOOTH",
"392 -12 OFFCURVE",
"448 18 OFFCURVE",
"491 72 CURVE SMOOTH",
"545 140 OFFCURVE",
"579 246 OFFCURVE",
"579 365 CURVE SMOOTH",
"579 433 OFFCURVE",
"565 487 OFFCURVE",
"545 524 CURVE",
"443 494 LINE",
"455 461 OFFCURVE",
"461 413 OFFCURVE",
"461 366 CURVE SMOOTH",
"461 229 OFFCURVE",
"412 103 OFFCURVE",
"363 103 CURVE SMOOTH",
"341 103 OFFCURVE",
"333 120 OFFCURVE",
"333 139 CURVE SMOOTH",
"333 148 OFFCURVE",
"336 171 OFFCURVE",
"338 182 CURVE SMOOTH",
"392 516 LINE",
"279 516 LINE",
"231 206 LINE SMOOTH",
"228 183 OFFCURVE",
"220 160 OFFCURVE",
"211 146 CURVE SMOOTH",
"196 122 OFFCURVE",
"180 107 OFFCURVE",
"160 107 CURVE SMOOTH",
"138 107 OFFCURVE",
"129 121 OFFCURVE",
"129 142 CURVE SMOOTH",
"129 154 OFFCURVE",
"131 176 OFFCURVE",
"133 187 CURVE SMOOTH",
"194 516 LINE",
"76 516 LINE",
"22 192 LINE SMOOTH",
"17 160 OFFCURVE",
"13 115 OFFCURVE",
"13 97 CURVE SMOOTH",
"13 32 OFFCURVE",
"42 -12 OFFCURVE",
"108 -12 CURVE SMOOTH"
);
}
);
width = 600;
}
);
note = w;
unicode = 0077;
},
{
glyphname = x;
lastChange = "2017-11-24 23:54:01 +0000";
layers = (
{
layerId = "2D832C46-3B02-4AC2-BC3D-33D8B64E8998";
paths = (
{
closed = 1;
nodes = (
"172 -12 OFFCURVE",
"218 30 OFFCURVE",
"246 139 CURVE",
"253 139 LINE",
"253 33 OFFCURVE",
"295 -12 OFFCURVE",
"359 -12 CURVE SMOOTH",
"408 -12 OFFCURVE",
"461 11 OFFCURVE",
"522 65 CURVE SMOOTH",
"573 110 LINE",
"512 187 LINE",
"378 94 LINE",
"366 100 LINE",
"365 115 OFFCURVE",
"364 131 OFFCURVE",
"364 149 CURVE SMOOTH",
"364 250 OFFCURVE",
"383 422 OFFCURVE",
"451 422 CURVE SMOOTH",
"478 422 OFFCURVE",
"488 396 OFFCURVE",
"488 345 CURVE SMOOTH",
"488 329 LINE",
"604 343 LINE",
"605 354 OFFCURVE",
"605 370 OFFCURVE",
"605 390 CURVE SMOOTH",
"605 472 OFFCURVE",
"562 528 OFFCURVE",
"497 528 CURVE SMOOTH",
"432 528 OFFCURVE",
"389 485 OFFCURVE",
"360 375 CURVE",
"353 375 LINE",
"353 380 OFFCURVE",
"353 385 OFFCURVE",
"353 390 CURVE SMOOTH",
"353 478 OFFCURVE",
"319 528 OFFCURVE",
"247 528 CURVE SMOOTH",
"198 528 OFFCURVE",
"155 503 OFFCURVE",
"104 465 CURVE SMOOTH",
"33 412 LINE",
"94 331 LINE",
"225 422 LINE",
"237 417 LINE",
"238 403 OFFCURVE",
"239 389 OFFCURVE",
"239 373 CURVE SMOOTH",
"239 282 OFFCURVE",
"217 94 OFFCURVE",
"150 94 CURVE SMOOTH",
"122 94 OFFCURVE",
"114 119 OFFCURVE",
"114 176 CURVE SMOOTH",
"114 187 LINE",
"-2 173 LINE",
"-3 161 OFFCURVE",
"-4 153 OFFCURVE",
"-4 129 CURVE SMOOTH",
"-4 37 OFFCURVE",
"39 -12 OFFCURVE",
"106 -12 CURVE SMOOTH"
);
}
);
width = 600;
}
);
note = x;
unicode = 0078;
},
{
glyphname = y;
lastChange = "2017-11-24 23:54:01 +0000";
layers = (
{
layerId = "2D832C46-3B02-4AC2-BC3D-33D8B64E8998";
paths = (
{
closed = 1;
nodes = (
"370 -212 OFFCURVE",
"466 -131 OFFCURVE",
"494 36 CURVE SMOOTH",
"574 516 LINE",
"428 516 LINE",
"386 264 LINE SMOOTH",
"379 222 OFFCURVE",
"354 184 OFFCURVE",
"339 164 CURVE SMOOTH",
"316 134 OFFCURVE",
"292 117 OFFCURVE",
"258 117 CURVE SMOOTH",
"213 117 OFFCURVE",
"198 151 OFFCURVE",
"198 178 CURVE SMOOTH",
"198 203 OFFCURVE",
"202 223 OFFCURVE",
"205 241 CURVE SMOOTH",
"251 516 LINE",
"105 516 LINE",
"62 258 LINE SMOOTH",
"54 210 OFFCURVE",
"51 183 OFFCURVE",
"51 154 CURVE SMOOTH",
"51 74 OFFCURVE",
"91 5 OFFCURVE",
"192 5 CURVE SMOOTH",
"274 5 OFFCURVE",
"321 56 OFFCURVE",
"360 140 CURVE",
"365 140 LINE",
"351 54 LINE SMOOTH",
"331 -71 OFFCURVE",
"287 -99 OFFCURVE",
"213 -99 CURVE SMOOTH",
"167 -99 OFFCURVE",
"125 -85 OFFCURVE",
"93 -46 CURVE",
"6 -136 LINE",
"58 -197 OFFCURVE",
"121 -212 OFFCURVE",
"217 -212 CURVE SMOOTH"
);
}
);
width = 600;
}
);
note = y;
unicode = 0079;
},
{
glyphname = z;
lastChange = "2017-11-24 23:54:01 +0000";
layers = (
{
layerId = "2D832C46-3B02-4AC2-BC3D-33D8B64E8998";
paths = (
{
closed = 1;
nodes = (
"495 -12 OFFCURVE",
"544 49 OFFCURVE",
"544 114 CURVE SMOOTH",
"544 144 OFFCURVE",
"536 173 OFFCURVE",
"514 212 CURVE SMOOTH",
"499 239 LINE",
"414 202 LINE",
"444 114 LINE",
"433 101 LINE",
"237 138 LINE",
"561 396 LINE",
"581 516 LINE",
"456 516 LINE",
"444 443 LINE",
"438 438 LINE",
"436 440 LINE SMOOTH",
"367 509 OFFCURVE",
"300 528 OFFCURVE",
"238 528 CURVE SMOOTH",
"139 528 OFFCURVE",
"75 463 OFFCURVE",
"75 348 CURVE SMOOTH",
"75 339 LINE",
"183 339 LINE",
"183 397 OFFCURVE",
"213 415 OFFCURVE",
"247 415 CURVE SMOOTH",
"290 415 OFFCURVE",
"320 404 OFFCURVE",
"358 374 CURVE",
"38 120 LINE",
"18 0 LINE",
"143 0 LINE",
"155 73 LINE",
"159 76 LINE",
"260 24 LINE SMOOTH",
"314 -4 OFFCURVE",
"366 -12 OFFCURVE",
"414 -12 CURVE SMOOTH"
);
}
);
width = 600;
}
);
note = z;
unicode = 007A;
},
{
glyphname = A;
lastChange = "2017-11-24 23:54:01 +0000";
layers = (
{
layerId = "2D832C46-3B02-4AC2-BC3D-33D8B64E8998";
paths = (
{
closed = 1;
nodes = (
"552 0 LINE",
"476 698 LINE",
"270 698 LINE",
"-37 0 LINE",
"118 0 LINE",
"187 169 LINE",
"383 169 LINE",
"400 0 LINE"
);
},
{
closed = 1;
nodes = (
"377 289 LINE",
"237 289 LINE",
"347 553 LINE",
"356 553 LINE"
);
}
);
width = 600;
}
);
note = A;
unicode = 0041;
},
{
glyphname = B;
lastChange = "2017-11-24 23:54:01 +0000";
layers = (
{
layerId = "2D832C46-3B02-4AC2-BC3D-33D8B64E8998";
paths = (
{
closed = 1;
nodes = (
"35 0 LINE",
"305 0 LINE SMOOTH",
"453 0 OFFCURVE",
"544 86 OFFCURVE",
"544 217 CURVE SMOOTH",
"544 291 OFFCURVE",
"503 336 OFFCURVE",
"430 350 CURVE",
"431 355 LINE",
"528 379 OFFCURVE",
"576 441 OFFCURVE",
"576 537 CURVE SMOOTH",
"576 634 OFFCURVE",
"510 698 OFFCURVE",
"389 698 CURVE SMOOTH",
"152 698 LINE"
);
},
{
closed = 1;
nodes = (
"197 104 LINE",
"230 303 LINE",
"312 303 LINE SMOOTH",
"372 303 OFFCURVE",
"397 284 OFFCURVE",
"397 238 CURVE SMOOTH",
"397 230 OFFCURVE",
"394 215 OFFCURVE",
"392 203 CURVE SMOOTH",
"388 179 LINE SMOOTH",
"379 125 OFFCURVE",
"339 104 OFFCURVE",
"273 104 CURVE SMOOTH"
);
},
{
closed = 1;
nodes = (
"247 402 LINE",
"279 594 LINE",
"343 594 LINE SMOOTH",
"396 594 OFFCURVE",
"426 578 OFFCURVE",
"426 533 CURVE SMOOTH",
"426 524 OFFCURVE",
"424 508 OFFCURVE",
"423 502 CURVE SMOOTH",
"419 478 LINE SMOOTH",
"409 418 OFFCURVE",
"374 402 OFFCURVE",
"304 402 CURVE SMOOTH"
);
}
);
width = 600;
}
);
note = B;
unicode = 0042;
},
{
glyphname = C;
lastChange = "2017-11-24 23:54:01 +0000";
layers = (
{
layerId = "2D832C46-3B02-4AC2-BC3D-33D8B64E8998";
paths = (
{
closed = 1;
nodes = (
"425 -12 OFFCURVE",
"504 58 OFFCURVE",
"559 189 CURVE",
"432 227 LINE",
"405 161 OFFCURVE",
"364 108 OFFCURVE",
"300 108 CURVE SMOOTH",
"227 108 OFFCURVE",
"199 151 OFFCURVE",
"199 221 CURVE SMOOTH",
"199 253 OFFCURVE",
"203 275 OFFCURVE",
"207 299 CURVE SMOOTH",
"225 408 LINE SMOOTH",
"244 520 OFFCURVE",
"285 590 OFFCURVE",
"367 590 CURVE SMOOTH",
"439 590 OFFCURVE",
"457 542 OFFCURVE",
"461 476 CURVE",
"604 505 LINE",
"597 626 OFFCURVE",
"528 710 OFFCURVE",
"373 710 CURVE SMOOTH",
"176 710 OFFCURVE",
"50 525 OFFCURVE",
"50 254 CURVE SMOOTH",
"50 87 OFFCURVE",
"126 -12 OFFCURVE",
"290 -12 CURVE SMOOTH"
);
}
);
width = 600;
}
);
note = C;
unicode = 0043;
},
{
glyphname = D;
lastChange = "2017-11-24 23:54:01 +0000";
layers = (
{
layerId = "2D832C46-3B02-4AC2-BC3D-33D8B64E8998";
paths = (
{
closed = 1;
nodes = (
"25 0 LINE",
"252 0 LINE SMOOTH",
"469 0 OFFCURVE",
"588 166 OFFCURVE",
"588 441 CURVE SMOOTH",
"588 606 OFFCURVE",
"503 698 OFFCURVE",
"347 698 CURVE SMOOTH",
"142 698 LINE"
);
},
{
closed = 1;
nodes = (
"192 117 LINE",
"269 581 LINE",
"334 581 LINE SMOOTH",
"405 581 OFFCURVE",
"439 545 OFFCURVE",
"439 469 CURVE SMOOTH",
"439 450 OFFCURVE",
"437 425 OFFCURVE",
"433 401 CURVE SMOOTH",
"412 275 LINE SMOOTH",
"394 167 OFFCURVE",
"344 117 OFFCURVE",
"255 117 CURVE SMOOTH"
);
}
);
width = 600;
}
);
note = D;
unicode = 0044;
},
{
glyphname = E;
lastChange = "2017-11-24 23:54:01 +0000";
layers = (
{
layerId = "2D832C46-3B02-4AC2-BC3D-33D8B64E8998";
paths = (
{
closed = 1;
nodes = (
"484 0 LINE",
"504 122 LINE",
"205 122 LINE",
"233 292 LINE",
"520 292 LINE",
"540 414 LINE",
"254 414 LINE",
"281 576 LINE",
"581 576 LINE",
"601 698 LINE",
"155 698 LINE",
"38 0 LINE"
);
}
);
width = 600;
}
);
note = E;
unicode = 0045;
},
{
glyphname = F;
lastChange = "2017-11-24 23:54:01 +0000";
layers = (
{
layerId = "2D832C46-3B02-4AC2-BC3D-33D8B64E8998";
paths = (
{
closed = 1;
nodes = (
"185 0 LINE",
"234 292 LINE",
"516 292 LINE",
"536 414 LINE",
"254 414 LINE",
"281 576 LINE",
"597 576 LINE",
"617 698 LINE",
"155 698 LINE",
"38 0 LINE"
);
}
);
width = 600;
}
);
note = F;
unicode = 0046;
},
{
glyphname = G;
lastChange = "2017-11-24 23:54:01 +0000";
layers = (
{
layerId = "2D832C46-3B02-4AC2-BC3D-33D8B64E8998";
paths = (
{
closed = 1;
nodes = (
"373 0 LINE",
"504 0 LINE",
"566 372 LINE",
"312 372 LINE",
"295 267 LINE",
"418 267 LINE",
"410 219 LINE SMOOTH",
"400 159 OFFCURVE",
"359 108 OFFCURVE",
"289 108 CURVE SMOOTH",
"225 108 OFFCURVE",
"196 154 OFFCURVE",
"196 224 CURVE SMOOTH",
"196 251 OFFCURVE",
"200 287 OFFCURVE",
"204 311 CURVE SMOOTH",
"221 413 LINE SMOOTH",
"239 521 OFFCURVE",
"279 590 OFFCURVE",
"355 590 CURVE SMOOTH",
"424 590 OFFCURVE",
"441 536 OFFCURVE",
"446 476 CURVE",
"589 504 LINE",
"580 625 OFFCURVE",
"513 710 OFFCURVE",
"368 710 CURVE SMOOTH",
"154 710 OFFCURVE",
"45 510 OFFCURVE",
"45 245 CURVE SMOOTH",
"45 77 OFFCURVE",
"116 -12 OFFCURVE",
"230 -12 CURVE SMOOTH",
"311 -12 OFFCURVE",
"346 39 OFFCURVE",
"381 101 CURVE",
"390 101 LINE"
);
}
);
width = 600;
}
);
note = G;
unicode = 0047;
},
{
glyphname = H;
lastChange = "2017-11-24 23:54:01 +0000";
layers = (
{
layerId = "2D832C46-3B02-4AC2-BC3D-33D8B64E8998";
paths = (
{
closed = 1;
nodes = (
"348 0 LINE",
"496 0 LINE",
"612 698 LINE",
"464 698 LINE",
"417 414 LINE",
"237 414 LINE",
"284 698 LINE",
"136 698 LINE",
"20 0 LINE",
"168 0 LINE",
"217 293 LINE",
"397 293 LINE"
);
}
);
width = 600;
}
);
note = H;
unicode = 0048;
},
{
glyphname = I;
lastChange = "2017-11-24 23:54:01 +0000";
layers = (
{
layerId = "2D832C46-3B02-4AC2-BC3D-33D8B64E8998";
paths = (
{
closed = 1;
nodes = (
"482 0 LINE",
"500 110 LINE",
"349 110 LINE",
"429 588 LINE",
"580 588 LINE",
"598 698 LINE",
"148 698 LINE",
"130 588 LINE",
"281 588 LINE",
"201 110 LINE",
"50 110 LINE",
"32 0 LINE"
);
}
);
width = 600;
}
);
note = I;
unicode = 0049;
},
{
glyphname = J;
lastChange = "2017-11-24 23:54:01 +0000";
layers = (
{
layerId = "2D832C46-3B02-4AC2-BC3D-33D8B64E8998";
paths = (
{
closed = 1;
nodes = (
"201 698 LINE",
"181 576 LINE",
"415 576 LINE",
"353 206 LINE SMOOTH",
"342 140 OFFCURVE",
"307 108 OFFCURVE",
"254 108 CURVE SMOOTH",
"190 108 OFFCURVE",
"171 152 OFFCURVE",
"168 211 CURVE",
"29 185 LINE",
"32 68 OFFCURVE",
"103 -12 OFFCURVE",
"243 -12 CURVE SMOOTH",
"389 -12 OFFCURVE",
"476 60 OFFCURVE",
"500 202 CURVE SMOOTH",
"583 698 LINE"
);
}
);
width = 600;
}
);
note = J;
unicode = 004A;
},
{
glyphname = K;
lastChange = "2017-11-24 23:54:01 +0000";
layers = (
{
layerId = "2D832C46-3B02-4AC2-BC3D-33D8B64E8998";
paths = (
{
closed = 1;
nodes = (
"398 0 LINE",
"562 0 LINE",
"407 388 LINE",
"667 698 LINE",
"493 698 LINE",
"361 536 LINE",
"249 399 LINE",
"241 399 LINE",
"291 698 LINE",
"143 698 LINE",
"27 0 LINE",
"175 0 LINE",
"207 191 LINE",
"289 282 LINE"
);
}
);
width = 600;
}
);
note = K;
unicode = 004B;
},
{
glyphname = L;
lastChange = "2017-11-24 23:54:01 +0000";
layers = (
{
layerId = "2D832C46-3B02-4AC2-BC3D-33D8B64E8998";
paths = (
{
closed = 1;
nodes = (
"501 0 LINE",
"521 122 LINE",
"219 122 LINE",
"315 698 LINE",
"167 698 LINE",
"51 0 LINE"
);
}
);
width = 600;
}
);
note = L;
unicode = 004C;
},
{
glyphname = M;
lastChange = "2017-11-24 23:54:01 +0000";
layers = (
{
layerId = "2D832C46-3B02-4AC2-BC3D-33D8B64E8998";
paths = (
{
closed = 1;
nodes = (
"390 0 LINE",
"518 0 LINE",
"635 698 LINE",
"467 698 LINE",
"341 461 LINE",
"332 461 LINE",
"284 698 LINE",
"115 698 LINE",
"-2 0 LINE",
"126 0 LINE",
"178 311 LINE",
"203 508 LINE",
"212 508 LINE",
"282 149 LINE",
"473 508 LINE",
"482 508 LINE",
"442 311 LINE"
);
}
);
width = 600;
}
);
note = M;
unicode = 004D;
},
{
glyphname = N;
lastChange = "2017-11-24 23:54:01 +0000";
layers = (
{
layerId = "2D832C46-3B02-4AC2-BC3D-33D8B64E8998";
paths = (
{
closed = 1;
nodes = (
"318 0 LINE",
"496 0 LINE",
"612 698 LINE",
"483 698 LINE",
"405 230 LINE",
"395 230 LINE",
"314 698 LINE",
"136 698 LINE",
"20 0 LINE",
"149 0 LINE",
"227 468 LINE",
"237 468 LINE"
);
}
);
width = 600;
}
);
note = N;
unicode = 004E;
},
{
glyphname = O;
lastChange = "2017-11-24 23:54:01 +0000";
layers = (
{
layerId = "2D832C46-3B02-4AC2-BC3D-33D8B64E8998";
paths = (
{
closed = 1;
nodes = (
"501 -12 OFFCURVE",
"592 210 OFFCURVE",
"592 447 CURVE SMOOTH",
"592 610 OFFCURVE",
"518 710 OFFCURVE",
"349 710 CURVE SMOOTH",
"127 710 OFFCURVE",
"36 488 OFFCURVE",
"36 251 CURVE SMOOTH",
"36 88 OFFCURVE",
"110 -12 OFFCURVE",
"279 -12 CURVE SMOOTH"
);
},
{
closed = 1;
nodes = (
"216 108 OFFCURVE",
"187 149 OFFCURVE",
"187 218 CURVE SMOOTH",
"187 243 OFFCURVE",
"189 266 OFFCURVE",
"193 290 CURVE SMOOTH",
"213 410 LINE SMOOTH",
"232 524 OFFCURVE",
"265 590 OFFCURVE",
"349 590 CURVE SMOOTH",
"412 590 OFFCURVE",
"441 549 OFFCURVE",
"441 480 CURVE SMOOTH",
"441 455 OFFCURVE",
"439 432 OFFCURVE",
"435 408 CURVE SMOOTH",
"415 288 LINE SMOOTH",
"396 174 OFFCURVE",
"363 108 OFFCURVE",
"279 108 CURVE SMOOTH"
);
}
);
width = 600;
}
);
note = O;
unicode = 004F;
},
{
glyphname = P;
lastChange = "2017-11-24 23:54:01 +0000";
layers = (
{
layerId = "2D832C46-3B02-4AC2-BC3D-33D8B64E8998";
paths = (
{
closed = 1;
nodes = (
"185 0 LINE",
"228 256 LINE",
"347 256 LINE SMOOTH",
"498 256 OFFCURVE",
"596 354 OFFCURVE",
"596 513 CURVE SMOOTH",
"596 621 OFFCURVE",
"530 698 OFFCURVE",
"406 698 CURVE SMOOTH",
"154 698 LINE",
"37 0 LINE"
);
},
{
closed = 1;
nodes = (
"282 579 LINE",
"360 579 LINE SMOOTH",
"419 579 OFFCURVE",
"442 561 OFFCURVE",
"442 516 CURVE SMOOTH",
"442 505 OFFCURVE",
"441 495 OFFCURVE",
"440 489 CURVE SMOOTH",
"435 459 LINE SMOOTH",
"425 399 OFFCURVE",
"394 376 OFFCURVE",
"326 376 CURVE SMOOTH",
"248 376 LINE"
);
}
);
width = 600;
}
);
note = P;
unicode = 0050;
},
{
glyphname = Q;
lastChange = "2017-11-24 23:54:01 +0000";
layers = (
{
layerId = "2D832C46-3B02-4AC2-BC3D-33D8B64E8998";
paths = (
{
closed = 1;
nodes = (
"451 -205 OFFCURVE",
"481 -191 OFFCURVE",
"540 -126 CURVE SMOOTH",
"588 -73 LINE",
"512 -4 LINE",
"427 -88 LINE",
"411 -84 LINE",
"357 -2 LINE",
"523 44 OFFCURVE",
"592 240 OFFCURVE",
"592 447 CURVE SMOOTH",
"592 610 OFFCURVE",
"518 710 OFFCURVE",
"349 710 CURVE SMOOTH",
"127 710 OFFCURVE",
"36 488 OFFCURVE",
"36 251 CURVE SMOOTH",
"36 110 OFFCURVE",
"91 17 OFFCURVE",
"215 -6 CURVE",
"308 -146 LINE SMOOTH",
"330 -178 OFFCURVE",
"356 -205 OFFCURVE",
"406 -205 CURVE SMOOTH"
);
},
{
closed = 1;
nodes = (
"216 108 OFFCURVE",
"187 149 OFFCURVE",
"187 218 CURVE SMOOTH",
"187 243 OFFCURVE",
"189 266 OFFCURVE",
"193 290 CURVE SMOOTH",
"213 410 LINE SMOOTH",
"232 524 OFFCURVE",
"265 590 OFFCURVE",
"349 590 CURVE SMOOTH",
"412 590 OFFCURVE",
"441 549 OFFCURVE",
"441 480 CURVE SMOOTH",
"441 455 OFFCURVE",
"439 432 OFFCURVE",
"435 408 CURVE SMOOTH",
"415 288 LINE SMOOTH",
"396 174 OFFCURVE",
"363 108 OFFCURVE",
"279 108 CURVE SMOOTH"
);
}
);
width = 600;
}
);
note = Q;
unicode = 0051;
},
{
glyphname = R;
lastChange = "2017-11-24 23:54:01 +0000";
layers = (
{
layerId = "2D832C46-3B02-4AC2-BC3D-33D8B64E8998";
paths = (
{
closed = 1;
nodes = (
"225 260 LINE",
"289 260 LINE",
"366 0 LINE",
"522 0 LINE",
"427 275 LINE",
"531 304 OFFCURVE",
"594 389 OFFCURVE",
"594 512 CURVE SMOOTH",
"594 623 OFFCURVE",
"528 698 OFFCURVE",
"404 698 CURVE SMOOTH",
"152 698 LINE",
"35 0 LINE",
"181 0 LINE"
);
},
{
closed = 1;
nodes = (
"244 376 LINE",
"278 579 LINE",
"361 579 LINE SMOOTH",
"410 579 OFFCURVE",
"440 559 OFFCURVE",
"440 513 CURVE SMOOTH",
"440 503 OFFCURVE",
"439 492 OFFCURVE",
"437 480 CURVE SMOOTH",
"433 456 LINE SMOOTH",
"424 398 OFFCURVE",
"396 376 OFFCURVE",
"324 376 CURVE SMOOTH"
);
}
);
width = 600;
}
);
note = R;
unicode = 0052;
},
{
glyphname = S;
lastChange = "2017-11-24 23:54:01 +0000";
layers = (
{
layerId = "2D832C46-3B02-4AC2-BC3D-33D8B64E8998";
paths = (
{
closed = 1;
nodes = (
"445 -12 OFFCURVE",
"547 87 OFFCURVE",
"547 230 CURVE SMOOTH",
"547 325 OFFCURVE",
"500 382 OFFCURVE",
"401 407 CURVE SMOOTH",
"335 424 LINE SMOOTH",
"273 440 OFFCURVE",
"251 458 OFFCURVE",
"251 498 CURVE SMOOTH",
"251 554 OFFCURVE",
"287 590 OFFCURVE",
"360 590 CURVE SMOOTH",
"420 590 OFFCURVE",
"467 565 OFFCURVE",
"497 523 CURVE",
"594 612 LINE",
"554 673 OFFCURVE",
"467 710 OFFCURVE",
"367 710 CURVE SMOOTH",
"201 710 OFFCURVE",
"98 620 OFFCURVE",
"98 482 CURVE SMOOTH",
"98 396 OFFCURVE",
"142 330 OFFCURVE",
"243 307 CURVE SMOOTH",
"312 291 LINE SMOOTH",
"368 278 OFFCURVE",
"393 259 OFFCURVE",
"393 213 CURVE SMOOTH",
"393 149 OFFCURVE",
"353 110 OFFCURVE",
"277 110 CURVE SMOOTH",
"215 110 OFFCURVE",
"146 136 OFFCURVE",
"105 189 CURVE",
"12 95 LINE",
"54 28 OFFCURVE",
"153 -12 OFFCURVE",
"268 -12 CURVE SMOOTH"
);
}
);
width = 600;
}
);
note = S;
unicode = 0053;
},
{
glyphname = T;
lastChange = "2017-11-24 23:54:01 +0000";
layers = (
{
layerId = "2D832C46-3B02-4AC2-BC3D-33D8B64E8998";
paths = (
{
closed = 1;
nodes = (
"629 576 LINE",
"649 698 LINE",
"97 698 LINE",
"77 576 LINE",
"279 576 LINE",
"183 0 LINE",
"331 0 LINE",
"427 576 LINE"
);
}
);
width = 600;
}
);
note = T;
unicode = 0054;
},
{
glyphname = U;
lastChange = "2017-11-24 23:54:01 +0000";
layers = (
{
layerId = "2D832C46-3B02-4AC2-BC3D-33D8B64E8998";
paths = (
{
closed = 1;
nodes = (
"128 698 LINE",
"60 291 LINE SMOOTH",
"53 249 OFFCURVE",
"49 210 OFFCURVE",
"49 176 CURVE SMOOTH",
"49 62 OFFCURVE",
"103 -12 OFFCURVE",
"269 -12 CURVE SMOOTH",
"470 -12 OFFCURVE",
"516 86 OFFCURVE",
"547 272 CURVE SMOOTH",
"618 698 LINE",
"471 698 LINE",
"397 255 LINE SMOOTH",
"382 165 OFFCURVE",
"366 108 OFFCURVE",
"277 108 CURVE SMOOTH",
"216 108 OFFCURVE",
"194 136 OFFCURVE",
"194 186 CURVE SMOOTH",
"194 200 OFFCURVE",
"196 224 OFFCURVE",
"202 260 CURVE SMOOTH",
"275 698 LINE"
);
}
);
width = 600;
}
);
note = U;
unicode = 0055;
},
{
glyphname = V;
lastChange = "2017-11-24 23:54:01 +0000";
layers = (
{
layerId = "2D832C46-3B02-4AC2-BC3D-33D8B64E8998";
paths = (
{
closed = 1;
nodes = (
"363 0 LINE",
"661 698 LINE",
"499 698 LINE",
"363 347 LINE",
"285 142 LINE",
"276 142 LINE",
"267 347 LINE",
"243 698 LINE",
"85 698 LINE",
"152 0 LINE"
);
}
);
width = 600;
}
);
note = V;
unicode = 0056;
},
{
glyphname = W;
lastChange = "2017-11-24 23:54:01 +0000";
layers = (
{
layerId = "2D832C46-3B02-4AC2-BC3D-33D8B64E8998";
paths = (
{
closed = 1;
nodes = (
"200 0 LINE",
"317 386 LINE",
"327 386 LINE",
"312 0 LINE",
"502 0 LINE",
"661 698 LINE",
"540 698 LINE",
"447 274 LINE",
"420 136 LINE",
"411 136 LINE",
"417 546 LINE",
"282 546 LINE",
"155 136 LINE",
"146 136 LINE",
"163 280 LINE",
"211 698 LINE",
"84 698 LINE",
"10 0 LINE"
);
}
);
width = 600;
}
);
note = W;
unicode = 0057;
},
{
glyphname = X;
lastChange = "2017-11-24 23:54:01 +0000";
layers = (
{
layerId = "2D832C46-3B02-4AC2-BC3D-33D8B64E8998";
paths = (
{
closed = 1;
nodes = (
"413 359 LINE",
"650 698 LINE",
"488 698 LINE",
"410 587 LINE",
"340 475 LINE",
"332 475 LINE",
"299 587 LINE",
"260 698 LINE",
"94 698 LINE",
"223 361 LINE",
"-33 0 LINE",
"130 0 LINE",
"227 139 LINE",
"293 249 LINE",
"302 249 LINE",
"336 139 LINE",
"385 0 LINE",
"550 0 LINE"
);
}
);
width = 600;
}
);
note = X;
unicode = 0058;
},
{
glyphname = Y;
lastChange = "2017-11-24 23:54:01 +0000";
layers = (
{
layerId = "2D832C46-3B02-4AC2-BC3D-33D8B64E8998";
paths = (
{
closed = 1;
nodes = (
"332 0 LINE",
"373 249 LINE",
"668 698 LINE",
"503 698 LINE",
"403 534 LINE",
"325 397 LINE",
"316 397 LINE",
"285 534 LINE",
"236 698 LINE",
"78 698 LINE",
"225 246 LINE",
"184 0 LINE"
);
}
);
width = 600;
}
);
note = Y;
unicode = 0059;
},
{
glyphname = Z;
lastChange = "2017-11-24 23:54:01 +0000";
layers = (
{
layerId = "2D832C46-3B02-4AC2-BC3D-33D8B64E8998";
paths = (
{
closed = 1;
nodes = (
"527 122 LINE",
"204 122 LINE",
"591 568 LINE",
"612 698 LINE",
"133 698 LINE",
"113 576 LINE",
"417 576 LINE",
"30 130 LINE",
"8 0 LINE",
"507 0 LINE"
);
}
);
width = 600;
}
);
note = Z;
unicode = 005A;
},
{
glyphname = zero;
lastChange = "2017-11-24 23:54:01 +0000";
layers = (
{
layerId = "2D832C46-3B02-4AC2-BC3D-33D8B64E8998";
paths = (
{
closed = 1;
nodes = (
"501 -12 OFFCURVE",
"592 212 OFFCURVE",
"592 442 CURVE SMOOTH",
"592 609 OFFCURVE",
"518 710 OFFCURVE",
"350 710 CURVE SMOOTH",
"127 710 OFFCURVE",
"36 486 OFFCURVE",
"36 256 CURVE SMOOTH",
"36 89 OFFCURVE",
"112 -12 OFFCURVE",
"278 -12 CURVE SMOOTH"
);
},
{
closed = 1;
nodes = (
"212 103 OFFCURVE",
"181 145 OFFCURVE",
"181 215 CURVE SMOOTH",
"181 238 OFFCURVE",
"183 259 OFFCURVE",
"188 289 CURVE SMOOTH",
"209 416 LINE SMOOTH",
"228 530 OFFCURVE",
"259 595 OFFCURVE",
"350 595 CURVE SMOOTH",
"416 595 OFFCURVE",
"447 553 OFFCURVE",
"447 483 CURVE SMOOTH",
"447 460 OFFCURVE",
"445 439 OFFCURVE",
"440 409 CURVE SMOOTH",
"419 282 LINE SMOOTH",
"400 168 OFFCURVE",
"369 103 OFFCURVE",
"278 103 CURVE SMOOTH"
);
},
{
closed = 1;
nodes = (
"351 290 OFFCURVE",
"371 308 OFFCURVE",
"376 338 CURVE SMOOTH",
"378 350 OFFCURVE",
"379 360 OFFCURVE",
"379 366 CURVE SMOOTH",
"379 390 OFFCURVE",
"362 408 OFFCURVE",
"321 408 CURVE SMOOTH",
"277 408 OFFCURVE",
"257 390 OFFCURVE",
"252 360 CURVE SMOOTH",
"250 348 OFFCURVE",
"249 338 OFFCURVE",
"249 332 CURVE SMOOTH",
"249 308 OFFCURVE",
"266 290 OFFCURVE",
"307 290 CURVE SMOOTH"
);
}
);
width = 600;
}
);
note = zero;
unicode = 0030;
},
{
glyphname = zero.alt01;
lastChange = "2017-11-24 23:54:01 +0000";
layers = (
{
layerId = "2D832C46-3B02-4AC2-BC3D-33D8B64E8998";
paths = (
{
closed = 1;
nodes = (
"220 98 OFFCURVE",
"188 128 OFFCURVE",
"178 179 CURVE",
"445 403 LINE",
"425 282 LINE SMOOTH",
"406 165 OFFCURVE",
"373 98 OFFCURVE",
"278 98 CURVE SMOOTH"
);
},
{
closed = 1;
nodes = (
"501 -12 OFFCURVE",
"592 212 OFFCURVE",
"592 442 CURVE SMOOTH",
"592 609 OFFCURVE",
"518 710 OFFCURVE",
"350 710 CURVE SMOOTH",
"127 710 OFFCURVE",
"36 486 OFFCURVE",
"36 256 CURVE SMOOTH",
"36 89 OFFCURVE",
"112 -12 OFFCURVE",
"278 -12 CURVE SMOOTH"
);
},
{
closed = 1;
nodes = (
"408 600 OFFCURVE",
"440 570 OFFCURVE",
"450 519 CURVE",
"183 295 LINE",
"203 416 LINE SMOOTH",
"222 533 OFFCURVE",
"255 600 OFFCURVE",
"350 600 CURVE SMOOTH"
);
}
);
width = 600;
}
);
note = zero.alt01;
},
{
glyphname = zero.alt02;
lastChange = "2017-11-24 23:54:01 +0000";
layers = (
{
layerId = "2D832C46-3B02-4AC2-BC3D-33D8B64E8998";
paths = (
{
closed = 1;
nodes = (
"501 -12 OFFCURVE",
"592 210 OFFCURVE",
"592 447 CURVE SMOOTH",
"592 610 OFFCURVE",
"518 710 OFFCURVE",
"349 710 CURVE SMOOTH",
"127 710 OFFCURVE",
"36 488 OFFCURVE",
"36 251 CURVE SMOOTH",
"36 88 OFFCURVE",
"110 -12 OFFCURVE",
"279 -12 CURVE SMOOTH"
);
},
{
closed = 1;
nodes = (
"216 108 OFFCURVE",
"187 149 OFFCURVE",
"187 218 CURVE SMOOTH",
"187 243 OFFCURVE",
"189 266 OFFCURVE",
"193 290 CURVE SMOOTH",
"213 410 LINE SMOOTH",
"232 524 OFFCURVE",
"265 590 OFFCURVE",
"349 590 CURVE SMOOTH",
"412 590 OFFCURVE",
"441 549 OFFCURVE",
"441 480 CURVE SMOOTH",
"441 455 OFFCURVE",
"439 432 OFFCURVE",
"435 408 CURVE SMOOTH",
"415 288 LINE SMOOTH",
"396 174 OFFCURVE",
"363 108 OFFCURVE",
"279 108 CURVE SMOOTH"
);
}
);
width = 600;
}
);
note = zero.alt02;
},
{
glyphname = one;
lastChange = "2017-11-24 23:54:01 +0000";
layers = (
{
layerId = "2D832C46-3B02-4AC2-BC3D-33D8B64E8998";
paths = (
{
closed = 1;
nodes = (
"519 0 LINE",
"539 120 LINE",
"379 120 LINE",
"475 698 LINE",
"320 698 LINE",
"90 582 LINE",
"138 471 LINE",
"304 557 LINE",
"231 120 LINE",
"55 120 LINE",
"35 0 LINE"
);
}
);
width = 600;
}
);
note = one;
unicode = 0031;
},
{
glyphname = two;
lastChange = "2017-11-24 23:54:01 +0000";
layers = (
{
layerId = "2D832C46-3B02-4AC2-BC3D-33D8B64E8998";
paths = (
{
closed = 1;
nodes = (
"533 124 LINE",
"209 124 LINE",
"359 232 LINE SMOOTH",
"495 330 OFFCURVE",
"580 396 OFFCURVE",
"580 515 CURVE SMOOTH",
"580 632 OFFCURVE",
"495 710 OFFCURVE",
"350 710 CURVE SMOOTH",
"215 710 OFFCURVE",
"131 633 OFFCURVE",
"84 533 CURVE",
"212 483 LINE",
"234 535 OFFCURVE",
"272 582 OFFCURVE",
"338 582 CURVE SMOOTH",
"392 582 OFFCURVE",
"422 552 OFFCURVE",
"422 511 CURVE SMOOTH",
"422 500 OFFCURVE",
"421 491 OFFCURVE",
"420 485 CURVE SMOOTH",
"411 431 OFFCURVE",
"375 388 OFFCURVE",
"287 323 CURVE SMOOTH",
"34 136 LINE",
"12 0 LINE",
"512 0 LINE"
);
}
);
width = 600;
}
);
note = two;
unicode = 0032;
},
{
glyphname = three;
lastChange = "2017-11-24 23:54:01 +0000";
layers = (
{
layerId = "2D832C46-3B02-4AC2-BC3D-33D8B64E8998";
paths = (
{
closed = 1;
nodes = (
"227 422 LINE",
"206 298 LINE",
"281 298 LINE SMOOTH",
"343 298 OFFCURVE",
"383 269 OFFCURVE",
"383 221 CURVE SMOOTH",
"383 212 OFFCURVE",
"382 201 OFFCURVE",
"381 195 CURVE SMOOTH",
"372 141 OFFCURVE",
"331 109 OFFCURVE",
"261 109 CURVE SMOOTH",
"182 109 OFFCURVE",
"143 146 OFFCURVE",
"118 199 CURVE",
"12 122 LINE",
"44 51 OFFCURVE",
"114 -12 OFFCURVE",
"255 -12 CURVE SMOOTH",
"440 -12 OFFCURVE",
"539 85 OFFCURVE",
"539 215 CURVE SMOOTH",
"539 298 OFFCURVE",
"489 349 OFFCURVE",
"415 362 CURVE",
"416 367 LINE",
"518 390 OFFCURVE",
"580 453 OFFCURVE",
"580 544 CURVE SMOOTH",
"580 645 OFFCURVE",
"492 710 OFFCURVE",
"354 710 CURVE SMOOTH",
"231 710 OFFCURVE",
"158 665 OFFCURVE",
"96 599 CURVE",
"178 507 LINE",
"222 566 OFFCURVE",
"272 589 OFFCURVE",
"328 589 CURVE SMOOTH",
"384 589 OFFCURVE",
"420 562 OFFCURVE",
"420 518 CURVE SMOOTH",
"420 509 OFFCURVE",
"419 503 OFFCURVE",
"417 491 CURVE SMOOTH",
"411 455 OFFCURVE",
"375 422 OFFCURVE",
"294 422 CURVE SMOOTH"
);
}
);
width = 600;
}
);
note = three;
unicode = 0033;
},
{
glyphname = four;
lastChange = "2017-11-24 23:54:01 +0000";
layers = (
{
layerId = "2D832C46-3B02-4AC2-BC3D-33D8B64E8998";
paths = (
{
closed = 1;
nodes = (
"442 0 LINE",
"464 134 LINE",
"553 134 LINE",
"572 249 LINE",
"483 249 LINE",
"558 698 LINE",
"379 698 LINE",
"28 264 LINE",
"6 134 LINE",
"320 134 LINE",
"298 0 LINE"
);
},
{
closed = 1;
nodes = (
"378 530 LINE",
"386 530 LINE",
"339 249 LINE",
"151 249 LINE"
);
}
);
width = 600;
}
);
note = four;
unicode = 0034;
},
{
glyphname = five;
lastChange = "2017-11-24 23:54:01 +0000";
layers = (
{
layerId = "2D832C46-3B02-4AC2-BC3D-33D8B64E8998";
paths = (
{
closed = 1;
nodes = (
"593 698 LINE",
"162 698 LINE",
"70 303 LINE",
"188 287 LINE",
"212 308 OFFCURVE",
"251 336 OFFCURVE",
"306 336 CURVE SMOOTH",
"366 336 OFFCURVE",
"401 305 OFFCURVE",
"401 252 CURVE SMOOTH",
"401 238 OFFCURVE",
"400 224 OFFCURVE",
"398 212 CURVE SMOOTH",
"388 152 OFFCURVE",
"345 109 OFFCURVE",
"271 109 CURVE SMOOTH",
"199 109 OFFCURVE",
"156 148 OFFCURVE",
"135 199 CURVE",
"18 124 LINE",
"51 53 OFFCURVE",
"117 -12 OFFCURVE",
"268 -12 CURVE SMOOTH",
"464 -12 OFFCURVE",
"563 126 OFFCURVE",
"563 262 CURVE SMOOTH",
"563 385 OFFCURVE",
"482 456 OFFCURVE",
"373 456 CURVE SMOOTH",
"285 456 OFFCURVE",
"244 416 OFFCURVE",
"204 346 CURVE",
"196 346 LINE",
"248 569 LINE",
"571 569 LINE"
);
}
);
width = 600;
}
);
note = five;
unicode = 0035;
},
{
glyphname = six;
lastChange = "2017-11-24 23:54:01 +0000";
layers = (
{
layerId = "2D832C46-3B02-4AC2-BC3D-33D8B64E8998";
paths = (
{
closed = 1;
nodes = (
"462 -12 OFFCURVE",
"565 116 OFFCURVE",
"565 258 CURVE SMOOTH",
"565 373 OFFCURVE",
"497 450 OFFCURVE",
"389 450 CURVE SMOOTH",
"300 450 OFFCURVE",
"252 398 OFFCURVE",
"217 345 CURVE",
"209 348 LINE",
"261 483 OFFCURVE",
"380 582 OFFCURVE",
"568 698 CURVE",
"357 698 LINE",
"193 604 OFFCURVE",
"36 427 OFFCURVE",
"36 224 CURVE SMOOTH",
"36 80 OFFCURVE",
"120 -12 OFFCURVE",
"274 -12 CURVE SMOOTH"
);
},
{
closed = 1;
nodes = (
"221 104 OFFCURVE",
"186 136 OFFCURVE",
"186 200 CURVE SMOOTH",
"186 209 OFFCURVE",
"187 221 OFFCURVE",
"189 233 CURVE SMOOTH",
"200 299 OFFCURVE",
"244 336 OFFCURVE",
"311 336 CURVE SMOOTH",
"375 336 OFFCURVE",
"410 304 OFFCURVE",
"410 240 CURVE SMOOTH",
"410 231 OFFCURVE",
"409 219 OFFCURVE",
"407 207 CURVE SMOOTH",
"396 141 OFFCURVE",
"352 104 OFFCURVE",
"285 104 CURVE SMOOTH"
);
}
);
width = 600;
}
);
note = six;
unicode = 0036;
},
{
glyphname = seven;
lastChange = "2017-11-24 23:54:01 +0000";
layers = (
{
layerId = "2D832C46-3B02-4AC2-BC3D-33D8B64E8998";
paths = (
{
closed = 1;
nodes = (
"270 0 LINE",
"595 569 LINE",
"617 698 LINE",
"115 698 LINE",
"74 450 LINE",
"200 450 LINE",
"221 577 LINE",
"446 577 LINE",
"110 0 LINE"
);
}
);
width = 600;
}
);
note = seven;
unicode = 0037;
},
{
glyphname = eight;
lastChange = "2017-11-24 23:54:01 +0000";
layers = (
{
layerId = "2D832C46-3B02-4AC2-BC3D-33D8B64E8998";
paths = (
{
closed = 1;
nodes = (
"460 -12 OFFCURVE",
"556 103 OFFCURVE",
"556 213 CURVE SMOOTH",
"556 288 OFFCURVE",
"512 340 OFFCURVE",
"442 360 CURVE",
"443 367 LINE",
"533 399 OFFCURVE",
"588 460 OFFCURVE",
"588 543 CURVE SMOOTH",
"588 642 OFFCURVE",
"513 710 OFFCURVE",
"367 710 CURVE SMOOTH",
"182 710 OFFCURVE",
"100 604 OFFCURVE",
"100 506 CURVE SMOOTH",
"100 437 OFFCURVE",
"136 391 OFFCURVE",
"194 368 CURVE",
"193 361 LINE",
"88 337 OFFCURVE",
"24 263 OFFCURVE",
"24 166 CURVE SMOOTH",
"24 61 OFFCURVE",
"109 -12 OFFCURVE",
"269 -12 CURVE SMOOTH"
);
},
{
closed = 1;
nodes = (
"211 102 OFFCURVE",
"178 131 OFFCURVE",
"178 177 CURVE SMOOTH",
"178 188 OFFCURVE",
"178 194 OFFCURVE",
"181 212 CURVE SMOOTH",
"190 266 OFFCURVE",
"231 302 OFFCURVE",
"303 302 CURVE SMOOTH",
"367 302 OFFCURVE",
"400 273 OFFCURVE",
"400 227 CURVE SMOOTH",
"400 216 OFFCURVE",
"400 210 OFFCURVE",
"397 192 CURVE SMOOTH",
"388 138 OFFCURVE",
"347 102 OFFCURVE",
"275 102 CURVE SMOOTH"
);
},
{
closed = 1;
nodes = (
"269 411 OFFCURVE",
"237 437 OFFCURVE",
"237 480 CURVE SMOOTH",
"237 488 OFFCURVE",
"238 499 OFFCURVE",
"240 511 CURVE SMOOTH",
"249 565 OFFCURVE",
"287 596 OFFCURVE",
"352 596 CURVE SMOOTH",
"412 596 OFFCURVE",
"444 570 OFFCURVE",
"444 527 CURVE SMOOTH",
"444 519 OFFCURVE",
"443 508 OFFCURVE",
"441 496 CURVE SMOOTH",
"432 442 OFFCURVE",
"394 411 OFFCURVE",
"329 411 CURVE SMOOTH"
);
}
);
width = 600;
}
);
note = eight;
unicode = 0038;
},
{
glyphname = nine;
lastChange = "2017-11-24 23:54:01 +0000";
layers = (
{
layerId = "2D832C46-3B02-4AC2-BC3D-33D8B64E8998";
paths = (
{
closed = 1;
nodes = (
"592 618 OFFCURVE",
"508 710 OFFCURVE",
"354 710 CURVE SMOOTH",
"166 710 OFFCURVE",
"63 582 OFFCURVE",
"63 440 CURVE SMOOTH",
"63 325 OFFCURVE",
"131 248 OFFCURVE",
"239 248 CURVE SMOOTH",
"328 248 OFFCURVE",
"376 300 OFFCURVE",
"411 353 CURVE",
"419 350 LINE",
"367 215 OFFCURVE",
"248 116 OFFCURVE",
"60 0 CURVE",
"271 0 LINE",
"435 94 OFFCURVE",
"592 271 OFFCURVE",
"592 474 CURVE SMOOTH"
);
},
{
closed = 1;
nodes = (
"253 362 OFFCURVE",
"218 394 OFFCURVE",
"218 458 CURVE SMOOTH",
"218 467 OFFCURVE",
"219 479 OFFCURVE",
"221 491 CURVE SMOOTH",
"232 557 OFFCURVE",
"276 594 OFFCURVE",
"343 594 CURVE SMOOTH",
"407 594 OFFCURVE",
"442 562 OFFCURVE",
"442 498 CURVE SMOOTH",
"442 489 OFFCURVE",
"441 477 OFFCURVE",
"439 465 CURVE SMOOTH",
"428 399 OFFCURVE",
"384 362 OFFCURVE",
"317 362 CURVE SMOOTH"
);
}
);
width = 600;
}
);
note = nine;
unicode = 0039;
},
{
glyphname = ampersand;
lastChange = "2017-11-24 23:54:01 +0000";
layers = (
{
layerId = "2D832C46-3B02-4AC2-BC3D-33D8B64E8998";
paths = (
{
closed = 1;
nodes = (
"237 -12 OFFCURVE",
"282 52 OFFCURVE",
"292 137 CURVE",
"298 137 LINE",
"325 27 OFFCURVE",
"372 -12 OFFCURVE",
"424 -12 CURVE SMOOTH",
"477 -12 OFFCURVE",
"513 9 OFFCURVE",
"551 74 CURVE SMOOTH",
"599 155 LINE",
"517 214 LINE",
"449 119 LINE",
"432 123 LINE",
"360 324 LINE",
"484 347 OFFCURVE",
"556 425 OFFCURVE",
"556 535 CURVE SMOOTH",
"556 640 OFFCURVE",
"485 710 OFFCURVE",
"379 710 CURVE SMOOTH",
"248 710 OFFCURVE",
"175 631 OFFCURVE",
"175 531 CURVE SMOOTH",
"175 489 OFFCURVE",
"186 442 OFFCURVE",
"200 399 CURVE",
"64 391 OFFCURVE",
"10 292 OFFCURVE",
"10 171 CURVE SMOOTH",
"10 50 OFFCURVE",
"69 -12 OFFCURVE",
"153 -12 CURVE SMOOTH"
);
},
{
closed = 1;
nodes = (
"174 115 OFFCURVE",
"152 141 OFFCURVE",
"152 183 CURVE SMOOTH",
"152 195 OFFCURVE",
"152 210 OFFCURVE",
"155 242 CURVE SMOOTH",
"158 283 OFFCURVE",
"167 322 OFFCURVE",
"220 338 CURVE",
"277 169 LINE",
"258 119 OFFCURVE",
"231 115 OFFCURVE",
"207 115 CURVE SMOOTH"
);
},
{
closed = 1;
nodes = (
"404 606 OFFCURVE",
"428 578 OFFCURVE",
"428 542 CURVE SMOOTH",
"428 523 OFFCURVE",
"427 507 OFFCURVE",
"423 483 CURVE SMOOTH",
"415 435 OFFCURVE",
"391 407 OFFCURVE",
"337 387 CURVE",
"334 396 LINE SMOOTH",
"315 448 OFFCURVE",
"305 487 OFFCURVE",
"305 530 CURVE SMOOTH",
"305 571 OFFCURVE",
"323 606 OFFCURVE",
"368 606 CURVE SMOOTH"
);
}
);
width = 600;
}
);
note = ampersand;
unicode = 0026;
},
{
glyphname = at;
lastChange = "2017-11-24 23:54:01 +0000";
layers = (
{
layerId = "2D832C46-3B02-4AC2-BC3D-33D8B64E8998";
paths = (
{
closed = 1;
nodes = (
"419 -18 LINE",
"297 -18 LINE SMOOTH",
"188 -18 OFFCURVE",
"145 41 OFFCURVE",
"145 147 CURVE SMOOTH",
"145 169 OFFCURVE",
"146 202 OFFCURVE",
"151 232 CURVE SMOOTH",
"172 358 LINE SMOOTH",
"206 564 OFFCURVE",
"274 616 OFFCURVE",
"366 616 CURVE SMOOTH",
"435 616 OFFCURVE",
"477 587 OFFCURVE",
"477 509 CURVE SMOOTH",
"477 497 OFFCURVE",
"476 480 OFFCURVE",
"473 463 CURVE SMOOTH",
"467 428 LINE",
"463 428 LINE",
"456 477 OFFCURVE",
"425 508 OFFCURVE",
"374 508 CURVE SMOOTH",
"275 508 OFFCURVE",
"210 391 OFFCURVE",
"210 234 CURVE SMOOTH",
"210 136 OFFCURVE",
"239 80 OFFCURVE",
"314 80 CURVE SMOOTH",
"366 80 OFFCURVE",
"396 119 OFFCURVE",
"421 173 CURVE",
"425 173 LINE",
"411 91 LINE",
"524 91 LINE",
"585 455 LINE SMOOTH",
"588 473 OFFCURVE",
"589 491 OFFCURVE",
"589 505 CURVE SMOOTH",
"589 626 OFFCURVE",
"517 710 OFFCURVE",
"372 710 CURVE SMOOTH",
"176 710 OFFCURVE",
"89 557 OFFCURVE",
"54 366 CURVE SMOOTH",
"43 305 OFFCURVE",
"35 232 OFFCURVE",
"35 170 CURVE SMOOTH",
"35 -16 OFFCURVE",
"106 -113 OFFCURVE",
"285 -113 CURVE SMOOTH",
"404 -113 LINE"
);
},
{
closed = 1;
nodes = (
"336 172 OFFCURVE",
"325 190 OFFCURVE",
"325 223 CURVE SMOOTH",
"325 233 OFFCURVE",
"326 265 OFFCURVE",
"328 280 CURVE SMOOTH",
"336 328 LINE SMOOTH",
"346 388 OFFCURVE",
"368 423 OFFCURVE",
"410 423 CURVE SMOOTH",
"446 423 OFFCURVE",
"462 397 OFFCURVE",
"457 365 CURVE SMOOTH",
"443 280 LINE SMOOTH",
"437 242 OFFCURVE",
"421 214 OFFCURVE",
"410 200 CURVE SMOOTH",
"398 185 OFFCURVE",
"382 172 OFFCURVE",
"361 172 CURVE SMOOTH"
);
}
);
width = 600;
}
);
note = at;
unicode = 0040;
},
{
glyphname = hyphen;
lastChange = "2017-11-24 23:54:01 +0000";
layers = (
{
layerId = "2D832C46-3B02-4AC2-BC3D-33D8B64E8998";
paths = (
{
closed = 1;
nodes = (
"456 235 LINE",
"479 375 LINE",
"162 375 LINE",
"139 235 LINE"
);
}
);
width = 600;
}
);
note = hyphen;
unicode = 002D;
},
{
glyphname = uni00AD;
lastChange = "2017-11-24 23:54:01 +0000";
layers = (
{
layerId = "2D832C46-3B02-4AC2-BC3D-33D8B64E8998";
paths = (
{
closed = 1;
nodes = (
"456 235 LINE",
"479 375 LINE",
"162 375 LINE",
"139 235 LINE"
);
}
);
width = 600;
}
);
note = uni00AD;
unicode = 00AD;
},
{
glyphname = endash;
lastChange = "2017-11-24 23:54:01 +0000";
layers = (
{
layerId = "2D832C46-3B02-4AC2-BC3D-33D8B64E8998";
paths = (
{
closed = 1;
nodes = (
"537 245 LINE",
"557 364 LINE",
"82 364 LINE",
"62 245 LINE"
);
}
);
width = 600;
}
);
note = endash;
unicode = 2013;
},
{
glyphname = emdash;
lastChange = "2017-11-24 23:54:01 +0000";
layers = (
{
layerId = "2D832C46-3B02-4AC2-BC3D-33D8B64E8998";
paths = (
{
closed = 1;
nodes = (
"596 245 LINE",
"616 364 LINE",
"22 364 LINE",
"2 245 LINE"
);
}
);
width = 600;
}
);
note = emdash;
unicode = 2014;
},
{
glyphname = underscore;
lastChange = "2017-11-24 23:54:01 +0000";
layers = (
{
layerId = "2D832C46-3B02-4AC2-BC3D-33D8B64E8998";
paths = (
{
closed = 1;
nodes = (
"463 -191 LINE",
"483 -72 LINE",
"8 -72 LINE",
"-12 -191 LINE"
);
}
);
width = 600;
}
);
note = underscore;
unicode = 005F;
},
{
glyphname = period;
lastChange = "2017-11-24 23:54:01 +0000";
layers = (
{
layerId = "2D832C46-3B02-4AC2-BC3D-33D8B64E8998";
paths = (
{
closed = 1;
nodes = (
"328 -12 OFFCURVE",
"363 26 OFFCURVE",
"370 68 CURVE SMOOTH",
"374 92 OFFCURVE",
"376 108 OFFCURVE",
"376 119 CURVE SMOOTH",
"376 156 OFFCURVE",
"350 186 OFFCURVE",
"284 186 CURVE SMOOTH",
"211 186 OFFCURVE",
"176 148 OFFCURVE",
"169 106 CURVE SMOOTH",
"165 82 OFFCURVE",
"163 66 OFFCURVE",
"163 55 CURVE SMOOTH",
"163 18 OFFCURVE",
"189 -12 OFFCURVE",
"255 -12 CURVE SMOOTH"
);
}
);
width = 600;
}
);
note = period;
unicode = 002E;
},
{
glyphname = ellipsis;
lastChange = "2017-11-24 23:54:01 +0000";
layers = (
{
layerId = "2D832C46-3B02-4AC2-BC3D-33D8B64E8998";
paths = (
{
closed = 1;
nodes = (
"114 -7 OFFCURVE",
"139 18 OFFCURVE",
"145 54 CURVE SMOOTH",
"149 78 OFFCURVE",
"150 87 OFFCURVE",
"150 94 CURVE SMOOTH",
"150 122 OFFCURVE",
"132 145 OFFCURVE",
"85 145 CURVE SMOOTH",
"34 145 OFFCURVE",
"9 120 OFFCURVE",
"3 84 CURVE SMOOTH",
"-1 60 OFFCURVE",
"-2 51 OFFCURVE",
"-2 44 CURVE SMOOTH",
"-2 16 OFFCURVE",
"16 -7 OFFCURVE",
"63 -7 CURVE SMOOTH"
);
},
{
closed = 1;
nodes = (
"309 -7 OFFCURVE",
"334 18 OFFCURVE",
"340 54 CURVE SMOOTH",
"344 78 OFFCURVE",
"345 87 OFFCURVE",
"345 94 CURVE SMOOTH",
"345 122 OFFCURVE",
"327 145 OFFCURVE",
"280 145 CURVE SMOOTH",
"229 145 OFFCURVE",
"204 120 OFFCURVE",
"198 84 CURVE SMOOTH",
"194 60 OFFCURVE",
"193 51 OFFCURVE",
"193 44 CURVE SMOOTH",
"193 16 OFFCURVE",
"211 -7 OFFCURVE",
"258 -7 CURVE SMOOTH"
);
},
{
closed = 1;
nodes = (
"504 -7 OFFCURVE",
"529 18 OFFCURVE",
"535 54 CURVE SMOOTH",
"539 78 OFFCURVE",
"540 87 OFFCURVE",
"540 94 CURVE SMOOTH",
"540 122 OFFCURVE",
"522 145 OFFCURVE",
"475 145 CURVE SMOOTH",
"424 145 OFFCURVE",
"399 120 OFFCURVE",
"393 84 CURVE SMOOTH",
"389 60 OFFCURVE",
"388 51 OFFCURVE",
"388 44 CURVE SMOOTH",
"388 16 OFFCURVE",
"406 -7 OFFCURVE",
"453 -7 CURVE SMOOTH"
);
}
);
width = 600;
}
);
note = ellipsis;
unicode = 2026;
},
{
glyphname = colon;
lastChange = "2017-11-24 23:54:01 +0000";
layers = (
{
layerId = "2D832C46-3B02-4AC2-BC3D-33D8B64E8998";
paths = (
{
closed = 1;
nodes = (
"383 329 OFFCURVE",
"418 367 OFFCURVE",
"425 409 CURVE SMOOTH",
"429 433 OFFCURVE",
"431 449 OFFCURVE",
"431 460 CURVE SMOOTH",
"431 497 OFFCURVE",
"405 527 OFFCURVE",
"339 527 CURVE SMOOTH",
"266 527 OFFCURVE",
"231 489 OFFCURVE",
"224 447 CURVE SMOOTH",
"220 423 OFFCURVE",
"218 407 OFFCURVE",
"218 396 CURVE SMOOTH",
"218 359 OFFCURVE",
"244 329 OFFCURVE",
"310 329 CURVE SMOOTH"
);
},
{
closed = 1;
nodes = (
"328 -12 OFFCURVE",
"363 26 OFFCURVE",
"370 68 CURVE SMOOTH",
"374 92 OFFCURVE",
"376 108 OFFCURVE",
"376 119 CURVE SMOOTH",
"376 156 OFFCURVE",
"350 186 OFFCURVE",
"284 186 CURVE SMOOTH",
"211 186 OFFCURVE",
"176 148 OFFCURVE",
"169 106 CURVE SMOOTH",
"165 82 OFFCURVE",
"163 66 OFFCURVE",
"163 55 CURVE SMOOTH",
"163 18 OFFCURVE",
"189 -12 OFFCURVE",
"255 -12 CURVE SMOOTH"
);
}
);
width = 600;
}
);
note = colon;
unicode = 003A;
},
{
glyphname = comma;
lastChange = "2017-11-24 23:54:01 +0000";
layers = (
{
layerId = "2D832C46-3B02-4AC2-BC3D-33D8B64E8998";
paths = (
{
closed = 1;
nodes = (
"102 -151 LINE",
"215 -151 LINE",
"398 173 LINE",
"211 173 LINE"
);
}
);
width = 600;
}
);
note = comma;
unicode = 002C;
},
{
glyphname = semicolon;
lastChange = "2017-11-24 23:54:01 +0000";
layers = (
{
layerId = "2D832C46-3B02-4AC2-BC3D-33D8B64E8998";
paths = (
{
closed = 1;
nodes = (
"383 329 OFFCURVE",
"418 367 OFFCURVE",
"425 409 CURVE SMOOTH",
"429 433 OFFCURVE",
"431 449 OFFCURVE",
"431 460 CURVE SMOOTH",
"431 497 OFFCURVE",
"405 527 OFFCURVE",
"339 527 CURVE SMOOTH",
"266 527 OFFCURVE",
"231 489 OFFCURVE",
"224 447 CURVE SMOOTH",
"220 423 OFFCURVE",
"218 407 OFFCURVE",
"218 396 CURVE SMOOTH",
"218 359 OFFCURVE",
"244 329 OFFCURVE",
"310 329 CURVE SMOOTH"
);
},
{
closed = 1;
nodes = (
"102 -151 LINE",
"215 -151 LINE",
"398 173 LINE",
"211 173 LINE"
);
}
);
width = 600;
}
);
note = semicolon;
unicode = 003B;
},
{
glyphname = quotesingle;
lastChange = "2017-11-24 23:54:01 +0000";
layers = (
{
layerId = "2D832C46-3B02-4AC2-BC3D-33D8B64E8998";
paths = (
{
closed = 1;
nodes = (
"392 415 LINE",
"446 740 LINE",
"316 740 LINE",
"262 415 LINE"
);
}
);
width = 600;
}
);
note = quotesingle;
unicode = 0027;
},
{
glyphname = quotedbl;
lastChange = "2017-11-24 23:54:01 +0000";
layers = (
{
layerId = "2D832C46-3B02-4AC2-BC3D-33D8B64E8998";
paths = (
{
closed = 1;
nodes = (
"504 415 LINE",
"558 740 LINE",
"428 740 LINE",
"374 415 LINE"
);
},
{
closed = 1;
nodes = (
"280 415 LINE",
"334 740 LINE",
"204 740 LINE",
"150 415 LINE"
);
}
);
width = 600;
}
);
note = quotedbl;
unicode = 0022;
},
{
glyphname = quoteleft;
lastChange = "2017-11-24 23:54:01 +0000";
layers = (
{
layerId = "2D832C46-3B02-4AC2-BC3D-33D8B64E8998";
paths = (
{
closed = 1;
nodes = (
"177 415 LINE",
"365 415 LINE",
"475 740 LINE",
"368 740 LINE"
);
}
);
width = 600;
}
);
note = quoteleft;
unicode = 2018;
},
{
glyphname = quoteright;
lastChange = "2017-11-24 23:54:01 +0000";
layers = (
{
layerId = "2D832C46-3B02-4AC2-BC3D-33D8B64E8998";
paths = (
{
closed = 1;
nodes = (
"216 415 LINE",
"324 415 LINE",
"514 740 LINE",
"326 740 LINE"
);
}
);
width = 600;
}
);
note = quoteright;
unicode = 2019;
},
{
glyphname = quotedblleft;
lastChange = "2017-11-24 23:54:01 +0000";
layers = (
{
layerId = "2D832C46-3B02-4AC2-BC3D-33D8B64E8998";
paths = (
{
closed = 1;
nodes = (
"318 415 LINE",
"506 415 LINE",
"616 740 LINE",
"509 740 LINE"
);
},
{
closed = 1;
nodes = (
"61 415 LINE",
"249 415 LINE",
"359 740 LINE",
"252 740 LINE"
);
}
);
width = 600;
}
);
note = quotedblleft;
unicode = 201C;
},
{
glyphname = quotedblright;
lastChange = "2017-11-24 23:54:01 +0000";
layers = (
{
layerId = "2D832C46-3B02-4AC2-BC3D-33D8B64E8998";
paths = (
{
closed = 1;
nodes = (
"344 415 LINE",
"452 415 LINE",
"642 740 LINE",
"454 740 LINE"
);
},
{
closed = 1;
nodes = (
"88 415 LINE",
"196 415 LINE",
"386 740 LINE",
"198 740 LINE"
);
}
);
width = 600;
}
);
note = quotedblright;
unicode = 201D;
},
{
glyphname = quotesinglbase;
lastChange = "2017-11-24 23:54:01 +0000";
layers = (
{
layerId = "2D832C46-3B02-4AC2-BC3D-33D8B64E8998";
paths = (
{
closed = 1;
nodes = (
"120 -151 LINE",
"229 -151 LINE",
"418 173 LINE",
"230 173 LINE"
);
}
);
width = 600;
}
);
note = quotesinglbase;
unicode = 201A;
},
{
glyphname = quotedblbase;
lastChange = "2017-11-24 23:54:01 +0000";
layers = (
{
layerId = "2D832C46-3B02-4AC2-BC3D-33D8B64E8998";
paths = (
{
closed = 1;
nodes = (
"242 -151 LINE",
"351 -151 LINE",
"540 173 LINE",
"352 173 LINE"
);
},
{
closed = 1;
nodes = (
"-14 -151 LINE",
"95 -151 LINE",
"284 173 LINE",
"96 173 LINE"
);
}
);
width = 600;
}
);
note = quotedblbase;
unicode = 201E;
},
{
glyphname = guilsinglleft;
lastChange = "2017-11-24 23:54:01 +0000";
layers = (
{
layerId = "2D832C46-3B02-4AC2-BC3D-33D8B64E8998";
paths = (
{
closed = 1;
nodes = (
"392 130 LINE",
"286 268 LINE",
"438 409 LINE",
"399 501 LINE",
"185 341 LINE",
"163 211 LINE",
"333 43 LINE"
);
}
);
width = 600;
}
);
note = guilsinglleft;
unicode = 2039;
},
{
glyphname = guilsinglright;
lastChange = "2017-11-24 23:54:01 +0000";
layers = (
{
layerId = "2D832C46-3B02-4AC2-BC3D-33D8B64E8998";
paths = (
{
closed = 1;
nodes = (
"200 43 LINE",
"414 203 LINE",
"436 333 LINE",
"266 501 LINE",
"207 414 LINE",
"313 276 LINE",
"161 135 LINE"
);
}
);
width = 600;
}
);
note = guilsinglright;
unicode = 203A;
},
{
glyphname = guillemotleft;
lastChange = "2017-11-24 23:54:01 +0000";
layers = (
{
layerId = "2D832C46-3B02-4AC2-BC3D-33D8B64E8998";
paths = (
{
closed = 1;
nodes = (
"523 130 LINE",
"417 268 LINE",
"569 409 LINE",
"530 501 LINE",
"316 341 LINE",
"294 211 LINE",
"464 43 LINE"
);
},
{
closed = 1;
nodes = (
"279 130 LINE",
"173 268 LINE",
"325 409 LINE",
"286 501 LINE",
"72 341 LINE",
"50 211 LINE",
"220 43 LINE"
);
}
);
width = 600;
}
);
note = guillemotleft;
unicode = 00AB;
},
{
glyphname = guillemotright;
lastChange = "2017-11-24 23:54:01 +0000";
layers = (
{
layerId = "2D832C46-3B02-4AC2-BC3D-33D8B64E8998";
paths = (
{
closed = 1;
nodes = (
"313 43 LINE",
"527 203 LINE",
"549 333 LINE",
"379 501 LINE",
"320 414 LINE",
"426 276 LINE",
"274 135 LINE"
);
},
{
closed = 1;
nodes = (
"69 43 LINE",
"283 203 LINE",
"305 333 LINE",
"135 501 LINE",
"76 414 LINE",
"182 276 LINE",
"30 135 LINE"
);
}
);
width = 600;
}
);
note = guillemotright;
unicode = 00BB;
},
{
glyphname = exclamdown;
lastChange = "2017-11-24 23:54:01 +0000";
layers = (
{
layerId = "2D832C46-3B02-4AC2-BC3D-33D8B64E8998";
paths = (
{
closed = 1;
nodes = (
"304 -182 LINE",
"338 21 LINE",
"326 274 LINE",
"273 274 LINE",
"177 21 LINE",
"143 -182 LINE"
);
},
{
closed = 1;
nodes = (
"381 342 OFFCURVE",
"413 375 OFFCURVE",
"420 417 CURVE SMOOTH",
"425 447 OFFCURVE",
"426 457 OFFCURVE",
"426 465 CURVE SMOOTH",
"426 500 OFFCURVE",
"400 528 OFFCURVE",
"338 528 CURVE SMOOTH",
"272 528 OFFCURVE",
"240 495 OFFCURVE",
"233 453 CURVE SMOOTH",
"228 423 OFFCURVE",
"227 413 OFFCURVE",
"227 405 CURVE SMOOTH",
"227 370 OFFCURVE",
"253 342 OFFCURVE",
"315 342 CURVE SMOOTH"
);
}
);
width = 600;
}
);
note = exclamdown;
unicode = 00A1;
},
{
glyphname = exclam;
lastChange = "2017-11-24 23:54:01 +0000";
layers = (
{
layerId = "2D832C46-3B02-4AC2-BC3D-33D8B64E8998";
paths = (
{
closed = 1;
nodes = (
"321 243 LINE",
"417 495 LINE",
"451 698 LINE",
"290 698 LINE",
"257 495 LINE",
"269 243 LINE"
);
},
{
closed = 1;
nodes = (
"322 -12 OFFCURVE",
"354 21 OFFCURVE",
"361 63 CURVE SMOOTH",
"366 93 OFFCURVE",
"367 103 OFFCURVE",
"367 111 CURVE SMOOTH",
"367 146 OFFCURVE",
"341 174 OFFCURVE",
"279 174 CURVE SMOOTH",
"213 174 OFFCURVE",
"181 141 OFFCURVE",
"174 99 CURVE SMOOTH",
"169 69 OFFCURVE",
"168 59 OFFCURVE",
"168 51 CURVE SMOOTH",
"168 16 OFFCURVE",
"194 -12 OFFCURVE",
"256 -12 CURVE SMOOTH"
);
}
);
width = 600;
}
);
note = exclam;
unicode = 0021;
},
{
glyphname = questiondown;
lastChange = "2017-11-24 23:54:01 +0000";
layers = (
{
layerId = "2D832C46-3B02-4AC2-BC3D-33D8B64E8998";
paths = (
{
closed = 1;
nodes = (
"376 -194 OFFCURVE",
"453 -124 OFFCURVE",
"488 -39 CURVE",
"374 14 LINE",
"353 -37 OFFCURVE",
"316 -70 OFFCURVE",
"266 -70 CURVE SMOOTH",
"221 -70 OFFCURVE",
"185 -47 OFFCURVE",
"185 -2 CURVE SMOOTH",
"185 1 OFFCURVE",
"185 14 OFFCURVE",
"187 26 CURVE SMOOTH",
"199 98 OFFCURVE",
"258 125 OFFCURVE",
"371 130 CURVE",
"396 282 LINE",
"250 282 LINE",
"238 211 LINE",
"123 194 OFFCURVE",
"28 115 OFFCURVE",
"28 -8 CURVE SMOOTH",
"28 -122 OFFCURVE",
"110 -194 OFFCURVE",
"244 -194 CURVE SMOOTH"
);
},
{
closed = 1;
nodes = (
"400 342 OFFCURVE",
"432 375 OFFCURVE",
"439 417 CURVE SMOOTH",
"444 447 OFFCURVE",
"445 457 OFFCURVE",
"445 465 CURVE SMOOTH",
"445 500 OFFCURVE",
"419 528 OFFCURVE",
"357 528 CURVE SMOOTH",
"291 528 OFFCURVE",
"259 495 OFFCURVE",
"252 453 CURVE SMOOTH",
"247 423 OFFCURVE",
"246 413 OFFCURVE",
"246 405 CURVE SMOOTH",
"246 370 OFFCURVE",
"272 342 OFFCURVE",
"334 342 CURVE SMOOTH"
);
}
);
width = 600;
}
);
note = questiondown;
unicode = 00BF;
},
{
glyphname = question;
lastChange = "2017-11-24 23:54:01 +0000";
layers = (
{
layerId = "2D832C46-3B02-4AC2-BC3D-33D8B64E8998";
paths = (
{
closed = 1;
nodes = (
"344 234 LINE",
"356 305 LINE",
"471 322 OFFCURVE",
"566 401 OFFCURVE",
"566 524 CURVE SMOOTH",
"566 638 OFFCURVE",
"484 710 OFFCURVE",
"350 710 CURVE SMOOTH",
"218 710 OFFCURVE",
"141 640 OFFCURVE",
"106 555 CURVE",
"220 502 LINE",
"241 553 OFFCURVE",
"278 586 OFFCURVE",
"328 586 CURVE SMOOTH",
"373 586 OFFCURVE",
"409 563 OFFCURVE",
"409 518 CURVE SMOOTH",
"409 515 OFFCURVE",
"409 502 OFFCURVE",
"407 490 CURVE SMOOTH",
"395 418 OFFCURVE",
"336 391 OFFCURVE",
"223 386 CURVE",
"198 234 LINE"
);
},
{
closed = 1;
nodes = (
"303 -12 OFFCURVE",
"335 21 OFFCURVE",
"342 63 CURVE SMOOTH",
"347 93 OFFCURVE",
"348 103 OFFCURVE",
"348 111 CURVE SMOOTH",
"348 146 OFFCURVE",
"322 174 OFFCURVE",
"260 174 CURVE SMOOTH",
"194 174 OFFCURVE",
"162 141 OFFCURVE",
"155 99 CURVE SMOOTH",
"150 69 OFFCURVE",
"149 59 OFFCURVE",
"149 51 CURVE SMOOTH",
"149 16 OFFCURVE",
"175 -12 OFFCURVE",
"237 -12 CURVE SMOOTH"
);
}
);
width = 600;
}
);
note = question;
unicode = 003F;
},
{
glyphname = parenleft;
lastChange = "2017-11-24 23:54:01 +0000";
layers = (
{
layerId = "2D832C46-3B02-4AC2-BC3D-33D8B64E8998";
paths = (
{
closed = 1;
nodes = (
"170 82 OFFCURVE",
"235 -58 OFFCURVE",
"316 -137 CURVE",
"447 -137 LINE",
"367 -57 OFFCURVE",
"291 82 OFFCURVE",
"291 213 CURVE SMOOTH",
"291 234 OFFCURVE",
"292 251 OFFCURVE",
"296 275 CURVE SMOOTH",
"312 370 LINE SMOOTH",
"337 520 OFFCURVE",
"453 659 OFFCURVE",
"596 760 CURVE",
"453 760 LINE",
"301 659 OFFCURVE",
"170 461 OFFCURVE",
"170 239 CURVE SMOOTH"
);
}
);
width = 600;
}
);
note = parenleft;
unicode = 0028;
},
{
glyphname = parenright;
lastChange = "2017-11-24 23:54:01 +0000";
layers = (
{
layerId = "2D832C46-3B02-4AC2-BC3D-33D8B64E8998";
paths = (
{
closed = 1;
nodes = (
"452 541 OFFCURVE",
"387 681 OFFCURVE",
"306 760 CURVE",
"175 760 LINE",
"255 680 OFFCURVE",
"331 541 OFFCURVE",
"331 410 CURVE SMOOTH",
"331 389 OFFCURVE",
"330 372 OFFCURVE",
"326 348 CURVE SMOOTH",
"310 253 LINE SMOOTH",
"285 103 OFFCURVE",
"169 -36 OFFCURVE",
"26 -137 CURVE",
"169 -137 LINE",
"321 -36 OFFCURVE",
"452 162 OFFCURVE",
"452 384 CURVE SMOOTH"
);
}
);
width = 600;
}
);
note = parenright;
unicode = 0029;
},
{
glyphname = bracketleft;
lastChange = "2017-11-24 23:54:01 +0000";
layers = (
{
layerId = "2D832C46-3B02-4AC2-BC3D-33D8B64E8998";
paths = (
{
closed = 1;
nodes = (
"438 -138 LINE",
"455 -40 LINE",
"252 -40 LINE",
"369 662 LINE",
"572 662 LINE",
"588 760 LINE",
"268 760 LINE",
"118 -138 LINE"
);
}
);
width = 600;
}
);
note = bracketleft;
unicode = 005B;
},
{
glyphname = bracketright;
lastChange = "2017-11-24 23:54:01 +0000";
layers = (
{
layerId = "2D832C46-3B02-4AC2-BC3D-33D8B64E8998";
paths = (
{
closed = 1;
nodes = (
"181 760 LINE",
"164 662 LINE",
"367 662 LINE",
"250 -40 LINE",
"47 -40 LINE",
"31 -138 LINE",
"351 -138 LINE",
"501 760 LINE"
);
}
);
width = 600;
}
);
note = bracketright;
unicode = 005D;
},
{
glyphname = braceleft;
lastChange = "2017-11-24 23:54:01 +0000";
layers = (
{
layerId = "2D832C46-3B02-4AC2-BC3D-33D8B64E8998";
paths = (
{
closed = 1;
nodes = (
"444 -138 LINE",
"460 -40 LINE",
"277 -40 LINE",
"285 9 LINE SMOOTH",
"293 59 OFFCURVE",
"316 81 OFFCURVE",
"341 107 CURVE SMOOTH",
"372 140 OFFCURVE",
"406 173 OFFCURVE",
"406 222 CURVE SMOOTH",
"406 269 OFFCURVE",
"373 299 OFFCURVE",
"304 307 CURVE",
"306 315 LINE",
"397 325 OFFCURVE",
"440 367 OFFCURVE",
"440 429 CURVE SMOOTH",
"440 463 OFFCURVE",
"424 491 OFFCURVE",
"409 515 CURVE SMOOTH",
"393 541 OFFCURVE",
"384 556 OFFCURVE",
"384 589 CURVE SMOOTH",
"384 599 OFFCURVE",
"386 614 OFFCURVE",
"394 662 CURVE",
"577 662 LINE",
"594 760 LINE",
"417 760 LINE SMOOTH",
"328 760 OFFCURVE",
"285 716 OFFCURVE",
"275 653 CURVE SMOOTH",
"273 641 OFFCURVE",
"265 593 OFFCURVE",
"265 579 CURVE SMOOTH",
"265 534 OFFCURVE",
"283 508 OFFCURVE",
"302 480 CURVE SMOOTH",
"316 459 OFFCURVE",
"322 441 OFFCURVE",
"322 425 CURVE SMOOTH",
"322 383 OFFCURVE",
"280 360 OFFCURVE",
"204 360 CURVE SMOOTH",
"115 360 LINE",
"99 262 LINE",
"188 262 LINE SMOOTH",
"253 262 OFFCURVE",
"287 244 OFFCURVE",
"287 213 CURVE SMOOTH",
"287 193 OFFCURVE",
"279 176 OFFCURVE",
"245 142 CURVE SMOOTH",
"217 114 OFFCURVE",
"182 82 OFFCURVE",
"169 15 CURVE SMOOTH",
"160 -31 OFFCURVE",
"159 -47 OFFCURVE",
"159 -55 CURVE SMOOTH",
"159 -104 OFFCURVE",
"190 -138 OFFCURVE",
"268 -138 CURVE SMOOTH"
);
}
);
width = 600;
}
);
note = braceleft;
unicode = 007B;
},
{
glyphname = braceright;
lastChange = "2017-11-24 23:54:01 +0000";
layers = (
{
layerId = "2D832C46-3B02-4AC2-BC3D-33D8B64E8998";
paths = (
{
closed = 1;
nodes = (
"174 760 LINE",
"158 662 LINE",
"341 662 LINE",
"333 613 LINE SMOOTH",
"325 563 OFFCURVE",
"302 541 OFFCURVE",
"277 515 CURVE SMOOTH",
"246 482 OFFCURVE",
"212 449 OFFCURVE",
"212 400 CURVE SMOOTH",
"212 353 OFFCURVE",
"245 323 OFFCURVE",
"314 315 CURVE",
"312 307 LINE",
"221 297 OFFCURVE",
"178 255 OFFCURVE",
"178 193 CURVE SMOOTH",
"178 159 OFFCURVE",
"194 131 OFFCURVE",
"209 107 CURVE SMOOTH",
"225 81 OFFCURVE",
"234 66 OFFCURVE",
"234 33 CURVE SMOOTH",
"234 23 OFFCURVE",
"232 8 OFFCURVE",
"224 -40 CURVE",
"41 -40 LINE",
"24 -138 LINE",
"201 -138 LINE SMOOTH",
"290 -138 OFFCURVE",
"333 -94 OFFCURVE",
"343 -31 CURVE SMOOTH",
"345 -19 OFFCURVE",
"353 29 OFFCURVE",
"353 43 CURVE SMOOTH",
"353 88 OFFCURVE",
"335 114 OFFCURVE",
"316 142 CURVE SMOOTH",
"302 163 OFFCURVE",
"296 181 OFFCURVE",
"296 197 CURVE SMOOTH",
"296 239 OFFCURVE",
"338 262 OFFCURVE",
"414 262 CURVE SMOOTH",
"503 262 LINE",
"519 360 LINE",
"430 360 LINE SMOOTH",
"365 360 OFFCURVE",
"331 378 OFFCURVE",
"331 409 CURVE SMOOTH",
"331 429 OFFCURVE",
"339 446 OFFCURVE",
"373 480 CURVE SMOOTH",
"401 508 OFFCURVE",
"436 540 OFFCURVE",
"449 607 CURVE SMOOTH",
"458 653 OFFCURVE",
"459 669 OFFCURVE",
"459 677 CURVE SMOOTH",
"459 726 OFFCURVE",
"428 760 OFFCURVE",
"350 760 CURVE SMOOTH"
);
}
);
width = 600;
}
);
note = braceright;
unicode = 007D;
},
{
glyphname = slash;
lastChange = "2017-11-24 23:54:01 +0000";
layers = (
{
layerId = "2D832C46-3B02-4AC2-BC3D-33D8B64E8998";
paths = (
{
closed = 1;
nodes = (
"135 -138 LINE",
"599 760 LINE",
"465 760 LINE",
"1 -138 LINE"
);
}
);
width = 600;
}
);
note = slash;
unicode = 002F;
},
{
glyphname = backslash;
lastChange = "2017-11-24 23:54:01 +0000";
layers = (
{
layerId = "2D832C46-3B02-4AC2-BC3D-33D8B64E8998";
paths = (
{
closed = 1;
nodes = (
"449 -138 LINE",
"280 760 LINE",
"161 760 LINE",
"330 -138 LINE"
);
}
);
width = 600;
}
);
note = backslash;
unicode = 005C;
},
{
glyphname = fraction;
lastChange = "2017-11-24 23:54:01 +0000";
layers = (
{
layerId = "2D832C46-3B02-4AC2-BC3D-33D8B64E8998";
paths = (
{
closed = 1;
nodes = (
"345 398 LINE",
"451 398 LINE",
"674 698 LINE",
"568 698 LINE"
);
},
{
closed = 1;
nodes = (
"-42 0 LINE",
"64 0 LINE",
"287 300 LINE",
"181 300 LINE"
);
}
);
width = 600;
}
);
note = fraction;
unicode = 2044;
},
{
glyphname = percent;
lastChange = "2017-11-24 23:54:01 +0000";
layers = (
{
layerId = "2D832C46-3B02-4AC2-BC3D-33D8B64E8998";
paths = (
{
closed = 1;
nodes = (
"300 339 OFFCURVE",
"372 430 OFFCURVE",
"372 564 CURVE SMOOTH",
"372 654 OFFCURVE",
"323 710 OFFCURVE",
"235 710 CURVE SMOOTH",
"122 710 OFFCURVE",
"50 619 OFFCURVE",
"50 485 CURVE SMOOTH",
"50 395 OFFCURVE",
"99 339 OFFCURVE",
"187 339 CURVE SMOOTH"
);
},
{
closed = 1;
nodes = (
"165 425 OFFCURVE",
"151 441 OFFCURVE",
"151 476 CURVE SMOOTH",
"151 492 OFFCURVE",
"160 535 OFFCURVE",
"163 553 CURVE SMOOTH",
"170 595 OFFCURVE",
"185 624 OFFCURVE",
"226 624 CURVE SMOOTH",
"257 624 OFFCURVE",
"271 608 OFFCURVE",
"271 573 CURVE SMOOTH",
"271 557 OFFCURVE",
"262 514 OFFCURVE",
"259 496 CURVE SMOOTH",
"252 454 OFFCURVE",
"237 425 OFFCURVE",
"196 425 CURVE SMOOTH"
);
},
{
closed = 1;
nodes = (
"360 398 LINE",
"471 398 LINE",
"672 698 LINE",
"561 698 LINE"
);
},
{
closed = 1;
nodes = (
"-39 0 LINE",
"72 0 LINE",
"273 300 LINE",
"162 300 LINE"
);
},
{
closed = 1;
nodes = (
"511 -12 OFFCURVE",
"583 79 OFFCURVE",
"583 213 CURVE SMOOTH",
"583 303 OFFCURVE",
"534 359 OFFCURVE",
"446 359 CURVE SMOOTH",
"333 359 OFFCURVE",
"261 268 OFFCURVE",
"261 134 CURVE SMOOTH",
"261 44 OFFCURVE",
"310 -12 OFFCURVE",
"398 -12 CURVE SMOOTH"
);
},
{
closed = 1;
nodes = (
"376 74 OFFCURVE",
"362 90 OFFCURVE",
"362 125 CURVE SMOOTH",
"362 141 OFFCURVE",
"371 184 OFFCURVE",
"374 202 CURVE SMOOTH",
"381 244 OFFCURVE",
"396 273 OFFCURVE",
"437 273 CURVE SMOOTH",
"468 273 OFFCURVE",
"482 257 OFFCURVE",
"482 222 CURVE SMOOTH",
"482 206 OFFCURVE",
"473 163 OFFCURVE",
"470 145 CURVE SMOOTH",
"463 103 OFFCURVE",
"448 74 OFFCURVE",
"407 74 CURVE SMOOTH"
);
}
);
width = 600;
}
);
note = percent;
unicode = 0025;
},
{
glyphname = perthousand;
lastChange = "2017-11-24 23:54:01 +0000";
layers = (
{
layerId = "2D832C46-3B02-4AC2-BC3D-33D8B64E8998";
paths = (
{
closed = 1;
nodes = (
"277 401 OFFCURVE",
"341 479 OFFCURVE",
"341 585 CURVE SMOOTH",
"341 661 OFFCURVE",
"298 710 OFFCURVE",
"213 710 CURVE SMOOTH",
"104 710 OFFCURVE",
"40 632 OFFCURVE",
"40 526 CURVE SMOOTH",
"40 450 OFFCURVE",
"83 401 OFFCURVE",
"168 401 CURVE SMOOTH"
);
},
{
closed = 1;
nodes = (
"149 479 OFFCURVE",
"135 498 OFFCURVE",
"135 523 CURVE SMOOTH",
"135 533 OFFCURVE",
"141 559 OFFCURVE",
"143 571 CURVE SMOOTH",
"149 607 OFFCURVE",
"171 632 OFFCURVE",
"203 632 CURVE SMOOTH",
"232 632 OFFCURVE",
"246 613 OFFCURVE",
"246 588 CURVE SMOOTH",
"246 578 OFFCURVE",
"240 552 OFFCURVE",
"238 540 CURVE SMOOTH",
"232 504 OFFCURVE",
"210 479 OFFCURVE",
"178 479 CURVE SMOOTH"
);
},
{
closed = 1;
nodes = (
"76 276 LINE",
"561 419 LINE",
"552 486 LINE",
"67 343 LINE"
);
},
{
closed = 1;
nodes = (
"245 -12 OFFCURVE",
"284 7 OFFCURVE",
"308 33 CURVE",
"316 33 LINE",
"334 5 OFFCURVE",
"363 -12 OFFCURVE",
"410 -12 CURVE SMOOTH",
"512 -12 OFFCURVE",
"579 63 OFFCURVE",
"579 168 CURVE SMOOTH",
"579 246 OFFCURVE",
"534 297 OFFCURVE",
"454 297 CURVE SMOOTH",
"412 297 OFFCURVE",
"373 278 OFFCURVE",
"349 252 CURVE",
"341 252 LINE",
"323 280 OFFCURVE",
"294 297 OFFCURVE",
"247 297 CURVE SMOOTH",
"145 297 OFFCURVE",
"78 222 OFFCURVE",
"78 117 CURVE SMOOTH",
"78 39 OFFCURVE",
"123 -12 OFFCURVE",
"203 -12 CURVE SMOOTH"
);
},
{
closed = 1;
nodes = (
"187 66 OFFCURVE",
"173 85 OFFCURVE",
"173 110 CURVE SMOOTH",
"173 120 OFFCURVE",
"179 146 OFFCURVE",
"181 158 CURVE SMOOTH",
"187 194 OFFCURVE",
"209 219 OFFCURVE",
"241 219 CURVE SMOOTH",
"270 219 OFFCURVE",
"284 200 OFFCURVE",
"284 175 CURVE SMOOTH",
"284 165 OFFCURVE",
"278 139 OFFCURVE",
"276 127 CURVE SMOOTH",
"270 91 OFFCURVE",
"248 66 OFFCURVE",
"216 66 CURVE SMOOTH"
);
},
{
closed = 1;
nodes = (
"387 66 OFFCURVE",
"373 85 OFFCURVE",
"373 110 CURVE SMOOTH",
"373 120 OFFCURVE",
"379 146 OFFCURVE",
"381 158 CURVE SMOOTH",
"387 194 OFFCURVE",
"409 219 OFFCURVE",
"441 219 CURVE SMOOTH",
"470 219 OFFCURVE",
"484 200 OFFCURVE",
"484 175 CURVE SMOOTH",
"484 165 OFFCURVE",
"478 139 OFFCURVE",
"476 127 CURVE SMOOTH",
"470 91 OFFCURVE",
"448 66 OFFCURVE",
"416 66 CURVE SMOOTH"
);
}
);
width = 600;
}
);
note = perthousand;
unicode = 2030;
},
{
glyphname = bar;
lastChange = "2017-11-24 23:54:01 +0000";
layers = (
{
layerId = "2D832C46-3B02-4AC2-BC3D-33D8B64E8998";
paths = (
{
closed = 1;
nodes = (
"297 -138 LINE",
"447 760 LINE",
"323 760 LINE",
"173 -138 LINE"
);
}
);
width = 600;
}
);
note = bar;
unicode = 007C;
},
{
glyphname = brokenbar;
lastChange = "2017-11-24 23:54:01 +0000";
layers = (
{
layerId = "2D832C46-3B02-4AC2-BC3D-33D8B64E8998";
paths = (
{
closed = 1;
nodes = (
"387 400 LINE",
"447 760 LINE",
"323 760 LINE",
"263 400 LINE"
);
},
{
closed = 1;
nodes = (
"297 -138 LINE",
"357 221 LINE",
"233 221 LINE",
"173 -138 LINE"
);
}
);
width = 600;
}
);
note = brokenbar;
unicode = 00A6;
},
{
glyphname = section;
lastChange = "2017-11-24 23:54:01 +0000";
layers = (
{
layerId = "2D832C46-3B02-4AC2-BC3D-33D8B64E8998";
paths = (
{
closed = 1;
nodes = (
"464 62 OFFCURVE",
"443 109 OFFCURVE",
"395 145 CURVE",
"397 158 LINE",
"495 183 OFFCURVE",
"539 233 OFFCURVE",
"539 313 CURVE SMOOTH",
"539 367 OFFCURVE",
"497 413 OFFCURVE",
"407 444 CURVE SMOOTH",
"335 469 LINE SMOOTH",
"271 491 OFFCURVE",
"257 510 OFFCURVE",
"257 539 CURVE SMOOTH",
"257 579 OFFCURVE",
"302 605 OFFCURVE",
"354 605 CURVE SMOOTH",
"404 605 OFFCURVE",
"456 585 OFFCURVE",
"485 550 CURVE",
"563 638 LINE",
"514 688 OFFCURVE",
"432 710 OFFCURVE",
"355 710 CURVE SMOOTH",
"209 710 OFFCURVE",
"130 631 OFFCURVE",
"130 520 CURVE SMOOTH",
"130 472 OFFCURVE",
"151 425 OFFCURVE",
"199 389 CURVE",
"197 376 LINE",
"99 351 OFFCURVE",
"55 301 OFFCURVE",
"55 221 CURVE SMOOTH",
"55 167 OFFCURVE",
"97 121 OFFCURVE",
"187 90 CURVE SMOOTH",
"259 65 LINE SMOOTH",
"323 43 OFFCURVE",
"337 24 OFFCURVE",
"337 -5 CURVE SMOOTH",
"337 -45 OFFCURVE",
"292 -71 OFFCURVE",
"240 -71 CURVE SMOOTH",
"190 -71 OFFCURVE",
"138 -51 OFFCURVE",
"109 -16 CURVE",
"31 -104 LINE",
"80 -154 OFFCURVE",
"162 -176 OFFCURVE",
"239 -176 CURVE SMOOTH",
"385 -176 OFFCURVE",
"464 -97 OFFCURVE",
"464 14 CURVE SMOOTH"
);
},
{
closed = 1;
nodes = (
"410 222 OFFCURVE",
"396 200 OFFCURVE",
"350 169 CURVE",
"343 172 OFFCURVE",
"335 175 OFFCURVE",
"328 177 CURVE SMOOTH",
"255 200 LINE SMOOTH",
"201 217 OFFCURVE",
"184 250 OFFCURVE",
"184 279 CURVE SMOOTH",
"184 312 OFFCURVE",
"198 334 OFFCURVE",
"244 365 CURVE",
"251 362 OFFCURVE",
"259 359 OFFCURVE",
"266 357 CURVE SMOOTH",
"339 334 LINE SMOOTH",
"393 317 OFFCURVE",
"410 284 OFFCURVE",
"410 255 CURVE SMOOTH"
);
}
);
width = 600;
}
);
note = section;
unicode = 00A7;
},
{
glyphname = paragraph;
lastChange = "2017-11-24 23:54:01 +0000";
layers = (
{
layerId = "2D832C46-3B02-4AC2-BC3D-33D8B64E8998";
paths = (
{
closed = 1;
nodes = (
"191 -148 LINE",
"307 -148 LINE",
"429 585 LINE",
"500 585 LINE",
"378 -148 LINE",
"494 -148 LINE",
"635 699 LINE",
"332 699 LINE SMOOTH",
"196 699 OFFCURVE",
"69 591 OFFCURVE",
"69 438 CURVE SMOOTH",
"69 319 OFFCURVE",
"151 246 OFFCURVE",
"257 246 CURVE"
);
}
);
width = 600;
}
);
note = paragraph;
unicode = 00B6;
},
{
glyphname = copyright;
lastChange = "2017-11-24 23:54:01 +0000";
layers = (
{
layerId = "2D832C46-3B02-4AC2-BC3D-33D8B64E8998";
paths = (
{
closed = 1;
nodes = (
"471 18 OFFCURVE",
"616 174 OFFCURVE",
"616 398 CURVE SMOOTH",
"616 573 OFFCURVE",
"508 680 OFFCURVE",
"356 680 CURVE SMOOTH",
"156 680 OFFCURVE",
"11 524 OFFCURVE",
"11 300 CURVE SMOOTH",
"11 125 OFFCURVE",
"119 18 OFFCURVE",
"271 18 CURVE SMOOTH"
);
},
{
closed = 1;
nodes = (
"129 72 OFFCURVE",
"71 182 OFFCURVE",
"71 300 CURVE SMOOTH",
"71 315 OFFCURVE",
"72 334 OFFCURVE",
"82 389 CURVE SMOOTH",
"107 530 OFFCURVE",
"213 626 OFFCURVE",
"351 626 CURVE SMOOTH",
"498 626 OFFCURVE",
"556 516 OFFCURVE",
"556 398 CURVE SMOOTH",
"556 383 OFFCURVE",
"555 364 OFFCURVE",
"545 309 CURVE SMOOTH",
"520 168 OFFCURVE",
"414 72 OFFCURVE",
"276 72 CURVE SMOOTH"
);
},
{
closed = 1;
nodes = (
"381 153 OFFCURVE",
"431 202 OFFCURVE",
"463 255 CURVE",
"382 298 LINE",
"363 269 OFFCURVE",
"340 246 OFFCURVE",
"305 246 CURVE SMOOTH",
"269 246 OFFCURVE",
"250 268 OFFCURVE",
"250 299 CURVE SMOOTH",
"250 307 OFFCURVE",
"251 313 OFFCURVE",
"252 321 CURVE",
"263 386 LINE SMOOTH",
"269 424 OFFCURVE",
"297 452 OFFCURVE",
"336 452 CURVE SMOOTH",
"371 452 OFFCURVE",
"389 431 OFFCURVE",
"396 400 CURVE",
"486 441 LINE",
"466 501 OFFCURVE",
"426 545 OFFCURVE",
"337 545 CURVE SMOOTH",
"218 545 OFFCURVE",
"131 438 OFFCURVE",
"131 319 CURVE SMOOTH",
"131 219 OFFCURVE",
"196 153 OFFCURVE",
"296 153 CURVE SMOOTH"
);
}
);
width = 600;
}
);
note = copyright;
unicode = 00A9;
},
{
glyphname = registered;
lastChange = "2017-11-24 23:54:01 +0000";
layers = (
{
layerId = "2D832C46-3B02-4AC2-BC3D-33D8B64E8998";
paths = (
{
closed = 1;
nodes = (
"428 346 OFFCURVE",
"514 439 OFFCURVE",
"514 549 CURVE SMOOTH",
"514 647 OFFCURVE",
"443 710 OFFCURVE",
"350 710 CURVE SMOOTH",
"232 710 OFFCURVE",
"146 617 OFFCURVE",
"146 507 CURVE SMOOTH",
"146 409 OFFCURVE",
"217 346 OFFCURVE",
"310 346 CURVE SMOOTH"
);
},
{
closed = 1;
nodes = (
"228 386 OFFCURVE",
"193 437 OFFCURVE",
"193 506 CURVE SMOOTH",
"193 515 OFFCURVE",
"195 527 OFFCURVE",
"198 545 CURVE SMOOTH",
"211 623 OFFCURVE",
"269 670 OFFCURVE",
"349 670 CURVE SMOOTH",
"432 670 OFFCURVE",
"467 619 OFFCURVE",
"467 550 CURVE SMOOTH",
"467 541 OFFCURVE",
"465 529 OFFCURVE",
"462 511 CURVE SMOOTH",
"449 433 OFFCURVE",
"391 386 OFFCURVE",
"311 386 CURVE SMOOTH"
);
},
{
closed = 1;
nodes = (
"302 493 LINE",
"324 493 LINE",
"345 438 LINE",
"406 438 LINE",
"377 503 LINE",
"404 514 OFFCURVE",
"422 537 OFFCURVE",
"422 571 CURVE SMOOTH",
"422 601 OFFCURVE",
"403 623 OFFCURVE",
"360 623 CURVE SMOOTH",
"268 623 LINE",
"237 438 LINE",
"293 438 LINE"
);
},
{
closed = 1;
nodes = (
"309 533 LINE",
"317 580 LINE",
"341 580 LINE SMOOTH",
"355 580 OFFCURVE",
"363 574 OFFCURVE",
"363 564 CURVE SMOOTH",
"363 563 OFFCURVE",
"363 561 OFFCURVE",
"362 553 CURVE SMOOTH",
"360 540 OFFCURVE",
"349 533 OFFCURVE",
"333 533 CURVE SMOOTH"
);
}
);
width = 600;
}
);
note = registered;
unicode = 00AE;
},
{
glyphname = trademark;
lastChange = "2017-11-24 23:54:01 +0000";
layers = (
{
layerId = "2D832C46-3B02-4AC2-BC3D-33D8B64E8998";
paths = (
{
closed = 1;
nodes = (
"194 409 LINE",
"232 637 LINE",
"301 637 LINE",
"311 698 LINE",
"87 698 LINE",
"77 637 LINE",
"147 637 LINE",
"109 409 LINE"
);
},
{
closed = 1;
nodes = (
"358 409 LINE",
"374 507 LINE",
"382 600 LINE",
"386 600 LINE",
"438 454 LINE",
"541 600 LINE",
"545 600 LINE",
"522 507 LINE",
"506 409 LINE",
"578 409 LINE",
"626 698 LINE",
"541 698 LINE",
"463 583 LINE",
"457 583 LINE",
"423 698 LINE",
"333 698 LINE",
"285 409 LINE"
);
}
);
width = 600;
}
);
note = trademark;
unicode = 2122;
},
{
glyphname = ordfeminine;
lastChange = "2017-11-24 23:54:01 +0000";
layers = (
{
layerId = "2D832C46-3B02-4AC2-BC3D-33D8B64E8998";
paths = (
{
closed = 1;
nodes = (
"462 341 LINE",
"500 569 LINE SMOOTH",
"502 581 OFFCURVE",
"502 591 OFFCURVE",
"502 600 CURVE SMOOTH",
"502 673 OFFCURVE",
"443 710 OFFCURVE",
"356 710 CURVE SMOOTH",
"275 710 OFFCURVE",
"228 681 OFFCURVE",
"200 645 CURVE",
"248 590 LINE",
"272 616 OFFCURVE",
"297 635 OFFCURVE",
"339 635 CURVE SMOOTH",
"376 635 OFFCURVE",
"399 619 OFFCURVE",
"399 588 CURVE SMOOTH",
"399 582 OFFCURVE",
"398 575 OFFCURVE",
"397 569 CURVE SMOOTH",
"394 551 LINE",
"337 551 LINE SMOOTH",
"219 551 OFFCURVE",
"155 509 OFFCURVE",
"155 425 CURVE SMOOTH",
"155 367 OFFCURVE",
"199 333 OFFCURVE",
"263 333 CURVE SMOOTH",
"313 333 OFFCURVE",
"347 358 OFFCURVE",
"368 404 CURVE",
"376 404 LINE",
"366 341 LINE"
);
},
{
closed = 1;
nodes = (
"385 495 LINE",
"378 452 LINE SMOOTH",
"372 418 OFFCURVE",
"342 400 OFFCURVE",
"306 400 CURVE SMOOTH",
"275 400 OFFCURVE",
"256 412 OFFCURVE",
"256 434 CURVE SMOOTH",
"256 437 OFFCURVE",
"256 442 OFFCURVE",
"258 452 CURVE",
"262 480 OFFCURVE",
"289 495 OFFCURVE",
"331 495 CURVE SMOOTH"
);
}
);
width = 600;
}
);
note = ordfeminine;
unicode = 00AA;
},
{
glyphname = ordmasculine;
lastChange = "2017-11-24 23:54:01 +0000";
layers = (
{
layerId = "2D832C46-3B02-4AC2-BC3D-33D8B64E8998";
paths = (
{
closed = 1;
nodes = (
"447 333 OFFCURVE",
"528 422 OFFCURVE",
"528 557 CURVE SMOOTH",
"528 651 OFFCURVE",
"472 710 OFFCURVE",
"370 710 CURVE SMOOTH",
"243 710 OFFCURVE",
"162 621 OFFCURVE",
"162 486 CURVE SMOOTH",
"162 392 OFFCURVE",
"218 333 OFFCURVE",
"320 333 CURVE SMOOTH"
);
},
{
closed = 1;
nodes = (
"288 409 OFFCURVE",
"264 431 OFFCURVE",
"264 471 CURVE SMOOTH",
"264 478 OFFCURVE",
"265 486 OFFCURVE",
"266 492 CURVE SMOOTH",
"276 552 LINE SMOOTH",
"284 600 OFFCURVE",
"316 634 OFFCURVE",
"360 634 CURVE SMOOTH",
"402 634 OFFCURVE",
"426 612 OFFCURVE",
"426 572 CURVE SMOOTH",
"426 565 OFFCURVE",
"425 557 OFFCURVE",
"424 551 CURVE SMOOTH",
"414 491 LINE SMOOTH",
"406 443 OFFCURVE",
"374 409 OFFCURVE",
"330 409 CURVE SMOOTH"
);
}
);
width = 600;
}
);
note = ordmasculine;
unicode = 00BA;
},
{
glyphname = degree;
lastChange = "2017-11-24 23:54:01 +0000";
layers = (
{
layerId = "2D832C46-3B02-4AC2-BC3D-33D8B64E8998";
paths = (
{
closed = 1;
nodes = (
"443 335 OFFCURVE",
"537 422 OFFCURVE",
"537 540 CURVE SMOOTH",
"537 637 OFFCURVE",
"469 710 OFFCURVE",
"367 710 CURVE SMOOTH",
"250 710 OFFCURVE",
"156 623 OFFCURVE",
"156 505 CURVE SMOOTH",
"156 408 OFFCURVE",
"224 335 OFFCURVE",
"326 335 CURVE SMOOTH"
);
},
{
closed = 1;
nodes = (
"288 428 OFFCURVE",
"258 463 OFFCURVE",
"258 506 CURVE SMOOTH",
"258 566 OFFCURVE",
"297 617 OFFCURVE",
"359 617 CURVE SMOOTH",
"405 617 OFFCURVE",
"435 582 OFFCURVE",
"435 539 CURVE SMOOTH",
"435 479 OFFCURVE",
"396 428 OFFCURVE",
"334 428 CURVE SMOOTH"
);
}
);
width = 600;
}
);
note = degree;
unicode = 00B0;
},
{
glyphname = asterisk;
lastChange = "2017-11-24 23:54:01 +0000";
layers = (
{
layerId = "2D832C46-3B02-4AC2-BC3D-33D8B64E8998";
paths = (
{
closed = 1;
nodes = (
"288 190 LINE",
"376 40 LINE",
"485 109 LINE",
"397 252 LINE",
"578 317 LINE",
"557 431 LINE",
"379 370 LINE",
"409 548 LINE",
"283 548 LINE",
"253 370 LINE",
"95 431 LINE",
"40 320 LINE",
"198 259 LINE",
"61 109 LINE",
"157 40 LINE"
);
}
);
width = 600;
}
);
note = asterisk;
unicode = 002A;
},
{
glyphname = dagger;
lastChange = "2017-11-24 23:54:01 +0000";
layers = (
{
layerId = "2D832C46-3B02-4AC2-BC3D-33D8B64E8998";
paths = (
{
closed = 1;
nodes = (
"287 -200 LINE",
"388 409 LINE",
"565 409 LINE",
"583 516 LINE",
"406 516 LINE",
"443 740 LINE",
"319 740 LINE",
"282 516 LINE",
"106 516 LINE",
"88 409 LINE",
"264 409 LINE",
"163 -200 LINE"
);
}
);
width = 600;
}
);
note = dagger;
unicode = 2020;
},
{
glyphname = daggerdbl;
lastChange = "2017-11-24 23:54:01 +0000";
layers = (
{
layerId = "2D832C46-3B02-4AC2-BC3D-33D8B64E8998";
paths = (
{
closed = 1;
nodes = (
"287 -200 LINE",
"324 24 LINE",
"500 24 LINE",
"518 131 LINE",
"342 131 LINE",
"388 409 LINE",
"564 409 LINE",
"582 516 LINE",
"406 516 LINE",
"443 740 LINE",
"319 740 LINE",
"282 516 LINE",
"106 516 LINE",
"88 409 LINE",
"264 409 LINE",
"218 131 LINE",
"42 131 LINE",
"24 24 LINE",
"200 24 LINE",
"163 -200 LINE"
);
}
);
width = 600;
}
);
note = daggerdbl;
unicode = 2021;
},
{
glyphname = numbersign;
lastChange = "2017-11-24 23:54:01 +0000";
layers = (
{
layerId = "2D832C46-3B02-4AC2-BC3D-33D8B64E8998";
paths = (
{
closed = 1;
nodes = (
"42 0 LINE",
"157 0 LINE",
"396 698 LINE",
"281 698 LINE",
"214 503 LINE",
"88 503 LINE",
"70 395 LINE",
"177 395 LINE",
"146 303 LINE",
"17 303 LINE",
"-1 195 LINE",
"109 195 LINE"
);
},
{
closed = 1;
nodes = (
"236 0 LINE",
"351 0 LINE",
"418 195 LINE",
"544 195 LINE",
"562 303 LINE",
"455 303 LINE",
"486 395 LINE",
"615 395 LINE",
"633 503 LINE",
"523 503 LINE",
"590 698 LINE",
"475 698 LINE"
);
}
);
width = 600;
}
);
note = numbersign;
unicode = 0023;
},
{
glyphname = asciicircum;
lastChange = "2017-11-24 23:54:01 +0000";
layers = (
{
layerId = "2D832C46-3B02-4AC2-BC3D-33D8B64E8998";
paths = (
{
closed = 1;
nodes = (
"578 304 LINE",
"445 698 LINE",
"289 698 LINE",
"34 304 LINE",
"144 252 LINE",
"342 562 LINE",
"353 562 LINE",
"459 256 LINE"
);
}
);
width = 600;
}
);
note = asciicircum;
unicode = 005E;
},
{
glyphname = asciitilde;
lastChange = "2017-11-24 23:54:01 +0000";
layers = (
{
layerId = "2D832C46-3B02-4AC2-BC3D-33D8B64E8998";
paths = (
{
closed = 1;
nodes = (
"478 211 OFFCURVE",
"524 239 OFFCURVE",
"555 273 CURVE",
"519 355 LINE",
"487 336 OFFCURVE",
"465 328 OFFCURVE",
"435 328 CURVE SMOOTH",
"393 328 OFFCURVE",
"362 344 OFFCURVE",
"328 362 CURVE SMOOTH",
"286 384 OFFCURVE",
"255 399 OFFCURVE",
"206 399 CURVE SMOOTH",
"139 399 OFFCURVE",
"93 371 OFFCURVE",
"62 337 CURVE",
"98 255 LINE",
"130 274 OFFCURVE",
"152 282 OFFCURVE",
"182 282 CURVE SMOOTH",
"224 282 OFFCURVE",
"255 266 OFFCURVE",
"289 248 CURVE SMOOTH",
"331 226 OFFCURVE",
"362 211 OFFCURVE",
"411 211 CURVE SMOOTH"
);
}
);
width = 600;
}
);
note = asciitilde;
unicode = 007E;
},
{
glyphname = plus;
lastChange = "2017-11-24 23:54:01 +0000";
layers = (
{
layerId = "2D832C46-3B02-4AC2-BC3D-33D8B64E8998";
paths = (
{
closed = 1;
nodes = (
"331 62 LINE",
"362 247 LINE",
"537 247 LINE",
"557 363 LINE",
"381 363 LINE",
"412 548 LINE",
"286 548 LINE",
"255 363 LINE",
"81 363 LINE",
"61 247 LINE",
"236 247 LINE",
"205 62 LINE"
);
}
);
width = 600;
}
);
note = plus;
unicode = 002B;
},
{
glyphname = minus;
lastChange = "2017-11-24 23:54:01 +0000";
layers = (
{
layerId = "2D832C46-3B02-4AC2-BC3D-33D8B64E8998";
paths = (
{
closed = 1;
nodes = (
"537 247 LINE",
"557 363 LINE",
"81 363 LINE",
"61 247 LINE"
);
}
);
width = 600;
}
);
note = minus;
unicode = 2212;
},
{
glyphname = plusminus;
lastChange = "2017-11-24 23:54:01 +0000";
layers = (
{
layerId = "2D832C46-3B02-4AC2-BC3D-33D8B64E8998";
paths = (
{
closed = 1;
nodes = (
"352 183 LINE",
"380 350 LINE",
"554 350 LINE",
"574 466 LINE",
"399 466 LINE",
"427 633 LINE",
"301 633 LINE",
"273 466 LINE",
"98 466 LINE",
"78 350 LINE",
"254 350 LINE",
"226 183 LINE"
);
},
{
closed = 1;
nodes = (
"496 0 LINE",
"516 116 LINE",
"40 116 LINE",
"20 0 LINE"
);
}
);
width = 600;
}
);
note = plusminus;
unicode = 00B1;
},
{
glyphname = multiply;
lastChange = "2017-11-24 23:54:01 +0000";
layers = (
{
layerId = "2D832C46-3B02-4AC2-BC3D-33D8B64E8998";
paths = (
{
closed = 1;
nodes = (
"417 76 LINE",
"512 157 LINE",
"393 301 LINE",
"564 447 LINE",
"489 534 LINE",
"320 390 LINE",
"201 534 LINE",
"106 453 LINE",
"225 310 LINE",
"53 164 LINE",
"129 76 LINE",
"298 220 LINE"
);
}
);
width = 600;
}
);
note = multiply;
unicode = 00D7;
},
{
glyphname = divide;
lastChange = "2017-11-24 23:54:01 +0000";
layers = (
{
layerId = "2D832C46-3B02-4AC2-BC3D-33D8B64E8998";
paths = (
{
closed = 1;
nodes = (
"537 247 LINE",
"557 363 LINE",
"81 363 LINE",
"61 247 LINE"
);
},
{
closed = 1;
nodes = (
"326 30 OFFCURVE",
"354 59 OFFCURVE",
"360 95 CURVE SMOOTH",
"363 113 OFFCURVE",
"365 128 OFFCURVE",
"365 136 CURVE SMOOTH",
"365 166 OFFCURVE",
"343 190 OFFCURVE",
"287 190 CURVE SMOOTH",
"227 190 OFFCURVE",
"199 161 OFFCURVE",
"193 125 CURVE SMOOTH",
"190 107 OFFCURVE",
"188 92 OFFCURVE",
"188 84 CURVE SMOOTH",
"188 54 OFFCURVE",
"210 30 OFFCURVE",
"266 30 CURVE SMOOTH"
);
},
{
closed = 1;
nodes = (
"390 420 OFFCURVE",
"418 449 OFFCURVE",
"424 485 CURVE SMOOTH",
"427 503 OFFCURVE",
"429 518 OFFCURVE",
"429 526 CURVE SMOOTH",
"429 556 OFFCURVE",
"407 580 OFFCURVE",
"351 580 CURVE SMOOTH",
"291 580 OFFCURVE",
"263 551 OFFCURVE",
"257 515 CURVE SMOOTH",
"254 497 OFFCURVE",
"252 482 OFFCURVE",
"252 474 CURVE SMOOTH",
"252 444 OFFCURVE",
"274 420 OFFCURVE",
"330 420 CURVE SMOOTH"
);
}
);
width = 600;
}
);
note = divide;
unicode = 00F7;
},
{
glyphname = equal;
lastChange = "2017-11-24 23:54:01 +0000";
layers = (
{
layerId = "2D832C46-3B02-4AC2-BC3D-33D8B64E8998";
paths = (
{
closed = 1;
nodes = (
"556 362 LINE",
"576 478 LINE",
"100 478 LINE",
"80 362 LINE"
);
},
{
closed = 1;
nodes = (
"518 132 LINE",
"538 248 LINE",
"62 248 LINE",
"42 132 LINE"
);
}
);
width = 600;
}
);
note = equal;
unicode = 003D;
},
{
glyphname = approxequal;
lastChange = "2017-11-24 23:54:01 +0000";
layers = (
{
layerId = "2D832C46-3B02-4AC2-BC3D-33D8B64E8998";
paths = (
{
closed = 1;
nodes = (
"459 96 OFFCURVE",
"505 124 OFFCURVE",
"536 158 CURVE",
"500 240 LINE",
"468 221 OFFCURVE",
"446 213 OFFCURVE",
"416 213 CURVE SMOOTH",
"374 213 OFFCURVE",
"343 229 OFFCURVE",
"309 247 CURVE SMOOTH",
"267 269 OFFCURVE",
"236 284 OFFCURVE",
"187 284 CURVE SMOOTH",
"120 284 OFFCURVE",
"74 256 OFFCURVE",
"43 222 CURVE",
"79 140 LINE",
"111 159 OFFCURVE",
"133 167 OFFCURVE",
"163 167 CURVE SMOOTH",
"205 167 OFFCURVE",
"236 151 OFFCURVE",
"270 133 CURVE SMOOTH",
"312 111 OFFCURVE",
"343 96 OFFCURVE",
"392 96 CURVE SMOOTH"
);
},
{
closed = 1;
nodes = (
"497 326 OFFCURVE",
"543 354 OFFCURVE",
"574 388 CURVE",
"538 470 LINE",
"506 451 OFFCURVE",
"484 443 OFFCURVE",
"454 443 CURVE SMOOTH",
"412 443 OFFCURVE",
"381 459 OFFCURVE",
"347 477 CURVE SMOOTH",
"305 499 OFFCURVE",
"274 514 OFFCURVE",
"225 514 CURVE SMOOTH",
"158 514 OFFCURVE",
"112 486 OFFCURVE",
"81 452 CURVE",
"117 370 LINE",
"149 389 OFFCURVE",
"171 397 OFFCURVE",
"201 397 CURVE SMOOTH",
"243 397 OFFCURVE",
"274 381 OFFCURVE",
"308 363 CURVE SMOOTH",
"350 341 OFFCURVE",
"381 326 OFFCURVE",
"430 326 CURVE SMOOTH"
);
}
);
width = 600;
}
);
note = approxequal;
unicode = 2248;
},
{
glyphname = notequal;
lastChange = "2017-11-24 23:54:01 +0000";
layers = (
{
layerId = "2D832C46-3B02-4AC2-BC3D-33D8B64E8998";
paths = (
{
closed = 1;
nodes = (
"182 37 LINE",
"249 132 LINE",
"518 132 LINE",
"538 248 LINE",
"327 248 LINE",
"409 362 LINE",
"556 362 LINE",
"576 478 LINE",
"494 478 LINE",
"562 573 LINE",
"436 573 LINE",
"368 478 LINE",
"100 478 LINE",
"80 362 LINE",
"291 362 LINE",
"209 248 LINE",
"62 248 LINE",
"42 132 LINE",
"124 132 LINE",
"56 37 LINE"
);
}
);
width = 600;
}
);
note = notequal;
unicode = 2260;
},
{
glyphname = less;
lastChange = "2017-11-24 23:54:01 +0000";
layers = (
{
layerId = "2D832C46-3B02-4AC2-BC3D-33D8B64E8998";
paths = (
{
closed = 1;
nodes = (
"473 7 LINE",
"495 138 LINE",
"224 296 LINE",
"225 304 LINE",
"548 461 LINE",
"572 604 LINE",
"104 375 LINE",
"81 237 LINE"
);
}
);
width = 600;
}
);
note = less;
unicode = 003C;
},
{
glyphname = greater;
lastChange = "2017-11-24 23:54:01 +0000";
layers = (
{
layerId = "2D832C46-3B02-4AC2-BC3D-33D8B64E8998";
paths = (
{
closed = 1;
nodes = (
"45 6 LINE",
"514 237 LINE",
"537 375 LINE",
"144 604 LINE",
"122 473 LINE",
"394 316 LINE",
"393 308 LINE",
"69 151 LINE"
);
}
);
width = 600;
}
);
note = greater;
unicode = 003E;
},
{
glyphname = lessequal;
lastChange = "2017-11-24 23:54:01 +0000";
layers = (
{
layerId = "2D832C46-3B02-4AC2-BC3D-33D8B64E8998";
paths = (
{
closed = 1;
nodes = (
"473 0 LINE",
"492 114 LINE",
"62 114 LINE",
"43 0 LINE"
);
},
{
closed = 1;
nodes = (
"572 595 LINE",
"116 438 LINE",
"94 301 LINE",
"497 143 LINE",
"517 265 LINE",
"245 361 LINE",
"246 368 LINE",
"551 466 LINE"
);
}
);
width = 600;
}
);
note = lessequal;
unicode = 2264;
},
{
glyphname = greaterequal;
lastChange = "2017-11-24 23:54:01 +0000";
layers = (
{
layerId = "2D832C46-3B02-4AC2-BC3D-33D8B64E8998";
paths = (
{
closed = 1;
nodes = (
"67 144 LINE",
"523 301 LINE",
"546 438 LINE",
"143 595 LINE",
"123 475 LINE",
"396 378 LINE",
"395 371 LINE",
"89 273 LINE"
);
},
{
closed = 1;
nodes = (
"43 0 LINE",
"473 0 LINE",
"492 114 LINE",
"62 114 LINE"
);
}
);
width = 600;
}
);
note = greaterequal;
unicode = 2265;
},
{
glyphname = periodcentered;
lastChange = "2017-11-24 23:54:01 +0000";
layers = (
{
layerId = "2D832C46-3B02-4AC2-BC3D-33D8B64E8998";
paths = (
{
closed = 1;
nodes = (
"368 207 OFFCURVE",
"403 245 OFFCURVE",
"410 287 CURVE SMOOTH",
"414 311 OFFCURVE",
"416 327 OFFCURVE",
"416 338 CURVE SMOOTH",
"416 375 OFFCURVE",
"390 405 OFFCURVE",
"324 405 CURVE SMOOTH",
"251 405 OFFCURVE",
"216 367 OFFCURVE",
"209 325 CURVE SMOOTH",
"205 301 OFFCURVE",
"203 285 OFFCURVE",
"203 274 CURVE SMOOTH",
"203 237 OFFCURVE",
"229 207 OFFCURVE",
"295 207 CURVE SMOOTH"
);
}
);
width = 600;
}
);
note = periodcentered;
unicode = 00B7;
},
{
glyphname = bullet;
lastChange = "2017-11-24 23:54:01 +0000";
layers = (
{
layerId = "2D832C46-3B02-4AC2-BC3D-33D8B64E8998";
paths = (
{
closed = 1;
nodes = (
"397 157 OFFCURVE",
"447 209 OFFCURVE",
"460 287 CURVE SMOOTH",
"466 323 OFFCURVE",
"466 336 OFFCURVE",
"466 345 CURVE SMOOTH",
"466 406 OFFCURVE",
"430 451 OFFCURVE",
"326 451 CURVE SMOOTH",
"220 451 OFFCURVE",
"170 399 OFFCURVE",
"157 321 CURVE SMOOTH",
"151 285 OFFCURVE",
"151 272 OFFCURVE",
"151 263 CURVE SMOOTH",
"151 202 OFFCURVE",
"187 157 OFFCURVE",
"291 157 CURVE SMOOTH"
);
}
);
width = 600;
}
);
note = bullet;
unicode = 2022;
},
{
glyphname = lozenge;
lastChange = "2017-11-24 23:54:01 +0000";
layers = (
{
layerId = "2D832C46-3B02-4AC2-BC3D-33D8B64E8998";
paths = (
{
closed = 1;
nodes = (
"316 0 LINE",
"588 349 LINE",
"424 698 LINE",
"316 698 LINE",
"44 349 LINE",
"208 0 LINE"
);
},
{
closed = 1;
nodes = (
"275 121 LINE",
"174 345 LINE",
"351 577 LINE",
"357 577 LINE",
"458 353 LINE",
"281 121 LINE"
);
}
);
width = 600;
}
);
note = lozenge;
unicode = 25CA;
},
{
glyphname = logicalnot;
lastChange = "2017-11-24 23:54:01 +0000";
layers = (
{
layerId = "2D832C46-3B02-4AC2-BC3D-33D8B64E8998";
paths = (
{
closed = 1;
nodes = (
"489 55 LINE",
"541 363 LINE",
"81 363 LINE",
"61 247 LINE",
"402 247 LINE",
"370 55 LINE"
);
}
);
width = 600;
}
);
note = logicalnot;
unicode = 00AC;
},
{
glyphname = radical;
lastChange = "2017-11-24 23:54:01 +0000";
layers = (
{
layerId = "2D832C46-3B02-4AC2-BC3D-33D8B64E8998";
paths = (
{
closed = 1;
nodes = (
"347 0 LINE",
"669 698 LINE",
"545 698 LINE",
"373 321 LINE",
"282 104 LINE",
"274 104 LINE",
"256 321 LINE",
"232 516 LINE",
"59 516 LINE",
"39 394 LINE",
"119 394 LINE",
"172 0 LINE"
);
}
);
width = 600;
}
);
note = radical;
unicode = 221A;
},
{
glyphname = integral;
lastChange = "2017-11-24 23:54:01 +0000";
layers = (
{
layerId = "2D832C46-3B02-4AC2-BC3D-33D8B64E8998";
paths = (
{
closed = 1;
nodes = (
"238 -212 OFFCURVE",
"296 -165 OFFCURVE",
"315 -53 CURVE SMOOTH",
"429 626 LINE",
"615 626 LINE",
"634 740 LINE",
"456 740 LINE SMOOTH",
"349 740 OFFCURVE",
"292 680 OFFCURVE",
"278 594 CURVE SMOOTH",
"164 -92 LINE",
"152 -97 LINE",
"49 39 LINE",
"-51 -30 LINE",
"-10 -89 LINE SMOOTH",
"42 -163 OFFCURVE",
"81 -212 OFFCURVE",
"154 -212 CURVE SMOOTH"
);
}
);
width = 600;
}
);
note = integral;
unicode = 222B;
},
{
glyphname = infinity;
lastChange = "2017-11-24 23:54:01 +0000";
layers = (
{
layerId = "2D832C46-3B02-4AC2-BC3D-33D8B64E8998";
paths = (
{
closed = 1;
nodes = (
"202 126 OFFCURVE",
"258 171 OFFCURVE",
"278 255 CURVE",
"282 255 LINE",
"313 159 OFFCURVE",
"353 126 OFFCURVE",
"423 126 CURVE SMOOTH",
"534 126 OFFCURVE",
"602 213 OFFCURVE",
"602 345 CURVE SMOOTH",
"602 432 OFFCURVE",
"557 484 OFFCURVE",
"476 484 CURVE SMOOTH",
"415 484 OFFCURVE",
"359 439 OFFCURVE",
"339 355 CURVE",
"335 355 LINE",
"304 451 OFFCURVE",
"264 484 OFFCURVE",
"194 484 CURVE SMOOTH",
"83 484 OFFCURVE",
"15 397 OFFCURVE",
"15 265 CURVE SMOOTH",
"15 178 OFFCURVE",
"60 126 OFFCURVE",
"141 126 CURVE SMOOTH"
);
},
{
closed = 1;
nodes = (
"148 227 OFFCURVE",
"131 244 OFFCURVE",
"131 276 CURVE SMOOTH",
"131 283 OFFCURVE",
"132 295 OFFCURVE",
"135 313 CURVE SMOOTH",
"142 355 OFFCURVE",
"164 383 OFFCURVE",
"195 383 CURVE SMOOTH",
"237 383 OFFCURVE",
"255 337 OFFCURVE",
"265 295 CURVE",
"243 255 OFFCURVE",
"210 227 OFFCURVE",
"173 227 CURVE SMOOTH"
);
},
{
closed = 1;
nodes = (
"380 227 OFFCURVE",
"362 273 OFFCURVE",
"352 315 CURVE",
"374 355 OFFCURVE",
"407 383 OFFCURVE",
"444 383 CURVE SMOOTH",
"469 383 OFFCURVE",
"486 366 OFFCURVE",
"486 334 CURVE SMOOTH",
"486 327 OFFCURVE",
"485 315 OFFCURVE",
"482 297 CURVE SMOOTH",
"475 255 OFFCURVE",
"453 227 OFFCURVE",
"422 227 CURVE SMOOTH"
);
}
);
width = 600;
}
);
note = infinity;
unicode = 221E;
},
{
glyphname = uni212E;
lastChange = "2017-11-24 23:54:01 +0000";
layers = (
{
layerId = "2D832C46-3B02-4AC2-BC3D-33D8B64E8998";
paths = (
{
closed = 1;
nodes = (
"185 349 LINE",
"574 349 LINE",
"574 556 OFFCURVE",
"466 710 OFFCURVE",
"300 710 CURVE SMOOTH",
"134 710 OFFCURVE",
"26 556 OFFCURVE",
"26 349 CURVE SMOOTH",
"26 142 OFFCURVE",
"134 -12 OFFCURVE",
"300 -12 CURVE SMOOTH",
"426 -12 OFFCURVE",
"501 62 OFFCURVE",
"549 151 CURVE",
"497 180 LINE",
"456 101 OFFCURVE",
"398 44 OFFCURVE",
"300 44 CURVE SMOOTH",
"254 44 OFFCURVE",
"209 62 OFFCURVE",
"185 85 CURVE"
);
},
{
closed = 1;
nodes = (
"185 401 LINE",
"185 618 LINE",
"210 641 OFFCURVE",
"254 656 OFFCURVE",
"300 656 CURVE SMOOTH",
"346 656 OFFCURVE",
"390 641 OFFCURVE",
"415 618 CURVE",
"415 401 LINE"
);
}
);
width = 600;
}
);
note = uni212E;
unicode = 212E;
},
{
glyphname = uni2113;
lastChange = "2017-11-24 23:54:01 +0000";
layers = (
{
layerId = "2D832C46-3B02-4AC2-BC3D-33D8B64E8998";
paths = (
{
closed = 1;
nodes = (
"446 -12 OFFCURVE",
"513 58 OFFCURVE",
"552 159 CURVE",
"441 216 LINE",
"401 134 OFFCURVE",
"375 110 OFFCURVE",
"332 110 CURVE SMOOTH",
"293 110 OFFCURVE",
"271 137 OFFCURVE",
"271 187 CURVE SMOOTH",
"271 229 LINE",
"423 346 OFFCURVE",
"498 437 OFFCURVE",
"498 563 CURVE SMOOTH",
"498 680 OFFCURVE",
"433 752 OFFCURVE",
"316 752 CURVE SMOOTH",
"214 752 OFFCURVE",
"135 695 OFFCURVE",
"135 546 CURVE SMOOTH",
"135 301 LINE",
"113 286 OFFCURVE",
"70 257 OFFCURVE",
"33 236 CURVE",
"95 137 LINE",
"107 144 OFFCURVE",
"132 160 OFFCURVE",
"142 167 CURVE",
"142 160 LINE SMOOTH",
"142 54 OFFCURVE",
"225 -12 OFFCURVE",
"328 -12 CURVE SMOOTH"
);
},
{
closed = 1;
nodes = (
"346 630 OFFCURVE",
"364 612 OFFCURVE",
"364 569 CURVE SMOOTH",
"364 550 LINE SMOOTH",
"364 477 OFFCURVE",
"323 422 OFFCURVE",
"271 376 CURVE",
"271 560 LINE SMOOTH",
"271 612 OFFCURVE",
"294 630 OFFCURVE",
"320 630 CURVE SMOOTH"
);
}
);
width = 600;
}
);
note = uni2113;
unicode = 2113;
},
{
glyphname = uni2116;
lastChange = "2017-11-24 23:54:01 +0000";
layers = (
{
layerId = "2D832C46-3B02-4AC2-BC3D-33D8B64E8998";
paths = (
{
closed = 1;
nodes = (
"582 326 OFFCURVE",
"619 396 OFFCURVE",
"636 490 CURVE SMOOTH",
"642 523 OFFCURVE",
"645 559 OFFCURVE",
"645 582 CURVE SMOOTH",
"645 659 OFFCURVE",
"611 706 OFFCURVE",
"544 706 CURVE SMOOTH",
"462 706 OFFCURVE",
"425 636 OFFCURVE",
"408 542 CURVE SMOOTH",
"402 509 OFFCURVE",
"399 473 OFFCURVE",
"399 450 CURVE SMOOTH",
"399 373 OFFCURVE",
"433 326 OFFCURVE",
"500 326 CURVE SMOOTH"
);
},
{
closed = 1;
nodes = (
"63 0 LINE",
"162 598 LINE",
"174 598 LINE",
"149 335 LINE",
"119 0 LINE",
"293 0 LINE",
"409 698 LINE",
"322 698 LINE",
"223 100 LINE",
"211 100 LINE",
"236 363 LINE",
"266 698 LINE",
"92 698 LINE",
"-24 0 LINE"
);
},
{
closed = 1;
nodes = (
"485 402 OFFCURVE",
"476 416 OFFCURVE",
"476 435 CURVE SMOOTH",
"476 446 OFFCURVE",
"478 460 OFFCURVE",
"481 477 CURVE SMOOTH",
"493 554 LINE SMOOTH",
"501 604 OFFCURVE",
"510 630 OFFCURVE",
"539 630 CURVE SMOOTH",
"559 630 OFFCURVE",
"568 616 OFFCURVE",
"568 597 CURVE SMOOTH",
"568 586 OFFCURVE",
"566 572 OFFCURVE",
"563 555 CURVE SMOOTH",
"551 478 LINE SMOOTH",
"543 428 OFFCURVE",
"534 402 OFFCURVE",
"505 402 CURVE SMOOTH"
);
},
{
closed = 1;
nodes = (
"585 227 LINE",
"597 303 LINE",
"377 303 LINE",
"365 227 LINE"
);
}
);
width = 600;
}
);
note = uni2116;
unicode = 2116;
},
{
glyphname = partialdiff;
lastChange = "2017-11-24 23:54:01 +0000";
layers = (
{
layerId = "2D832C46-3B02-4AC2-BC3D-33D8B64E8998";
paths = (
{
closed = 1;
nodes = (
"439 -12 OFFCURVE",
"568 104 OFFCURVE",
"568 344 CURVE SMOOTH",
"568 518 OFFCURVE",
"470 631 OFFCURVE",
"370 698 CURVE",
"170 698 LINE",
"320 609 OFFCURVE",
"412 519 OFFCURVE",
"432 412 CURVE",
"424 408 LINE",
"402 467 OFFCURVE",
"358 504 OFFCURVE",
"284 504 CURVE SMOOTH",
"142 504 OFFCURVE",
"38 376 OFFCURVE",
"38 205 CURVE SMOOTH",
"38 70 OFFCURVE",
"117 -12 OFFCURVE",
"267 -12 CURVE SMOOTH"
);
},
{
closed = 1;
nodes = (
"219 97 OFFCURVE",
"185 129 OFFCURVE",
"185 186 CURVE SMOOTH",
"185 196 OFFCURVE",
"186 205 OFFCURVE",
"188 217 CURVE SMOOTH",
"197 272 LINE SMOOTH",
"210 350 OFFCURVE",
"255 393 OFFCURVE",
"319 393 CURVE SMOOTH",
"378 393 OFFCURVE",
"412 361 OFFCURVE",
"412 304 CURVE SMOOTH",
"412 294 OFFCURVE",
"411 285 OFFCURVE",
"409 273 CURVE SMOOTH",
"400 218 LINE SMOOTH",
"387 140 OFFCURVE",
"342 97 OFFCURVE",
"278 97 CURVE SMOOTH"
);
}
);
width = 600;
}
);
note = partialdiff;
unicode = 2202;
},
{
glyphname = cent;
lastChange = "2017-11-24 23:54:01 +0000";
layers = (
{
layerId = "2D832C46-3B02-4AC2-BC3D-33D8B64E8998";
paths = (
{
closed = 1;
nodes = (
"198 -114 LINE",
"310 -114 LINE",
"327 -9 LINE",
"418 4 OFFCURVE",
"474 56 OFFCURVE",
"529 144 CURVE",
"443 196 LINE",
"395 133 OFFCURVE",
"365 109 OFFCURVE",
"337 100 CURVE",
"389 414 LINE",
"419 404 OFFCURVE",
"434 382 OFFCURVE",
"444 353 CURVE",
"555 399 LINE",
"538 459 OFFCURVE",
"492 504 OFFCURVE",
"416 521 CURVE",
"434 630 LINE",
"322 630 LINE",
"305 526 LINE",
"146 507 OFFCURVE",
"57 369 OFFCURVE",
"57 206 CURVE SMOOTH",
"57 90 OFFCURVE",
"112 16 OFFCURVE",
"216 -6 CURVE"
);
},
{
closed = 1;
nodes = (
"197 210 OFFCURVE",
"198 224 OFFCURVE",
"201 240 CURVE SMOOTH",
"211 302 LINE SMOOTH",
"220 361 OFFCURVE",
"251 401 OFFCURVE",
"296 416 CURVE",
"244 105 LINE",
"211 120 OFFCURVE",
"197 152 OFFCURVE",
"197 194 CURVE SMOOTH"
);
}
);
width = 600;
}
);
note = cent;
unicode = 00A2;
},
{
glyphname = Euro;
lastChange = "2017-11-24 23:54:01 +0000";
layers = (
{
layerId = "2D832C46-3B02-4AC2-BC3D-33D8B64E8998";
paths = (
{
closed = 1;
nodes = (
"429 -12 OFFCURVE",
"495 47 OFFCURVE",
"547 106 CURVE",
"455 181 LINE",
"417 130 OFFCURVE",
"375 105 OFFCURVE",
"319 105 CURVE SMOOTH",
"243 105 OFFCURVE",
"204 148 OFFCURVE",
"201 223 CURVE",
"423 223 LINE",
"438 313 LINE",
"210 313 LINE",
"222 385 LINE",
"450 385 LINE",
"465 475 LINE",
"242 475 LINE",
"269 549 OFFCURVE",
"316 593 OFFCURVE",
"387 593 CURVE SMOOTH",
"447 593 OFFCURVE",
"486 566 OFFCURVE",
"507 513 CURVE",
"625 584 LINE",
"589 652 OFFCURVE",
"524 710 OFFCURVE",
"398 710 CURVE SMOOTH",
"192 710 OFFCURVE",
"53 532 OFFCURVE",
"53 266 CURVE SMOOTH",
"53 92 OFFCURVE",
"139 -12 OFFCURVE",
"308 -12 CURVE SMOOTH"
);
}
);
width = 600;
}
);
note = Euro;
unicode = 20AC;
},
{
glyphname = florin;
lastChange = "2017-11-24 23:54:01 +0000";
layers = (
{
layerId = "2D832C46-3B02-4AC2-BC3D-33D8B64E8998";
paths = (
{
closed = 1;
nodes = (
"210 -212 OFFCURVE",
"265 -164 OFFCURVE",
"291 -54 CURVE SMOOTH",
"382 324 LINE",
"557 324 LINE",
"576 438 LINE",
"409 438 LINE",
"444 584 LINE",
"630 584 LINE",
"649 698 LINE",
"484 698 LINE SMOOTH",
"377 698 OFFCURVE",
"311 647 OFFCURVE",
"290 560 CURVE SMOOTH",
"261 438 LINE",
"110 438 LINE",
"91 324 LINE",
"234 324 LINE",
"135 -90 LINE",
"117 -96 LINE",
"20 36 LINE",
"-77 -30 LINE",
"-39 -89 LINE SMOOTH",
"10 -165 OFFCURVE",
"48 -212 OFFCURVE",
"124 -212 CURVE SMOOTH"
);
}
);
width = 600;
}
);
note = florin;
unicode = 0192;
},
{
glyphname = sterling;
lastChange = "2017-11-24 23:54:01 +0000";
layers = (
{
layerId = "2D832C46-3B02-4AC2-BC3D-33D8B64E8998";
paths = (
{
closed = 1;
nodes = (
"539 -12 OFFCURVE",
"578 47 OFFCURVE",
"578 109 CURVE SMOOTH",
"578 141 OFFCURVE",
"572 166 OFFCURVE",
"557 212 CURVE SMOOTH",
"547 242 LINE",
"448 216 LINE",
"465 127 LINE",
"454 114 LINE",
"217 188 LINE",
"221 195 LINE",
"264 207 OFFCURVE",
"304 236 OFFCURVE",
"304 288 CURVE SMOOTH",
"304 296 LINE",
"445 296 LINE",
"462 397 LINE",
"285 397 LINE",
"280 419 OFFCURVE",
"276 441 OFFCURVE",
"276 465 CURVE SMOOTH",
"276 543 OFFCURVE",
"324 583 OFFCURVE",
"390 583 CURVE SMOOTH",
"440 583 OFFCURVE",
"473 557 OFFCURVE",
"496 512 CURVE",
"610 583 LINE",
"567 664 OFFCURVE",
"496 710 OFFCURVE",
"394 710 CURVE SMOOTH",
"249 710 OFFCURVE",
"133 613 OFFCURVE",
"133 473 CURVE SMOOTH",
"133 446 OFFCURVE",
"137 419 OFFCURVE",
"141 397 CURVE",
"67 397 LINE",
"50 296 LINE",
"157 296 LINE",
"158 290 OFFCURVE",
"158 284 OFFCURVE",
"158 278 CURVE SMOOTH",
"158 209 OFFCURVE",
"116 168 OFFCURVE",
"50 141 CURVE",
"28 0 LINE",
"153 0 LINE",
"165 82 LINE",
"317 24 LINE SMOOTH",
"374 2 OFFCURVE",
"426 -12 OFFCURVE",
"472 -12 CURVE SMOOTH"
);
}
);
width = 600;
}
);
note = sterling;
unicode = 00A3;
},
{
glyphname = dollar;
lastChange = "2017-11-24 23:54:01 +0000";
layers = (
{
layerId = "2D832C46-3B02-4AC2-BC3D-33D8B64E8998";
paths = (
{
closed = 1;
nodes = (
"192 -113 LINE",
"304 -113 LINE",
"321 -10 LINE",
"475 5 OFFCURVE",
"562 97 OFFCURVE",
"562 227 CURVE SMOOTH",
"562 322 OFFCURVE",
"495 373 OFFCURVE",
"395 404 CURVE SMOOTH",
"381 408 LINE",
"410 582 LINE",
"448 572 OFFCURVE",
"476 552 OFFCURVE",
"499 521 CURVE",
"591 611 LINE",
"560 655 OFFCURVE",
"506 688 OFFCURVE",
"440 702 CURVE",
"458 811 LINE",
"346 811 LINE",
"329 708 LINE",
"180 696 OFFCURVE",
"90 610 OFFCURVE",
"90 485 CURVE SMOOTH",
"90 398 OFFCURVE",
"144 338 OFFCURVE",
"251 307 CURVE SMOOTH",
"271 301 LINE",
"239 111 LINE",
"189 121 OFFCURVE",
"139 146 OFFCURVE",
"108 190 CURVE",
"18 98 LINE",
"52 42 OFFCURVE",
"123 5 OFFCURVE",
"210 -7 CURVE"
);
},
{
closed = 1;
nodes = (
"232 540 OFFCURVE",
"259 573 OFFCURVE",
"318 584 CURVE",
"294 436 LINE",
"251 450 OFFCURVE",
"232 465 OFFCURVE",
"232 501 CURVE SMOOTH"
);
},
{
closed = 1;
nodes = (
"419 160 OFFCURVE",
"391 126 OFFCURVE",
"332 113 CURVE",
"358 275 LINE",
"399 260 OFFCURVE",
"419 243 OFFCURVE",
"419 211 CURVE SMOOTH"
);
}
);
width = 600;
}
);
note = dollar;
unicode = 0024;
},
{
glyphname = yen;
lastChange = "2017-11-24 23:54:01 +0000";
layers = (
{
layerId = "2D832C46-3B02-4AC2-BC3D-33D8B64E8998";
paths = (
{
closed = 1;
nodes = (
"19 0 LINE",
"497 0 LINE",
"516 112 LINE",
"347 112 LINE",
"363 212 LINE",
"532 212 LINE",
"551 324 LINE",
"423 324 LINE",
"673 698 LINE",
"514 698 LINE",
"322 391 LINE",
"314 391 LINE",
"225 698 LINE",
"75 698 LINE",
"201 324 LINE",
"74 324 LINE",
"55 212 LINE",
"223 212 LINE",
"207 112 LINE",
"38 112 LINE"
);
}
);
width = 600;
}
);
note = yen;
unicode = 00A5;
},
{
glyphname = uni0E3F;
lastChange = "2017-11-24 23:54:01 +0000";
layers = (
{
layerId = "2D832C46-3B02-4AC2-BC3D-33D8B64E8998";
paths = (
{
closed = 1;
nodes = (
"315 0 LINE",
"320 0 LINE SMOOTH",
"468 0 OFFCURVE",
"559 86 OFFCURVE",
"559 217 CURVE SMOOTH",
"559 295 OFFCURVE",
"513 338 OFFCURVE",
"434 354 CURVE",
"434 359 LINE",
"535 379 OFFCURVE",
"590 441 OFFCURVE",
"590 537 CURVE SMOOTH",
"590 625 OFFCURVE",
"534 686 OFFCURVE",
"431 696 CURVE",
"450 811 LINE",
"338 811 LINE",
"319 698 LINE",
"140 698 LINE",
"25 0 LINE",
"203 0 LINE",
"184 -113 LINE",
"296 -113 LINE"
);
},
{
closed = 1;
nodes = (
"223 402 LINE",
"255 594 LINE",
"311 594 LINE",
"279 402 LINE"
);
},
{
closed = 1;
nodes = (
"450 524 OFFCURVE",
"449 516 OFFCURVE",
"447 504 CURVE SMOOTH",
"442 474 LINE SMOOTH",
"435 432 OFFCURVE",
"414 412 OFFCURVE",
"372 405 CURVE",
"403 591 LINE",
"433 584 OFFCURVE",
"450 566 OFFCURVE",
"450 533 CURVE SMOOTH"
);
},
{
closed = 1;
nodes = (
"173 104 LINE",
"206 303 LINE",
"262 303 LINE",
"229 104 LINE"
);
},
{
closed = 1;
nodes = (
"422 232 OFFCURVE",
"420 217 OFFCURVE",
"418 205 CURVE SMOOTH",
"413 175 LINE SMOOTH",
"405 128 OFFCURVE",
"374 109 OFFCURVE",
"322 105 CURVE",
"355 303 LINE",
"402 299 OFFCURVE",
"422 279 OFFCURVE",
"422 238 CURVE SMOOTH"
);
}
);
width = 600;
}
);
note = uni0E3F;
unicode = 0E3F;
},
{
glyphname = uni20A1;
lastChange = "2017-11-24 23:54:01 +0000";
layers = (
{
layerId = "2D832C46-3B02-4AC2-BC3D-33D8B64E8998";
paths = (
{
closed = 1;
nodes = (
"249 -113 LINE",
"320 -113 LINE",
"345 -6 LINE",
"432 11 OFFCURVE",
"501 58 OFFCURVE",
"553 149 CURVE",
"450 202 LINE",
"428 161 OFFCURVE",
"403 134 OFFCURVE",
"374 119 CURVE",
"477 553 LINE",
"488 537 OFFCURVE",
"495 518 OFFCURVE",
"500 494 CURVE",
"617 546 LINE",
"600 617 OFFCURVE",
"565 663 OFFCURVE",
"510 688 CURVE",
"539 811 LINE",
"468 811 LINE",
"444 706 LINE",
"429 708 OFFCURVE",
"412 710 OFFCURVE",
"395 710 CURVE",
"419 811 LINE",
"348 811 LINE",
"324 704 LINE",
"139 670 OFFCURVE",
"48 490 OFFCURVE",
"48 255 CURVE SMOOTH",
"48 137 OFFCURVE",
"85 53 OFFCURVE",
"159 14 CURVE",
"129 -113 LINE",
"200 -113 LINE",
"224 -8 LINE",
"239 -10 OFFCURVE",
"256 -12 OFFCURVE",
"273 -12 CURVE"
);
},
{
closed = 1;
nodes = (
"372 598 LINE SMOOTH",
"388 598 OFFCURVE",
"405 596 OFFCURVE",
"418 593 CURVE",
"301 99 LINE",
"274 99 OFFCURVE",
"261 101 OFFCURVE",
"250 104 CURVE",
"368 598 LINE"
);
},
{
closed = 1;
nodes = (
"182 241 OFFCURVE",
"184 263 OFFCURVE",
"188 287 CURVE SMOOTH",
"209 411 LINE SMOOTH",
"222 489 OFFCURVE",
"247 549 OFFCURVE",
"294 578 CURVE",
"193 153 LINE",
"185 171 OFFCURVE",
"182 194 OFFCURVE",
"182 220 CURVE SMOOTH"
);
}
);
width = 600;
}
);
note = uni20A1;
unicode = 20A1;
},
{
glyphname = uni20A4;
lastChange = "2017-11-24 23:54:01 +0000";
layers = (
{
layerId = "2D832C46-3B02-4AC2-BC3D-33D8B64E8998";
paths = (
{
closed = 1;
nodes = (
"543 -12 OFFCURVE",
"578 47 OFFCURVE",
"578 113 CURVE SMOOTH",
"578 140 OFFCURVE",
"572 166 OFFCURVE",
"557 212 CURVE SMOOTH",
"547 242 LINE",
"448 216 LINE",
"465 127 LINE",
"454 114 LINE",
"217 188 LINE",
"221 195 LINE",
"250 203 OFFCURVE",
"278 219 OFFCURVE",
"294 246 CURVE",
"417 246 LINE",
"431 325 LINE",
"301 325 LINE",
"298 346 OFFCURVE",
"293 365 OFFCURVE",
"288 386 CURVE",
"442 386 LINE",
"456 465 LINE",
"276 465 LINE",
"276 466 LINE SMOOTH",
"276 544 OFFCURVE",
"325 583 OFFCURVE",
"389 583 CURVE SMOOTH",
"441 583 OFFCURVE",
"473 557 OFFCURVE",
"496 512 CURVE",
"610 583 LINE",
"567 664 OFFCURVE",
"496 710 OFFCURVE",
"395 710 CURVE SMOOTH",
"249 710 OFFCURVE",
"133 613 OFFCURVE",
"133 473 CURVE SMOOTH",
"133 465 LINE",
"81 465 LINE",
"67 386 LINE",
"142 386 LINE",
"146 364 OFFCURVE",
"151 345 OFFCURVE",
"154 325 CURVE",
"56 325 LINE",
"42 246 LINE",
"155 246 LINE",
"144 196 OFFCURVE",
"105 163 OFFCURVE",
"50 141 CURVE",
"28 0 LINE",
"153 0 LINE",
"165 82 LINE",
"317 24 LINE SMOOTH",
"374 2 OFFCURVE",
"429 -12 OFFCURVE",
"466 -12 CURVE SMOOTH"
);
}
);
width = 600;
}
);
note = uni20A4;
unicode = 20A4;
},
{
glyphname = uni20A6;
lastChange = "2017-11-24 23:54:01 +0000";
layers = (
{
layerId = "2D832C46-3B02-4AC2-BC3D-33D8B64E8998";
paths = (
{
closed = 1;
nodes = (
"309 0 LINE",
"488 0 LINE",
"526 231 LINE",
"573 231 LINE",
"588 324 LINE",
"542 324 LINE",
"550 374 LINE",
"596 374 LINE",
"611 467 LINE",
"566 467 LINE",
"604 698 LINE",
"496 698 LINE",
"456 459 LINE",
"353 459 LINE",
"325 698 LINE",
"146 698 LINE",
"108 467 LINE",
"61 467 LINE",
"46 374 LINE",
"92 374 LINE",
"84 324 LINE",
"38 324 LINE",
"23 231 LINE",
"68 231 LINE",
"30 0 LINE",
"138 0 LINE",
"177 239 LINE",
"281 239 LINE"
);
},
{
closed = 1;
nodes = (
"190 317 LINE",
"232 566 LINE",
"242 566 LINE",
"272 317 LINE"
);
},
{
closed = 1;
nodes = (
"362 381 LINE",
"443 381 LINE",
"402 132 LINE",
"392 132 LINE"
);
}
);
width = 600;
}
);
note = uni20A6;
unicode = 20A6;
},
{
glyphname = uni20A8;
lastChange = "2017-11-24 23:54:01 +0000";
layers = (
{
layerId = "2D832C46-3B02-4AC2-BC3D-33D8B64E8998";
paths = (
{
closed = 1;
nodes = (
"113 0 LINE",
"167 321 LINE",
"180 321 LINE",
"206 138 LINE SMOOTH",
"220 36 OFFCURVE",
"292 -12 OFFCURVE",
"387 -12 CURVE SMOOTH",
"524 -12 OFFCURVE",
"572 54 OFFCURVE",
"572 147 CURVE SMOOTH",
"572 189 OFFCURVE",
"556 223 OFFCURVE",
"527 260 CURVE SMOOTH",
"513 278 LINE SMOOTH",
"497 298 OFFCURVE",
"488 313 OFFCURVE",
"488 332 CURVE SMOOTH",
"488 362 OFFCURVE",
"506 380 OFFCURVE",
"532 380 CURVE SMOOTH",
"552 380 OFFCURVE",
"566 374 OFFCURVE",
"580 363 CURVE",
"627 449 LINE",
"602 467 OFFCURVE",
"568 476 OFFCURVE",
"532 476 CURVE SMOOTH",
"442 476 OFFCURVE",
"369 413 OFFCURVE",
"369 316 CURVE SMOOTH",
"369 274 OFFCURVE",
"387 240 OFFCURVE",
"416 204 CURVE SMOOTH",
"428 189 LINE SMOOTH",
"445 168 OFFCURVE",
"453 152 OFFCURVE",
"453 135 CURVE SMOOTH",
"453 103 OFFCURVE",
"435 85 OFFCURVE",
"400 85 CURVE SMOOTH",
"354 85 OFFCURVE",
"337 117 OFFCURVE",
"329 167 CURVE SMOOTH",
"299 346 LINE",
"375 384 OFFCURVE",
"415 467 OFFCURVE",
"415 551 CURVE SMOOTH",
"415 644 OFFCURVE",
"362 698 OFFCURVE",
"261 698 CURVE SMOOTH",
"112 698 LINE",
"-5 0 LINE"
);
},
{
closed = 1;
nodes = (
"183 418 LINE",
"213 598 LINE",
"247 598 LINE SMOOTH",
"281 598 OFFCURVE",
"297 585 OFFCURVE",
"297 552 CURVE SMOOTH",
"297 545 OFFCURVE",
"296 536 OFFCURVE",
"295 529 CURVE SMOOTH",
"288 487 LINE SMOOTH",
"280 438 OFFCURVE",
"259 418 OFFCURVE",
"217 418 CURVE SMOOTH"
);
}
);
width = 600;
}
);
note = uni20A8;
unicode = 20A8;
},
{
glyphname = uni20A9;
lastChange = "2017-11-24 23:54:01 +0000";
layers = (
{
layerId = "2D832C46-3B02-4AC2-BC3D-33D8B64E8998";
paths = (
{
closed = 1;
nodes = (
"34 0 LINE",
"214 0 LINE",
"319 444 LINE",
"343 444 LINE",
"300 0 LINE",
"480 0 LINE",
"534 270 LINE",
"594 270 LINE",
"609 361 LINE",
"552 361 LINE",
"567 437 LINE",
"622 437 LINE",
"637 529 LINE",
"585 529 LINE",
"620 698 LINE",
"497 698 LINE",
"467 522 LINE",
"224 522 LINE",
"254 698 LINE",
"128 698 LINE",
"105 529 LINE",
"53 529 LINE",
"38 437 LINE",
"93 437 LINE",
"82 361 LINE",
"26 361 LINE",
"11 270 LINE",
"70 270 LINE"
);
},
{
closed = 1;
nodes = (
"145 93 LINE",
"203 444 LINE",
"253 444 LINE",
"170 93 LINE"
);
},
{
closed = 1;
nodes = (
"379 93 LINE",
"412 444 LINE",
"462 444 LINE",
"404 93 LINE"
);
}
);
width = 600;
}
);
note = uni20A9;
unicode = 20A9;
},
{
glyphname = uni20AA;
lastChange = "2017-11-24 23:54:01 +0000";
layers = (
{
layerId = "2D832C46-3B02-4AC2-BC3D-33D8B64E8998";
paths = (
{
closed = 1;
nodes = (
"142 0 LINE",
"365 0 LINE SMOOTH",
"466 0 OFFCURVE",
"538 68 OFFCURVE",
"560 200 CURVE SMOOTH",
"643 698 LINE",
"541 698 LINE",
"458 198 LINE SMOOTH",
"445 119 OFFCURVE",
"393 89 OFFCURVE",
"337 89 CURVE SMOOTH",
"252 89 LINE",
"326 532 LINE",
"231 532 LINE"
);
},
{
closed = 1;
nodes = (
"-7 0 LINE",
"95 0 LINE",
"196 609 LINE",
"285 609 LINE SMOOTH",
"334 609 OFFCURVE",
"368 587 OFFCURVE",
"368 532 CURVE SMOOTH",
"368 523 OFFCURVE",
"367 513 OFFCURVE",
"365 499 CURVE SMOOTH",
"310 166 LINE",
"405 166 LINE",
"461 500 LINE SMOOTH",
"464 517 OFFCURVE",
"465 533 OFFCURVE",
"465 548 CURVE SMOOTH",
"465 649 OFFCURVE",
"398 698 OFFCURVE",
"294 698 CURVE SMOOTH",
"109 698 LINE"
);
}
);
width = 600;
}
);
note = uni20AA;
unicode = 20AA;
},
{
glyphname = uni20AB;
lastChange = "2017-11-24 23:54:01 +0000";
layers = (
{
layerId = "2D832C46-3B02-4AC2-BC3D-33D8B64E8998";
paths = (
{
closed = 1;
nodes = (
"366 165 LINE",
"504 165 LINE",
"574 585 LINE",
"624 585 LINE",
"642 689 LINE",
"591 689 LINE",
"600 740 LINE",
"462 740 LINE",
"453 689 LINE",
"326 689 LINE",
"308 585 LINE",
"436 585 LINE",
"413 448 LINE",
"406 448 LINE",
"393 500 OFFCURVE",
"364 545 OFFCURVE",
"286 545 CURVE SMOOTH",
"170 545 OFFCURVE",
"82 467 OFFCURVE",
"82 309 CURVE SMOOTH",
"82 205 OFFCURVE",
"139 155 OFFCURVE",
"225 155 CURVE SMOOTH",
"300 155 OFFCURVE",
"343 200 OFFCURVE",
"374 252 CURVE",
"380 252 LINE"
);
},
{
closed = 1;
nodes = (
"249 258 OFFCURVE",
"226 284 OFFCURVE",
"226 322 CURVE SMOOTH",
"226 332 OFFCURVE",
"227 341 OFFCURVE",
"231 360 CURVE SMOOTH",
"241 407 OFFCURVE",
"271 442 OFFCURVE",
"327 442 CURVE SMOOTH",
"386 442 OFFCURVE",
"406 405 OFFCURVE",
"401 375 CURVE SMOOTH",
"392 321 LINE SMOOTH",
"387 291 OFFCURVE",
"350 258 OFFCURVE",
"297 258 CURVE SMOOTH"
);
},
{
closed = 1;
nodes = (
"499 0 LINE",
"517 106 LINE",
"58 106 LINE",
"40 0 LINE"
);
}
);
width = 600;
}
);
note = uni20AB;
unicode = 20AB;
},
{
glyphname = uni20AD;
lastChange = "2017-11-24 23:54:01 +0000";
layers = (
{
layerId = "2D832C46-3B02-4AC2-BC3D-33D8B64E8998";
paths = (
{
closed = 1;
nodes = (
"225 297 LINE",
"268 297 LINE",
"398 0 LINE",
"557 0 LINE",
"424 297 LINE",
"562 297 LINE",
"582 415 LINE",
"436 415 LINE",
"658 698 LINE",
"498 698 LINE",
"284 415 LINE",
"245 415 LINE",
"292 698 LINE",
"144 698 LINE",
"97 415 LINE",
"46 415 LINE",
"26 297 LINE",
"77 297 LINE",
"28 0 LINE",
"176 0 LINE"
);
}
);
width = 600;
}
);
note = uni20AD;
unicode = 20AD;
},
{
glyphname = uni20AE;
lastChange = "2017-11-24 23:54:01 +0000";
layers = (
{
layerId = "2D832C46-3B02-4AC2-BC3D-33D8B64E8998";
paths = (
{
closed = 1;
nodes = (
"497 235 LINE",
"514 335 LINE",
"374 278 LINE",
"388 361 LINE",
"526 418 LINE",
"543 518 LINE",
"405 462 LINE",
"425 582 LINE",
"631 582 LINE",
"650 698 LINE",
"98 698 LINE",
"79 582 LINE",
"285 582 LINE",
"255 401 LINE",
"117 344 LINE",
"100 244 LINE",
"238 300 LINE",
"224 217 LINE",
"86 161 LINE",
"69 61 LINE",
"208 118 LINE",
"188 0 LINE",
"328 0 LINE",
"358 179 LINE"
);
}
);
width = 600;
}
);
note = uni20AE;
unicode = 20AE;
},
{
glyphname = uni20B1;
lastChange = "2017-11-24 23:54:01 +0000";
layers = (
{
layerId = "2D832C46-3B02-4AC2-BC3D-33D8B64E8998";
paths = (
{
closed = 1;
nodes = (
"34 0 LINE",
"174 0 LINE",
"203 172 LINE",
"307 172 LINE SMOOTH",
"425 172 OFFCURVE",
"502 220 OFFCURVE",
"540 318 CURVE",
"590 318 LINE",
"605 411 LINE",
"563 411 LINE",
"565 427 OFFCURVE",
"567 443 OFFCURVE",
"568 461 CURVE",
"614 461 LINE",
"629 554 LINE",
"565 554 LINE",
"550 655 OFFCURVE",
"485 698 OFFCURVE",
"382 698 CURVE SMOOTH",
"151 698 LINE",
"127 554 LINE",
"75 554 LINE",
"60 461 LINE",
"111 461 LINE",
"103 411 LINE",
"51 411 LINE",
"36 318 LINE",
"87 318 LINE"
);
},
{
closed = 1;
nodes = (
"265 549 LINE",
"275 605 LINE",
"353 605 LINE SMOOTH",
"407 605 OFFCURVE",
"431 586 OFFCURVE",
"434 549 CURVE"
);
},
{
closed = 1;
nodes = (
"242 407 LINE",
"252 465 LINE",
"423 465 LINE",
"414 407 LINE"
);
},
{
closed = 1;
nodes = (
"219 266 LINE",
"228 323 LINE",
"398 323 LINE",
"384 282 OFFCURVE",
"355 266 OFFCURVE",
"301 266 CURVE SMOOTH"
);
}
);
width = 600;
}
);
note = uni20B1;
unicode = 20B1;
},
{
glyphname = uni20B2;
lastChange = "2017-11-24 23:54:01 +0000";
layers = (
{
layerId = "2D832C46-3B02-4AC2-BC3D-33D8B64E8998";
paths = (
{
closed = 1;
nodes = (
"119 -113 LINE",
"234 -113 LINE",
"264 -13 LINE",
"422 -11 OFFCURVE",
"514 76 OFFCURVE",
"541 234 CURVE SMOOTH",
"564 372 LINE",
"371 372 LINE",
"432 572 LINE",
"453 553 OFFCURVE",
"463 524 OFFCURVE",
"467 493 CURVE",
"585 533 LINE",
"574 612 OFFCURVE",
"537 665 OFFCURVE",
"476 691 CURVE",
"519 811 LINE",
"399 811 LINE",
"368 710 LINE",
"152 706 OFFCURVE",
"41 507 OFFCURVE",
"41 252 CURVE SMOOTH",
"41 132 OFFCURVE",
"80 48 OFFCURVE",
"157 10 CURVE"
);
},
{
closed = 1;
nodes = (
"181 227 OFFCURVE",
"183 250 OFFCURVE",
"189 286 CURVE SMOOTH",
"209 406 LINE SMOOTH",
"226 513 OFFCURVE",
"260 585 OFFCURVE",
"342 595 CURVE",
"203 131 LINE",
"188 150 OFFCURVE",
"181 177 OFFCURVE",
"181 214 CURVE SMOOTH"
);
},
{
closed = 1;
nodes = (
"340 267 LINE",
"419 267 LINE",
"412 225 LINE SMOOTH",
"398 141 OFFCURVE",
"348 103 OFFCURVE",
"290 101 CURVE"
);
}
);
width = 600;
}
);
note = uni20B2;
unicode = 20B2;
},
{
glyphname = uni20B4;
lastChange = "2017-11-24 23:54:01 +0000";
layers = (
{
layerId = "2D832C46-3B02-4AC2-BC3D-33D8B64E8998";
paths = (
{
closed = 1;
nodes = (
"380 -12 OFFCURVE",
"455 18 OFFCURVE",
"509 71 CURVE",
"448 169 LINE",
"398 123 OFFCURVE",
"350 102 OFFCURVE",
"301 102 CURVE SMOOTH",
"245 102 OFFCURVE",
"213 130 OFFCURVE",
"213 185 CURVE SMOOTH",
"213 205 OFFCURVE",
"217 220 OFFCURVE",
"224 233 CURVE",
"570 233 LINE",
"584 314 LINE",
"319 314 LINE",
"320 320 LINE",
"490 404 LINE",
"598 404 LINE",
"612 485 LINE",
"541 485 LINE",
"546 501 OFFCURVE",
"550 519 OFFCURVE",
"550 540 CURVE SMOOTH",
"550 631 OFFCURVE",
"473 710 OFFCURVE",
"343 710 CURVE SMOOTH",
"265 710 OFFCURVE",
"196 682 OFFCURVE",
"146 633 CURVE",
"207 539 LINE",
"245 573 OFFCURVE",
"284 594 OFFCURVE",
"330 594 CURVE SMOOTH",
"384 594 OFFCURVE",
"412 565 OFFCURVE",
"412 511 CURVE SMOOTH",
"412 501 OFFCURVE",
"411 493 OFFCURVE",
"409 485 CURVE",
"67 485 LINE",
"53 404 LINE",
"318 404 LINE",
"318 398 LINE",
"147 314 LINE",
"38 314 LINE",
"24 233 LINE",
"92 233 LINE",
"84 215 OFFCURVE",
"81 196 OFFCURVE",
"81 174 CURVE SMOOTH",
"81 71 OFFCURVE",
"150 -12 OFFCURVE",
"293 -12 CURVE SMOOTH"
);
}
);
width = 600;
}
);
note = uni20B4;
unicode = 20B4;
},
{
glyphname = uni20B5;
lastChange = "2017-11-24 23:54:01 +0000";
layers = (
{
layerId = "2D832C46-3B02-4AC2-BC3D-33D8B64E8998";
paths = (
{
closed = 1;
nodes = (
"125 -113 LINE",
"239 -113 LINE",
"270 -12 LINE",
"283 -12 LINE SMOOTH",
"422 -12 OFFCURVE",
"503 62 OFFCURVE",
"553 182 CURVE",
"429 219 LINE",
"405 158 OFFCURVE",
"369 106 OFFCURVE",
"295 101 CURVE",
"443 578 LINE",
"467 559 OFFCURVE",
"475 530 OFFCURVE",
"481 496 CURVE",
"603 535 LINE",
"594 605 OFFCURVE",
"564 665 OFFCURVE",
"488 693 CURVE",
"524 811 LINE",
"410 811 LINE",
"380 710 LINE",
"377 710 LINE SMOOTH",
"164 710 OFFCURVE",
"48 501 OFFCURVE",
"48 255 CURVE SMOOTH",
"48 136 OFFCURVE",
"86 52 OFFCURVE",
"164 13 CURVE"
);
},
{
closed = 1;
nodes = (
"189 237 OFFCURVE",
"191 260 OFFCURVE",
"196 287 CURVE SMOOTH",
"217 412 LINE SMOOTH",
"236 521 OFFCURVE",
"278 587 OFFCURVE",
"353 597 CURVE",
"210 134 LINE",
"196 153 OFFCURVE",
"189 180 OFFCURVE",
"189 216 CURVE SMOOTH"
);
}
);
width = 600;
}
);
note = uni20B5;
unicode = 20B5;
},
{
glyphname = uni20B8;
lastChange = "2017-11-24 23:54:01 +0000";
layers = (
{
layerId = "2D832C46-3B02-4AC2-BC3D-33D8B64E8998";
paths = (
{
closed = 1;
nodes = (
"611 594 LINE",
"628 698 LINE",
"118 698 LINE",
"101 594 LINE"
);
},
{
closed = 1;
nodes = (
"582 418 LINE",
"599 522 LINE",
"89 522 LINE",
"72 418 LINE",
"254 418 LINE",
"184 0 LINE",
"332 0 LINE",
"402 418 LINE"
);
}
);
width = 600;
}
);
note = uni20B8;
unicode = 20B8;
},
{
glyphname = uni20B9;
lastChange = "2017-11-24 23:54:01 +0000";
layers = (
{
layerId = "2D832C46-3B02-4AC2-BC3D-33D8B64E8998";
paths = (
{
closed = 1;
nodes = (
"483 0 LINE",
"316 263 LINE",
"399 291 OFFCURVE",
"452 350 OFFCURVE",
"467 428 CURVE",
"593 428 LINE",
"608 520 LINE",
"467 520 LINE",
"458 560 OFFCURVE",
"435 579 OFFCURVE",
"409 585 CURVE",
"410 590 LINE",
"620 590 LINE",
"638 698 LINE",
"121 698 LINE",
"103 590 LINE",
"241 590 LINE",
"291 588 OFFCURVE",
"322 567 OFFCURVE",
"330 520 CURVE",
"91 520 LINE",
"76 428 LINE",
"320 428 LINE",
"302 386 OFFCURVE",
"264 355 OFFCURVE",
"192 355 CURVE SMOOTH",
"63 355 LINE",
"45 247 LINE",
"164 247 LINE",
"317 0 LINE"
);
}
);
width = 600;
}
);
note = uni20B9;
unicode = 20B9;
},
{
glyphname = uni20BA;
lastChange = "2017-11-24 23:54:01 +0000";
layers = (
{
layerId = "2D832C46-3B02-4AC2-BC3D-33D8B64E8998";
paths = (
{
closed = 1;
nodes = (
"68 0 LINE",
"278 0 LINE SMOOTH",
"456 0 OFFCURVE",
"562 115 OFFCURVE",
"583 305 CURVE",
"450 305 LINE",
"428 170 OFFCURVE",
"377 120 OFFCURVE",
"286 120 CURVE SMOOTH",
"226 120 LINE",
"250 264 LINE",
"424 339 LINE",
"441 443 LINE",
"268 368 LINE",
"279 434 LINE",
"453 509 LINE",
"470 613 LINE",
"296 538 LINE",
"322 698 LINE",
"184 698 LINE",
"147 474 LINE",
"72 442 LINE",
"54 338 LINE",
"130 370 LINE",
"119 304 LINE",
"44 272 LINE",
"26 168 LINE",
"102 200 LINE"
);
}
);
width = 600;
}
);
note = uni20BA;
unicode = 20BA;
},
{
glyphname = uni20BD;
lastChange = "2017-11-24 23:54:01 +0000";
layers = (
{
layerId = "2D832C46-3B02-4AC2-BC3D-33D8B64E8998";
paths = (
{
closed = 1;
nodes = (
"425 115 LINE",
"443 222 LINE",
"237 222 LINE",
"246 276 LINE",
"356 276 LINE SMOOTH",
"514 276 OFFCURVE",
"608 376 OFFCURVE",
"608 521 CURVE SMOOTH",
"608 628 OFFCURVE",
"542 698 OFFCURVE",
"415 698 CURVE SMOOTH",
"168 698 LINE",
"115 383 LINE",
"55 383 LINE",
"37 276 LINE",
"97 276 LINE",
"88 222 LINE",
"28 222 LINE",
"10 115 LINE",
"70 115 LINE",
"51 0 LINE",
"200 0 LINE",
"219 115 LINE"
);
},
{
closed = 1;
nodes = (
"298 588 LINE",
"373 588 LINE SMOOTH",
"430 588 OFFCURVE",
"454 569 OFFCURVE",
"454 529 CURVE SMOOTH",
"454 519 OFFCURVE",
"452 509 OFFCURVE",
"451 503 CURVE SMOOTH",
"445 467 LINE SMOOTH",
"435 407 OFFCURVE",
"405 383 OFFCURVE",
"337 383 CURVE SMOOTH",
"264 383 LINE"
);
}
);
width = 600;
}
);
note = uni20BD;
unicode = 20BD;
},
{
glyphname = uni20BF;
lastChange = "2017-11-24 23:54:01 +0000";
layers = (
{
layerId = "2D832C46-3B02-4AC2-BC3D-33D8B64E8998";
paths = (
{
closed = 1;
nodes = (
"252 -113 LINE",
"335 -113 LINE",
"354 3 LINE",
"473 21 OFFCURVE",
"544 101 OFFCURVE",
"544 217 CURVE SMOOTH",
"544 291 OFFCURVE",
"503 336 OFFCURVE",
"430 350 CURVE",
"431 355 LINE",
"528 379 OFFCURVE",
"576 441 OFFCURVE",
"576 537 CURVE SMOOTH",
"576 609 OFFCURVE",
"539 664 OFFCURVE",
"469 686 CURVE",
"489 811 LINE",
"406 811 LINE",
"388 698 LINE",
"326 698 LINE",
"345 811 LINE",
"262 811 LINE",
"243 698 LINE",
"152 698 LINE",
"35 0 LINE",
"127 0 LINE",
"108 -113 LINE",
"191 -113 LINE",
"210 0 LINE",
"271 0 LINE"
);
},
{
closed = 1;
nodes = (
"279 599 LINE",
"343 599 LINE SMOOTH",
"396 599 OFFCURVE",
"426 583 OFFCURVE",
"426 538 CURVE SMOOTH",
"426 527 OFFCURVE",
"424 518 OFFCURVE",
"422 506 CURVE SMOOTH",
"417 476 LINE SMOOTH",
"408 422 OFFCURVE",
"376 402 OFFCURVE",
"303 402 CURVE SMOOTH",
"246 402 LINE"
);
},
{
closed = 1;
nodes = (
"230 303 LINE",
"312 303 LINE SMOOTH",
"369 303 OFFCURVE",
"397 284 OFFCURVE",
"397 246 CURVE SMOOTH",
"397 233 OFFCURVE",
"394 213 OFFCURVE",
"392 201 CURVE SMOOTH",
"388 177 LINE SMOOTH",
"379 123 OFFCURVE",
"337 100 OFFCURVE",
"272 100 CURVE SMOOTH",
"196 100 LINE"
);
}
);
width = 600;
}
);
note = uni20BF;
unicode = 20BF;
},
{
glyphname = fi;
lastChange = "2017-11-24 23:54:01 +0000";
layers = (
{
layerId = "2D832C46-3B02-4AC2-BC3D-33D8B64E8998";
paths = (
{
closed = 1;
nodes = (
"34 0 LINE",
"180 0 LINE",
"247 402 LINE",
"413 402 LINE",
"346 0 LINE",
"492 0 LINE",
"578 516 LINE",
"266 516 LINE",
"285 626 LINE",
"391 626 LINE",
"410 740 LINE",
"309 740 LINE SMOOTH",
"206 740 OFFCURVE",
"148 682 OFFCURVE",
"134 599 CURVE SMOOTH",
"120 516 LINE",
"75 516 LINE",
"56 402 LINE",
"101 402 LINE"
);
},
{
closed = 1;
nodes = (
"587 584 OFFCURVE",
"611 611 OFFCURVE",
"617 650 CURVE SMOOTH",
"622 680 OFFCURVE",
"622 683 OFFCURVE",
"622 690 CURVE SMOOTH",
"622 725 OFFCURVE",
"600 751 OFFCURVE",
"540 751 CURVE SMOOTH",
"476 751 OFFCURVE",
"452 724 OFFCURVE",
"446 685 CURVE SMOOTH",
"441 655 OFFCURVE",
"441 652 OFFCURVE",
"441 645 CURVE SMOOTH",
"441 610 OFFCURVE",
"463 584 OFFCURVE",
"523 584 CURVE SMOOTH"
);
}
);
width = 600;
}
);
note = fi;
unicode = FB01;
},
{
glyphname = fl;
lastChange = "2017-11-24 23:54:01 +0000";
layers = (
{
layerId = "2D832C46-3B02-4AC2-BC3D-33D8B64E8998";
paths = (
{
closed = 1;
nodes = (
"34 0 LINE",
"180 0 LINE",
"247 402 LINE",
"356 402 LINE",
"375 516 LINE",
"266 516 LINE",
"285 626 LINE",
"392 626 LINE",
"411 740 LINE",
"309 740 LINE SMOOTH",
"206 740 OFFCURVE",
"148 683 OFFCURVE",
"134 599 CURVE SMOOTH",
"120 516 LINE",
"75 516 LINE",
"56 402 LINE",
"101 402 LINE"
);
},
{
closed = 1;
nodes = (
"346 0 LINE",
"492 0 LINE",
"615 740 LINE",
"469 740 LINE"
);
}
);
width = 600;
}
);
note = fl;
unicode = FB02;
},
{
glyphname = aacute;
lastChange = "2017-11-24 23:54:01 +0000";
layers = (
{
layerId = "2D832C46-3B02-4AC2-BC3D-33D8B64E8998";
paths = (
{
closed = 1;
nodes = (
"498 746 LINE",
"384 806 LINE",
"269 616 LINE",
"355 570 LINE"
);
},
{
closed = 1;
nodes = (
"493 0 LINE",
"579 516 LINE",
"433 516 LINE",
"417 420 LINE",
"410 420 LINE",
"395 488 OFFCURVE",
"356 528 OFFCURVE",
"275 528 CURVE SMOOTH",
"132 528 OFFCURVE",
"38 393 OFFCURVE",
"38 188 CURVE SMOOTH",
"38 67 OFFCURVE",
"80 -12 OFFCURVE",
"189 -12 CURVE SMOOTH",
"277 -12 OFFCURVE",
"323 44 OFFCURVE",
"362 123 CURVE",
"367 123 LINE",
"347 0 LINE"
);
},
{
closed = 1;
nodes = (
"204 101 OFFCURVE",
"187 139 OFFCURVE",
"186 188 CURVE",
"186 205 OFFCURVE",
"188 221 OFFCURVE",
"190 233 CURVE SMOOTH",
"200 293 LINE SMOOTH",
"213 371 OFFCURVE",
"250 415 OFFCURVE",
"322 415 CURVE SMOOTH",
"385 415 OFFCURVE",
"411 384 OFFCURVE",
"402 330 CURVE SMOOTH",
"388 247 LINE SMOOTH",
"381 204 OFFCURVE",
"357 169 OFFCURVE",
"341 150 CURVE SMOOTH",
"317 120 OFFCURVE",
"290 101 OFFCURVE",
"254 101 CURVE SMOOTH"
);
}
);
width = 600;
}
);
note = aacute;
unicode = 00E1;
},
{
glyphname = abreve;
lastChange = "2017-11-24 23:54:01 +0000";
layers = (
{
layerId = "2D832C46-3B02-4AC2-BC3D-33D8B64E8998";
paths = (
{
closed = 1;
nodes = (
"464 570 OFFCURVE",
"521 655 OFFCURVE",
"564 740 CURVE",
"481 782 LINE",
"455 747 LINE SMOOTH",
"419 698 OFFCURVE",
"397 673 OFFCURVE",
"361 673 CURVE SMOOTH",
"319 673 OFFCURVE",
"301 700 OFFCURVE",
"277 745 CURVE SMOOTH",
"257 782 LINE",
"176 740 LINE",
"197 658 OFFCURVE",
"242 570 OFFCURVE",
"355 570 CURVE SMOOTH"
);
},
{
closed = 1;
nodes = (
"493 0 LINE",
"579 516 LINE",
"433 516 LINE",
"417 420 LINE",
"410 420 LINE",
"395 488 OFFCURVE",
"356 528 OFFCURVE",
"275 528 CURVE SMOOTH",
"132 528 OFFCURVE",
"38 393 OFFCURVE",
"38 188 CURVE SMOOTH",
"38 67 OFFCURVE",
"80 -12 OFFCURVE",
"189 -12 CURVE SMOOTH",
"277 -12 OFFCURVE",
"323 44 OFFCURVE",
"362 123 CURVE",
"367 123 LINE",
"347 0 LINE"
);
},
{
closed = 1;
nodes = (
"204 101 OFFCURVE",
"187 139 OFFCURVE",
"186 188 CURVE",
"186 205 OFFCURVE",
"188 221 OFFCURVE",
"190 233 CURVE SMOOTH",
"200 293 LINE SMOOTH",
"213 371 OFFCURVE",
"250 415 OFFCURVE",
"322 415 CURVE SMOOTH",
"385 415 OFFCURVE",
"411 384 OFFCURVE",
"402 330 CURVE SMOOTH",
"388 247 LINE SMOOTH",
"381 204 OFFCURVE",
"357 169 OFFCURVE",
"341 150 CURVE SMOOTH",
"317 120 OFFCURVE",
"290 101 OFFCURVE",
"254 101 CURVE SMOOTH"
);
}
);
width = 600;
}
);
note = abreve;
unicode = 0103;
},
{
glyphname = acircumflex;
lastChange = "2017-11-24 23:54:01 +0000";
layers = (
{
layerId = "2D832C46-3B02-4AC2-BC3D-33D8B64E8998";
paths = (
{
closed = 1;
nodes = (
"311 785 LINE",
"157 627 LINE",
"227 570 LINE",
"361 685 LINE",
"467 570 LINE",
"543 627 LINE",
"435 785 LINE"
);
},
{
closed = 1;
nodes = (
"493 0 LINE",
"579 516 LINE",
"433 516 LINE",
"417 420 LINE",
"410 420 LINE",
"395 488 OFFCURVE",
"356 528 OFFCURVE",
"275 528 CURVE SMOOTH",
"132 528 OFFCURVE",
"38 393 OFFCURVE",
"38 188 CURVE SMOOTH",
"38 67 OFFCURVE",
"80 -12 OFFCURVE",
"189 -12 CURVE SMOOTH",
"277 -12 OFFCURVE",
"323 44 OFFCURVE",
"362 123 CURVE",
"367 123 LINE",
"347 0 LINE"
);
},
{
closed = 1;
nodes = (
"204 101 OFFCURVE",
"187 139 OFFCURVE",
"186 188 CURVE",
"186 205 OFFCURVE",
"188 221 OFFCURVE",
"190 233 CURVE SMOOTH",
"200 293 LINE SMOOTH",
"213 371 OFFCURVE",
"250 415 OFFCURVE",
"322 415 CURVE SMOOTH",
"385 415 OFFCURVE",
"411 384 OFFCURVE",
"402 330 CURVE SMOOTH",
"388 247 LINE SMOOTH",
"381 204 OFFCURVE",
"357 169 OFFCURVE",
"341 150 CURVE SMOOTH",
"317 120 OFFCURVE",
"290 101 OFFCURVE",
"254 101 CURVE SMOOTH"
);
}
);
width = 600;
}
);
note = acircumflex;
unicode = 00E2;
},
{
glyphname = adieresis;
lastChange = "2017-11-24 23:54:01 +0000";
layers = (
{
layerId = "2D832C46-3B02-4AC2-BC3D-33D8B64E8998";
paths = (
{
closed = 1;
nodes = (
"298 592 OFFCURVE",
"319 616 OFFCURVE",
"325 652 CURVE SMOOTH",
"328 670 OFFCURVE",
"330 681 OFFCURVE",
"330 687 CURVE SMOOTH",
"330 718 OFFCURVE",
"310 741 OFFCURVE",
"256 741 CURVE SMOOTH",
"198 741 OFFCURVE",
"177 717 OFFCURVE",
"171 681 CURVE SMOOTH",
"168 663 OFFCURVE",
"166 652 OFFCURVE",
"166 646 CURVE SMOOTH",
"166 615 OFFCURVE",
"186 592 OFFCURVE",
"240 592 CURVE SMOOTH"
);
},
{
closed = 1;
nodes = (
"516 592 OFFCURVE",
"537 616 OFFCURVE",
"543 652 CURVE SMOOTH",
"546 670 OFFCURVE",
"548 681 OFFCURVE",
"548 687 CURVE SMOOTH",
"548 718 OFFCURVE",
"528 741 OFFCURVE",
"474 741 CURVE SMOOTH",
"416 741 OFFCURVE",
"395 717 OFFCURVE",
"389 681 CURVE SMOOTH",
"386 663 OFFCURVE",
"384 652 OFFCURVE",
"384 646 CURVE SMOOTH",
"384 615 OFFCURVE",
"404 592 OFFCURVE",
"458 592 CURVE SMOOTH"
);
},
{
closed = 1;
nodes = (
"493 0 LINE",
"579 516 LINE",
"433 516 LINE",
"417 420 LINE",
"410 420 LINE",
"395 488 OFFCURVE",
"356 528 OFFCURVE",
"275 528 CURVE SMOOTH",
"132 528 OFFCURVE",
"38 393 OFFCURVE",
"38 188 CURVE SMOOTH",
"38 67 OFFCURVE",
"80 -12 OFFCURVE",
"189 -12 CURVE SMOOTH",
"277 -12 OFFCURVE",
"323 44 OFFCURVE",
"362 123 CURVE",
"367 123 LINE",
"347 0 LINE"
);
},
{
closed = 1;
nodes = (
"204 101 OFFCURVE",
"187 139 OFFCURVE",
"186 188 CURVE",
"186 205 OFFCURVE",
"188 221 OFFCURVE",
"190 233 CURVE SMOOTH",
"200 293 LINE SMOOTH",
"213 371 OFFCURVE",
"250 415 OFFCURVE",
"322 415 CURVE SMOOTH",
"385 415 OFFCURVE",
"411 384 OFFCURVE",
"402 330 CURVE SMOOTH",
"388 247 LINE SMOOTH",
"381 204 OFFCURVE",
"357 169 OFFCURVE",
"341 150 CURVE SMOOTH",
"317 120 OFFCURVE",
"290 101 OFFCURVE",
"254 101 CURVE SMOOTH"
);
}
);
width = 600;
}
);
note = adieresis;
unicode = 00E4;
},
{
glyphname = uni1EA1;
lastChange = "2017-11-24 23:54:01 +0000";
layers = (
{
layerId = "2D832C46-3B02-4AC2-BC3D-33D8B64E8998";
paths = (
{
closed = 1;
nodes = (
"281 -202 OFFCURVE",
"303 -179 OFFCURVE",
"309 -143 CURVE SMOOTH",
"312 -125 OFFCURVE",
"314 -114 OFFCURVE",
"314 -107 CURVE SMOOTH",
"314 -76 OFFCURVE",
"296 -53 OFFCURVE",
"242 -53 CURVE SMOOTH",
"187 -53 OFFCURVE",
"165 -76 OFFCURVE",
"159 -112 CURVE SMOOTH",
"156 -130 OFFCURVE",
"154 -141 OFFCURVE",
"154 -148 CURVE SMOOTH",
"154 -179 OFFCURVE",
"172 -202 OFFCURVE",
"226 -202 CURVE SMOOTH"
);
},
{
closed = 1;
nodes = (
"493 0 LINE",
"579 516 LINE",
"433 516 LINE",
"417 420 LINE",
"410 420 LINE",
"395 488 OFFCURVE",
"356 528 OFFCURVE",
"275 528 CURVE SMOOTH",
"132 528 OFFCURVE",
"38 393 OFFCURVE",
"38 188 CURVE SMOOTH",
"38 67 OFFCURVE",
"80 -12 OFFCURVE",
"189 -12 CURVE SMOOTH",
"277 -12 OFFCURVE",
"323 44 OFFCURVE",
"362 123 CURVE",
"367 123 LINE",
"347 0 LINE"
);
},
{
closed = 1;
nodes = (
"204 101 OFFCURVE",
"187 139 OFFCURVE",
"186 188 CURVE",
"186 205 OFFCURVE",
"188 221 OFFCURVE",
"190 233 CURVE SMOOTH",
"200 293 LINE SMOOTH",
"213 371 OFFCURVE",
"250 415 OFFCURVE",
"322 415 CURVE SMOOTH",
"385 415 OFFCURVE",
"411 384 OFFCURVE",
"402 330 CURVE SMOOTH",
"388 247 LINE SMOOTH",
"381 204 OFFCURVE",
"357 169 OFFCURVE",
"341 150 CURVE SMOOTH",
"317 120 OFFCURVE",
"290 101 OFFCURVE",
"254 101 CURVE SMOOTH"
);
}
);
width = 600;
}
);
note = uni1EA1;
unicode = 1EA1;
},
{
glyphname = agrave;
lastChange = "2017-11-24 23:54:01 +0000";
layers = (
{
layerId = "2D832C46-3B02-4AC2-BC3D-33D8B64E8998";
paths = (
{
closed = 1;
nodes = (
"325 571 LINE",
"412 610 LINE",
"335 806 LINE",
"211 747 LINE"
);
},
{
closed = 1;
nodes = (
"493 0 LINE",
"579 516 LINE",
"433 516 LINE",
"417 420 LINE",
"410 420 LINE",
"395 488 OFFCURVE",
"356 528 OFFCURVE",
"275 528 CURVE SMOOTH",
"132 528 OFFCURVE",
"38 393 OFFCURVE",
"38 188 CURVE SMOOTH",
"38 67 OFFCURVE",
"80 -12 OFFCURVE",
"189 -12 CURVE SMOOTH",
"277 -12 OFFCURVE",
"323 44 OFFCURVE",
"362 123 CURVE",
"367 123 LINE",
"347 0 LINE"
);
},
{
closed = 1;
nodes = (
"204 101 OFFCURVE",
"187 139 OFFCURVE",
"186 188 CURVE",
"186 205 OFFCURVE",
"188 221 OFFCURVE",
"190 233 CURVE SMOOTH",
"200 293 LINE SMOOTH",
"213 371 OFFCURVE",
"250 415 OFFCURVE",
"322 415 CURVE SMOOTH",
"385 415 OFFCURVE",
"411 384 OFFCURVE",
"402 330 CURVE SMOOTH",
"388 247 LINE SMOOTH",
"381 204 OFFCURVE",
"357 169 OFFCURVE",
"341 150 CURVE SMOOTH",
"317 120 OFFCURVE",
"290 101 OFFCURVE",
"254 101 CURVE SMOOTH"
);
}
);
width = 600;
}
);
note = agrave;
unicode = 00E0;
},
{
glyphname = uni1EA3;
lastChange = "2017-11-24 23:54:01 +0000";
layers = (
{
layerId = "2D832C46-3B02-4AC2-BC3D-33D8B64E8998";
paths = (
{
closed = 1;
nodes = (
"241 688 LINE",
"363 688 LINE",
"313 595 LINE",
"384 561 LINE",
"438 627 LINE SMOOTH",
"466 662 OFFCURVE",
"487 692 OFFCURVE",
"487 733 CURVE SMOOTH",
"487 766 OFFCURVE",
"461 792 OFFCURVE",
"406 792 CURVE SMOOTH",
"259 792 LINE"
);
},
{
closed = 1;
nodes = (
"493 0 LINE",
"579 516 LINE",
"433 516 LINE",
"417 420 LINE",
"410 420 LINE",
"395 488 OFFCURVE",
"356 528 OFFCURVE",
"275 528 CURVE SMOOTH",
"132 528 OFFCURVE",
"38 393 OFFCURVE",
"38 188 CURVE SMOOTH",
"38 67 OFFCURVE",
"80 -12 OFFCURVE",
"189 -12 CURVE SMOOTH",
"277 -12 OFFCURVE",
"323 44 OFFCURVE",
"362 123 CURVE",
"367 123 LINE",
"347 0 LINE"
);
},
{
closed = 1;
nodes = (
"204 101 OFFCURVE",
"187 139 OFFCURVE",
"186 188 CURVE",
"186 205 OFFCURVE",
"188 221 OFFCURVE",
"190 233 CURVE SMOOTH",
"200 293 LINE SMOOTH",
"213 371 OFFCURVE",
"250 415 OFFCURVE",
"322 415 CURVE SMOOTH",
"385 415 OFFCURVE",
"411 384 OFFCURVE",
"402 330 CURVE SMOOTH",
"388 247 LINE SMOOTH",
"381 204 OFFCURVE",
"357 169 OFFCURVE",
"341 150 CURVE SMOOTH",
"317 120 OFFCURVE",
"290 101 OFFCURVE",
"254 101 CURVE SMOOTH"
);
}
);
width = 600;
}
);
note = uni1EA3;
unicode = 1EA3;
},
{
glyphname = amacron;
lastChange = "2017-11-24 23:54:01 +0000";
layers = (
{
layerId = "2D832C46-3B02-4AC2-BC3D-33D8B64E8998";
paths = (
{
closed = 1;
nodes = (
"196 616 LINE",
"501 616 LINE",
"518 718 LINE",
"213 718 LINE"
);
},
{
closed = 1;
nodes = (
"493 0 LINE",
"579 516 LINE",
"433 516 LINE",
"417 420 LINE",
"410 420 LINE",
"395 488 OFFCURVE",
"356 528 OFFCURVE",
"275 528 CURVE SMOOTH",
"132 528 OFFCURVE",
"38 393 OFFCURVE",
"38 188 CURVE SMOOTH",
"38 67 OFFCURVE",
"80 -12 OFFCURVE",
"189 -12 CURVE SMOOTH",
"277 -12 OFFCURVE",
"323 44 OFFCURVE",
"362 123 CURVE",
"367 123 LINE",
"347 0 LINE"
);
},
{
closed = 1;
nodes = (
"204 101 OFFCURVE",
"187 139 OFFCURVE",
"186 188 CURVE",
"186 205 OFFCURVE",
"188 221 OFFCURVE",
"190 233 CURVE SMOOTH",
"200 293 LINE SMOOTH",
"213 371 OFFCURVE",
"250 415 OFFCURVE",
"322 415 CURVE SMOOTH",
"385 415 OFFCURVE",
"411 384 OFFCURVE",
"402 330 CURVE SMOOTH",
"388 247 LINE SMOOTH",
"381 204 OFFCURVE",
"357 169 OFFCURVE",
"341 150 CURVE SMOOTH",
"317 120 OFFCURVE",
"290 101 OFFCURVE",
"254 101 CURVE SMOOTH"
);
}
);
width = 600;
}
);
note = amacron;
unicode = 0101;
},
{
glyphname = aogonek;
lastChange = "2017-11-24 23:54:01 +0000";
layers = (
{
layerId = "2D832C46-3B02-4AC2-BC3D-33D8B64E8998";
paths = (
{
closed = 1;
nodes = (
"579 516 LINE",
"433 516 LINE",
"417 420 LINE",
"410 420 LINE",
"395 488 OFFCURVE",
"356 528 OFFCURVE",
"273 528 CURVE SMOOTH",
"134 528 OFFCURVE",
"38 393 OFFCURVE",
"38 188 CURVE SMOOTH",
"38 67 OFFCURVE",
"80 -12 OFFCURVE",
"189 -12 CURVE SMOOTH",
"277 -12 OFFCURVE",
"323 44 OFFCURVE",
"362 123 CURVE",
"367 123 LINE",
"347 0 LINE",
"417 0 LINE",
"418 -4 LINE",
"319 -30 OFFCURVE",
"278 -78 OFFCURVE",
"278 -127 CURVE SMOOTH",
"278 -182 OFFCURVE",
"329 -212 OFFCURVE",
"400 -212 CURVE SMOOTH",
"457 -212 OFFCURVE",
"496 -190 OFFCURVE",
"521 -158 CURVE",
"467 -113 LINE",
"453 -134 OFFCURVE",
"434 -140 OFFCURVE",
"414 -140 CURVE SMOOTH",
"388 -140 OFFCURVE",
"377 -127 OFFCURVE",
"377 -110 CURVE SMOOTH",
"377 -90 OFFCURVE",
"388 -63 OFFCURVE",
"493 0 CURVE"
);
},
{
closed = 1;
nodes = (
"204 101 OFFCURVE",
"187 139 OFFCURVE",
"186 188 CURVE",
"186 205 OFFCURVE",
"188 221 OFFCURVE",
"190 233 CURVE SMOOTH",
"200 293 LINE SMOOTH",
"213 370 OFFCURVE",
"249 415 OFFCURVE",
"322 415 CURVE SMOOTH",
"385 415 OFFCURVE",
"411 384 OFFCURVE",
"402 330 CURVE SMOOTH",
"388 247 LINE SMOOTH",
"381 204 OFFCURVE",
"357 169 OFFCURVE",
"341 150 CURVE SMOOTH",
"317 120 OFFCURVE",
"290 101 OFFCURVE",
"254 101 CURVE SMOOTH"
);
}
);
width = 600;
}
);
note = aogonek;
unicode = 0105;
},
{
glyphname = aring;
lastChange = "2017-11-24 23:54:01 +0000";
layers = (
{
layerId = "2D832C46-3B02-4AC2-BC3D-33D8B64E8998";
paths = (
{
closed = 1;
nodes = (
"433 550 OFFCURVE",
"509 616 OFFCURVE",
"509 710 CURVE SMOOTH",
"509 780 OFFCURVE",
"452 834 OFFCURVE",
"379 834 CURVE SMOOTH",
"287 834 OFFCURVE",
"211 768 OFFCURVE",
"211 674 CURVE SMOOTH",
"211 604 OFFCURVE",
"268 550 OFFCURVE",
"341 550 CURVE SMOOTH"
);
},
{
closed = 1;
nodes = (
"320 624 OFFCURVE",
"306 639 OFFCURVE",
"306 664 CURVE SMOOTH",
"306 674 OFFCURVE",
"308 685 OFFCURVE",
"312 709 CURVE SMOOTH",
"317 739 OFFCURVE",
"337 760 OFFCURVE",
"371 760 CURVE SMOOTH",
"400 760 OFFCURVE",
"414 745 OFFCURVE",
"414 720 CURVE SMOOTH",
"414 710 OFFCURVE",
"412 699 OFFCURVE",
"408 675 CURVE SMOOTH",
"403 645 OFFCURVE",
"383 624 OFFCURVE",
"349 624 CURVE SMOOTH"
);
},
{
closed = 1;
nodes = (
"493 0 LINE",
"579 516 LINE",
"433 516 LINE",
"417 420 LINE",
"410 420 LINE",
"395 488 OFFCURVE",
"356 528 OFFCURVE",
"275 528 CURVE SMOOTH",
"132 528 OFFCURVE",
"38 393 OFFCURVE",
"38 188 CURVE SMOOTH",
"38 67 OFFCURVE",
"80 -12 OFFCURVE",
"189 -12 CURVE SMOOTH",
"277 -12 OFFCURVE",
"323 44 OFFCURVE",
"362 123 CURVE",
"367 123 LINE",
"347 0 LINE"
);
},
{
closed = 1;
nodes = (
"204 101 OFFCURVE",
"187 139 OFFCURVE",
"186 188 CURVE",
"186 205 OFFCURVE",
"188 221 OFFCURVE",
"190 233 CURVE SMOOTH",
"200 293 LINE SMOOTH",
"213 371 OFFCURVE",
"250 415 OFFCURVE",
"322 415 CURVE SMOOTH",
"385 415 OFFCURVE",
"411 384 OFFCURVE",
"402 330 CURVE SMOOTH",
"388 247 LINE SMOOTH",
"381 204 OFFCURVE",
"357 169 OFFCURVE",
"341 150 CURVE SMOOTH",
"317 120 OFFCURVE",
"290 101 OFFCURVE",
"254 101 CURVE SMOOTH"
);
}
);
width = 600;
}
);
note = aring;
unicode = 00E5;
},
{
glyphname = aringacute;
lastChange = "2017-11-24 23:54:01 +0000";
layers = (
{
layerId = "2D832C46-3B02-4AC2-BC3D-33D8B64E8998";
paths = (
{
closed = 1;
nodes = (
"536 900 LINE",
"471 979 LINE",
"329 862 LINE",
"378 806 LINE"
);
},
{
closed = 1;
nodes = (
"431 556 OFFCURVE",
"507 606 OFFCURVE",
"507 690 CURVE SMOOTH",
"507 756 OFFCURVE",
"449 795 OFFCURVE",
"374 795 CURVE SMOOTH",
"282 795 OFFCURVE",
"206 745 OFFCURVE",
"206 661 CURVE SMOOTH",
"206 595 OFFCURVE",
"264 556 OFFCURVE",
"339 556 CURVE SMOOTH"
);
},
{
closed = 1;
nodes = (
"318 625 OFFCURVE",
"302 636 OFFCURVE",
"302 660 CURVE SMOOTH",
"302 663 OFFCURVE",
"303 670 OFFCURVE",
"305 682 CURVE SMOOTH",
"310 712 OFFCURVE",
"329 726 OFFCURVE",
"365 726 CURVE SMOOTH",
"395 726 OFFCURVE",
"411 715 OFFCURVE",
"411 691 CURVE SMOOTH",
"411 688 OFFCURVE",
"410 681 OFFCURVE",
"408 669 CURVE SMOOTH",
"403 639 OFFCURVE",
"384 625 OFFCURVE",
"348 625 CURVE SMOOTH"
);
},
{
closed = 1;
nodes = (
"493 0 LINE",
"579 516 LINE",
"433 516 LINE",
"417 420 LINE",
"410 420 LINE",
"395 488 OFFCURVE",
"356 528 OFFCURVE",
"275 528 CURVE SMOOTH",
"132 528 OFFCURVE",
"38 393 OFFCURVE",
"38 188 CURVE SMOOTH",
"38 67 OFFCURVE",
"80 -12 OFFCURVE",
"189 -12 CURVE SMOOTH",
"277 -12 OFFCURVE",
"323 44 OFFCURVE",
"362 123 CURVE",
"367 123 LINE",
"347 0 LINE"
);
},
{
closed = 1;
nodes = (
"204 101 OFFCURVE",
"187 139 OFFCURVE",
"186 188 CURVE",
"186 205 OFFCURVE",
"188 221 OFFCURVE",
"190 233 CURVE SMOOTH",
"200 293 LINE SMOOTH",
"213 371 OFFCURVE",
"250 415 OFFCURVE",
"322 415 CURVE SMOOTH",
"385 415 OFFCURVE",
"411 384 OFFCURVE",
"402 330 CURVE SMOOTH",
"388 247 LINE SMOOTH",
"381 204 OFFCURVE",
"357 169 OFFCURVE",
"341 150 CURVE SMOOTH",
"317 120 OFFCURVE",
"290 101 OFFCURVE",
"254 101 CURVE SMOOTH"
);
}
);
width = 600;
}
);
note = aringacute;
unicode = 01FB;
},
{
glyphname = atilde;
lastChange = "2017-11-24 23:54:01 +0000";
layers = (
{
layerId = "2D832C46-3B02-4AC2-BC3D-33D8B64E8998";
paths = (
{
closed = 1;
nodes = (
"474 592 OFFCURVE",
"516 620 OFFCURVE",
"545 656 CURVE",
"505 723 LINE",
"481 706 OFFCURVE",
"465 698 OFFCURVE",
"442 698 CURVE SMOOTH",
"416 698 OFFCURVE",
"394 708 OFFCURVE",
"367 720 CURVE SMOOTH",
"344 731 OFFCURVE",
"324 741 OFFCURVE",
"294 741 CURVE SMOOTH",
"241 741 OFFCURVE",
"199 713 OFFCURVE",
"170 677 CURVE",
"210 610 LINE",
"234 627 OFFCURVE",
"250 635 OFFCURVE",
"273 635 CURVE SMOOTH",
"299 635 OFFCURVE",
"321 625 OFFCURVE",
"348 613 CURVE SMOOTH",
"371 602 OFFCURVE",
"391 592 OFFCURVE",
"421 592 CURVE SMOOTH"
);
},
{
closed = 1;
nodes = (
"493 0 LINE",
"579 516 LINE",
"433 516 LINE",
"417 420 LINE",
"410 420 LINE",
"395 488 OFFCURVE",
"356 528 OFFCURVE",
"275 528 CURVE SMOOTH",
"132 528 OFFCURVE",
"38 393 OFFCURVE",
"38 188 CURVE SMOOTH",
"38 67 OFFCURVE",
"80 -12 OFFCURVE",
"189 -12 CURVE SMOOTH",
"277 -12 OFFCURVE",
"323 44 OFFCURVE",
"362 123 CURVE",
"367 123 LINE",
"347 0 LINE"
);
},
{
closed = 1;
nodes = (
"204 101 OFFCURVE",
"187 139 OFFCURVE",
"186 188 CURVE",
"186 205 OFFCURVE",
"188 221 OFFCURVE",
"190 233 CURVE SMOOTH",
"200 293 LINE SMOOTH",
"213 371 OFFCURVE",
"250 415 OFFCURVE",
"322 415 CURVE SMOOTH",
"385 415 OFFCURVE",
"411 384 OFFCURVE",
"402 330 CURVE SMOOTH",
"388 247 LINE SMOOTH",
"381 204 OFFCURVE",
"357 169 OFFCURVE",
"341 150 CURVE SMOOTH",
"317 120 OFFCURVE",
"290 101 OFFCURVE",
"254 101 CURVE SMOOTH"
);
}
);
width = 600;
}
);
note = atilde;
unicode = 00E3;
},
{
glyphname = uni1EAF;
lastChange = "2017-11-24 23:54:01 +0000";
layers = (
{
layerId = "2D832C46-3B02-4AC2-BC3D-33D8B64E8998";
paths = (
{
closed = 1;
nodes = (
"463 563 OFFCURVE",
"517 628 OFFCURVE",
"565 712 CURVE",
"491 759 LINE",
"466 731 LINE SMOOTH",
"420 679 OFFCURVE",
"393 664 OFFCURVE",
"353 664 CURVE SMOOTH",
"308 664 OFFCURVE",
"286 680 OFFCURVE",
"253 731 CURVE SMOOTH",
"235 759 LINE",
"161 712 LINE",
"181 636 OFFCURVE",
"232 563 OFFCURVE",
"353 563 CURVE SMOOTH"
);
},
{
closed = 1;
nodes = (
"513 900 LINE",
"404 958 LINE",
"301 764 LINE",
"380 724 LINE"
);
},
{
closed = 1;
nodes = (
"493 0 LINE",
"579 516 LINE",
"433 516 LINE",
"417 420 LINE",
"410 420 LINE",
"395 488 OFFCURVE",
"356 528 OFFCURVE",
"275 528 CURVE SMOOTH",
"132 528 OFFCURVE",
"38 393 OFFCURVE",
"38 188 CURVE SMOOTH",
"38 67 OFFCURVE",
"80 -12 OFFCURVE",
"189 -12 CURVE SMOOTH",
"277 -12 OFFCURVE",
"323 44 OFFCURVE",
"362 123 CURVE",
"367 123 LINE",
"347 0 LINE"
);
},
{
closed = 1;
nodes = (
"204 101 OFFCURVE",
"187 139 OFFCURVE",
"186 188 CURVE",
"186 205 OFFCURVE",
"188 221 OFFCURVE",
"190 233 CURVE SMOOTH",
"200 293 LINE SMOOTH",
"213 371 OFFCURVE",
"250 415 OFFCURVE",
"322 415 CURVE SMOOTH",
"385 415 OFFCURVE",
"411 384 OFFCURVE",
"402 330 CURVE SMOOTH",
"388 247 LINE SMOOTH",
"381 204 OFFCURVE",
"357 169 OFFCURVE",
"341 150 CURVE SMOOTH",
"317 120 OFFCURVE",
"290 101 OFFCURVE",
"254 101 CURVE SMOOTH"
);
}
);
width = 600;
}
);
note = uni1EAF;
unicode = 1EAF;
},
{
glyphname = uni1EB7;
lastChange = "2017-11-24 23:54:01 +0000";
layers = (
{
layerId = "2D832C46-3B02-4AC2-BC3D-33D8B64E8998";
paths = (
{
closed = 1;
nodes = (
"281 -202 OFFCURVE",
"303 -179 OFFCURVE",
"309 -143 CURVE SMOOTH",
"312 -125 OFFCURVE",
"314 -114 OFFCURVE",
"314 -107 CURVE SMOOTH",
"314 -76 OFFCURVE",
"296 -53 OFFCURVE",
"242 -53 CURVE SMOOTH",
"187 -53 OFFCURVE",
"165 -76 OFFCURVE",
"159 -112 CURVE SMOOTH",
"156 -130 OFFCURVE",
"154 -141 OFFCURVE",
"154 -148 CURVE SMOOTH",
"154 -179 OFFCURVE",
"172 -202 OFFCURVE",
"226 -202 CURVE SMOOTH"
);
},
{
closed = 1;
nodes = (
"464 570 OFFCURVE",
"521 655 OFFCURVE",
"564 740 CURVE",
"481 782 LINE",
"455 747 LINE SMOOTH",
"419 698 OFFCURVE",
"397 673 OFFCURVE",
"361 673 CURVE SMOOTH",
"319 673 OFFCURVE",
"301 700 OFFCURVE",
"277 745 CURVE SMOOTH",
"257 782 LINE",
"176 740 LINE",
"197 658 OFFCURVE",
"242 570 OFFCURVE",
"355 570 CURVE SMOOTH"
);
},
{
closed = 1;
nodes = (
"493 0 LINE",
"579 516 LINE",
"433 516 LINE",
"417 420 LINE",
"410 420 LINE",
"395 488 OFFCURVE",
"356 528 OFFCURVE",
"275 528 CURVE SMOOTH",
"132 528 OFFCURVE",
"38 393 OFFCURVE",
"38 188 CURVE SMOOTH",
"38 67 OFFCURVE",
"80 -12 OFFCURVE",
"189 -12 CURVE SMOOTH",
"277 -12 OFFCURVE",
"323 44 OFFCURVE",
"362 123 CURVE",
"367 123 LINE",
"347 0 LINE"
);
},
{
closed = 1;
nodes = (
"204 101 OFFCURVE",
"187 139 OFFCURVE",
"186 188 CURVE",
"186 205 OFFCURVE",
"188 221 OFFCURVE",
"190 233 CURVE SMOOTH",
"200 293 LINE SMOOTH",
"213 371 OFFCURVE",
"250 415 OFFCURVE",
"322 415 CURVE SMOOTH",
"385 415 OFFCURVE",
"411 384 OFFCURVE",
"402 330 CURVE SMOOTH",
"388 247 LINE SMOOTH",
"381 204 OFFCURVE",
"357 169 OFFCURVE",
"341 150 CURVE SMOOTH",
"317 120 OFFCURVE",
"290 101 OFFCURVE",
"254 101 CURVE SMOOTH"
);
}
);
width = 600;
}
);
note = uni1EB7;
unicode = 1EB7;
},
{
glyphname = uni1EB1;
lastChange = "2017-11-24 23:54:01 +0000";
layers = (
{
layerId = "2D832C46-3B02-4AC2-BC3D-33D8B64E8998";
paths = (
{
closed = 1;
nodes = (
"463 563 OFFCURVE",
"517 628 OFFCURVE",
"565 712 CURVE",
"491 759 LINE",
"466 731 LINE SMOOTH",
"420 679 OFFCURVE",
"393 664 OFFCURVE",
"353 664 CURVE SMOOTH",
"308 664 OFFCURVE",
"286 680 OFFCURVE",
"253 731 CURVE SMOOTH",
"235 759 LINE",
"161 712 LINE",
"181 636 OFFCURVE",
"232 563 OFFCURVE",
"353 563 CURVE SMOOTH"
);
},
{
closed = 1;
nodes = (
"337 725 LINE",
"417 763 LINE",
"348 956 LINE",
"229 901 LINE"
);
},
{
closed = 1;
nodes = (
"493 0 LINE",
"579 516 LINE",
"433 516 LINE",
"417 420 LINE",
"410 420 LINE",
"395 488 OFFCURVE",
"356 528 OFFCURVE",
"275 528 CURVE SMOOTH",
"132 528 OFFCURVE",
"38 393 OFFCURVE",
"38 188 CURVE SMOOTH",
"38 67 OFFCURVE",
"80 -12 OFFCURVE",
"189 -12 CURVE SMOOTH",
"277 -12 OFFCURVE",
"323 44 OFFCURVE",
"362 123 CURVE",
"367 123 LINE",
"347 0 LINE"
);
},
{
closed = 1;
nodes = (
"204 101 OFFCURVE",
"187 139 OFFCURVE",
"186 188 CURVE",
"186 205 OFFCURVE",
"188 221 OFFCURVE",
"190 233 CURVE SMOOTH",
"200 293 LINE SMOOTH",
"213 371 OFFCURVE",
"250 415 OFFCURVE",
"322 415 CURVE SMOOTH",
"385 415 OFFCURVE",
"411 384 OFFCURVE",
"402 330 CURVE SMOOTH",
"388 247 LINE SMOOTH",
"381 204 OFFCURVE",
"357 169 OFFCURVE",
"341 150 CURVE SMOOTH",
"317 120 OFFCURVE",
"290 101 OFFCURVE",
"254 101 CURVE SMOOTH"
);
}
);
width = 600;
}
);
note = uni1EB1;
unicode = 1EB1;
},
{
glyphname = uni1EB3;
lastChange = "2017-11-24 23:54:01 +0000";
layers = (
{
layerId = "2D832C46-3B02-4AC2-BC3D-33D8B64E8998";
paths = (
{
closed = 1;
nodes = (
"463 563 OFFCURVE",
"517 628 OFFCURVE",
"565 712 CURVE",
"491 759 LINE",
"466 731 LINE SMOOTH",
"420 679 OFFCURVE",
"393 664 OFFCURVE",
"353 664 CURVE SMOOTH",
"308 664 OFFCURVE",
"286 680 OFFCURVE",
"253 731 CURVE SMOOTH",
"235 759 LINE",
"161 712 LINE",
"181 636 OFFCURVE",
"232 563 OFFCURVE",
"353 563 CURVE SMOOTH"
);
},
{
closed = 1;
nodes = (
"234 842 LINE",
"351 842 LINE",
"294 744 LINE",
"355 713 LINE",
"391 750 LINE SMOOTH",
"446 806 OFFCURVE",
"473 844 OFFCURVE",
"473 881 CURVE SMOOTH",
"473 918 OFFCURVE",
"447 943 OFFCURVE",
"392 943 CURVE SMOOTH",
"250 943 LINE"
);
},
{
closed = 1;
nodes = (
"493 0 LINE",
"579 516 LINE",
"433 516 LINE",
"417 420 LINE",
"410 420 LINE",
"395 488 OFFCURVE",
"356 528 OFFCURVE",
"275 528 CURVE SMOOTH",
"132 528 OFFCURVE",
"38 393 OFFCURVE",
"38 188 CURVE SMOOTH",
"38 67 OFFCURVE",
"80 -12 OFFCURVE",
"189 -12 CURVE SMOOTH",
"277 -12 OFFCURVE",
"323 44 OFFCURVE",
"362 123 CURVE",
"367 123 LINE",
"347 0 LINE"
);
},
{
closed = 1;
nodes = (
"204 101 OFFCURVE",
"187 139 OFFCURVE",
"186 188 CURVE",
"186 205 OFFCURVE",
"188 221 OFFCURVE",
"190 233 CURVE SMOOTH",
"200 293 LINE SMOOTH",
"213 371 OFFCURVE",
"250 415 OFFCURVE",
"322 415 CURVE SMOOTH",
"385 415 OFFCURVE",
"411 384 OFFCURVE",
"402 330 CURVE SMOOTH",
"388 247 LINE SMOOTH",
"381 204 OFFCURVE",
"357 169 OFFCURVE",
"341 150 CURVE SMOOTH",
"317 120 OFFCURVE",
"290 101 OFFCURVE",
"254 101 CURVE SMOOTH"
);
}
);
width = 600;
}
);
note = uni1EB3;
unicode = 1EB3;
},
{
glyphname = uni1EB5;
lastChange = "2017-11-24 23:54:01 +0000";
layers = (
{
layerId = "2D832C46-3B02-4AC2-BC3D-33D8B64E8998";
paths = (
{
closed = 1;
nodes = (
"463 563 OFFCURVE",
"517 628 OFFCURVE",
"565 712 CURVE",
"491 759 LINE",
"466 731 LINE SMOOTH",
"420 679 OFFCURVE",
"393 664 OFFCURVE",
"353 664 CURVE SMOOTH",
"308 664 OFFCURVE",
"286 680 OFFCURVE",
"253 731 CURVE SMOOTH",
"235 759 LINE",
"161 712 LINE",
"181 636 OFFCURVE",
"232 563 OFFCURVE",
"353 563 CURVE SMOOTH"
);
},
{
closed = 1;
nodes = (
"486 782 OFFCURVE",
"527 809 OFFCURVE",
"556 843 CURVE",
"518 908 LINE",
"494 891 OFFCURVE",
"479 883 OFFCURVE",
"454 883 CURVE SMOOTH",
"428 883 OFFCURVE",
"408 891 OFFCURVE",
"380 903 CURVE SMOOTH",
"360 912 OFFCURVE",
"341 921 OFFCURVE",
"309 921 CURVE SMOOTH",
"253 921 OFFCURVE",
"212 894 OFFCURVE",
"183 860 CURVE",
"221 795 LINE",
"245 812 OFFCURVE",
"260 820 OFFCURVE",
"285 820 CURVE SMOOTH",
"311 820 OFFCURVE",
"331 812 OFFCURVE",
"359 800 CURVE SMOOTH",
"379 791 OFFCURVE",
"398 782 OFFCURVE",
"430 782 CURVE SMOOTH"
);
},
{
closed = 1;
nodes = (
"493 0 LINE",
"579 516 LINE",
"433 516 LINE",
"417 420 LINE",
"410 420 LINE",
"395 488 OFFCURVE",
"356 528 OFFCURVE",
"275 528 CURVE SMOOTH",
"132 528 OFFCURVE",
"38 393 OFFCURVE",
"38 188 CURVE SMOOTH",
"38 67 OFFCURVE",
"80 -12 OFFCURVE",
"189 -12 CURVE SMOOTH",
"277 -12 OFFCURVE",
"323 44 OFFCURVE",
"362 123 CURVE",
"367 123 LINE",
"347 0 LINE"
);
},
{
closed = 1;
nodes = (
"204 101 OFFCURVE",
"187 139 OFFCURVE",
"186 188 CURVE",
"186 205 OFFCURVE",
"188 221 OFFCURVE",
"190 233 CURVE SMOOTH",
"200 293 LINE SMOOTH",
"213 371 OFFCURVE",
"250 415 OFFCURVE",
"322 415 CURVE SMOOTH",
"385 415 OFFCURVE",
"411 384 OFFCURVE",
"402 330 CURVE SMOOTH",
"388 247 LINE SMOOTH",
"381 204 OFFCURVE",
"357 169 OFFCURVE",
"341 150 CURVE SMOOTH",
"317 120 OFFCURVE",
"290 101 OFFCURVE",
"254 101 CURVE SMOOTH"
);
}
);
width = 600;
}
);
note = uni1EB5;
unicode = 1EB5;
},
{
glyphname = uni1EA5;
lastChange = "2017-11-24 23:54:01 +0000";
layers = (
{
layerId = "2D832C46-3B02-4AC2-BC3D-33D8B64E8998";
paths = (
{
closed = 1;
nodes = (
"674 901 LINE",
"564 956 LINE",
"464 766 LINE",
"543 726 LINE"
);
},
{
closed = 1;
nodes = (
"325 771 LINE",
"158 625 LINE",
"221 562 LINE",
"357 666 LINE",
"466 562 LINE",
"540 625 LINE",
"419 771 LINE"
);
},
{
closed = 1;
nodes = (
"493 0 LINE",
"579 516 LINE",
"433 516 LINE",
"417 420 LINE",
"410 420 LINE",
"395 488 OFFCURVE",
"356 528 OFFCURVE",
"275 528 CURVE SMOOTH",
"132 528 OFFCURVE",
"38 393 OFFCURVE",
"38 188 CURVE SMOOTH",
"38 67 OFFCURVE",
"80 -12 OFFCURVE",
"189 -12 CURVE SMOOTH",
"277 -12 OFFCURVE",
"323 44 OFFCURVE",
"362 123 CURVE",
"367 123 LINE",
"347 0 LINE"
);
},
{
closed = 1;
nodes = (
"204 101 OFFCURVE",
"187 139 OFFCURVE",
"186 188 CURVE",
"186 205 OFFCURVE",
"188 221 OFFCURVE",
"190 233 CURVE SMOOTH",
"200 293 LINE SMOOTH",
"213 371 OFFCURVE",
"250 415 OFFCURVE",
"322 415 CURVE SMOOTH",
"385 415 OFFCURVE",
"411 384 OFFCURVE",
"402 330 CURVE SMOOTH",
"388 247 LINE SMOOTH",
"381 204 OFFCURVE",
"357 169 OFFCURVE",
"341 150 CURVE SMOOTH",
"317 120 OFFCURVE",
"290 101 OFFCURVE",
"254 101 CURVE SMOOTH"
);
}
);
width = 600;
}
);
note = uni1EA5;
unicode = 1EA5;
},
{
glyphname = uni1EAD;
lastChange = "2017-11-24 23:54:01 +0000";
layers = (
{
layerId = "2D832C46-3B02-4AC2-BC3D-33D8B64E8998";
paths = (
{
closed = 1;
nodes = (
"281 -202 OFFCURVE",
"303 -179 OFFCURVE",
"309 -143 CURVE SMOOTH",
"312 -125 OFFCURVE",
"314 -114 OFFCURVE",
"314 -107 CURVE SMOOTH",
"314 -76 OFFCURVE",
"296 -53 OFFCURVE",
"242 -53 CURVE SMOOTH",
"187 -53 OFFCURVE",
"165 -76 OFFCURVE",
"159 -112 CURVE SMOOTH",
"156 -130 OFFCURVE",
"154 -141 OFFCURVE",
"154 -148 CURVE SMOOTH",
"154 -179 OFFCURVE",
"172 -202 OFFCURVE",
"226 -202 CURVE SMOOTH"
);
},
{
closed = 1;
nodes = (
"311 785 LINE",
"157 627 LINE",
"227 570 LINE",
"361 685 LINE",
"467 570 LINE",
"543 627 LINE",
"435 785 LINE"
);
},
{
closed = 1;
nodes = (
"493 0 LINE",
"579 516 LINE",
"433 516 LINE",
"417 420 LINE",
"410 420 LINE",
"395 488 OFFCURVE",
"356 528 OFFCURVE",
"275 528 CURVE SMOOTH",
"132 528 OFFCURVE",
"38 393 OFFCURVE",
"38 188 CURVE SMOOTH",
"38 67 OFFCURVE",
"80 -12 OFFCURVE",
"189 -12 CURVE SMOOTH",
"277 -12 OFFCURVE",
"323 44 OFFCURVE",
"362 123 CURVE",
"367 123 LINE",
"347 0 LINE"
);
},
{
closed = 1;
nodes = (
"204 101 OFFCURVE",
"187 139 OFFCURVE",
"186 188 CURVE",
"186 205 OFFCURVE",
"188 221 OFFCURVE",
"190 233 CURVE SMOOTH",
"200 293 LINE SMOOTH",
"213 371 OFFCURVE",
"250 415 OFFCURVE",
"322 415 CURVE SMOOTH",
"385 415 OFFCURVE",
"411 384 OFFCURVE",
"402 330 CURVE SMOOTH",
"388 247 LINE SMOOTH",
"381 204 OFFCURVE",
"357 169 OFFCURVE",
"341 150 CURVE SMOOTH",
"317 120 OFFCURVE",
"290 101 OFFCURVE",
"254 101 CURVE SMOOTH"
);
}
);
width = 600;
}
);
note = uni1EAD;
unicode = 1EAD;
},
{
glyphname = uni1EA7;
lastChange = "2017-11-24 23:54:01 +0000";
layers = (
{
layerId = "2D832C46-3B02-4AC2-BC3D-33D8B64E8998";
paths = (
{
closed = 1;
nodes = (
"191 725 LINE",
"265 763 LINE",
"191 956 LINE",
"78 901 LINE"
);
},
{
closed = 1;
nodes = (
"325 771 LINE",
"158 625 LINE",
"221 562 LINE",
"357 666 LINE",
"466 562 LINE",
"540 625 LINE",
"419 771 LINE"
);
},
{
closed = 1;
nodes = (
"493 0 LINE",
"579 516 LINE",
"433 516 LINE",
"417 420 LINE",
"410 420 LINE",
"395 488 OFFCURVE",
"356 528 OFFCURVE",
"275 528 CURVE SMOOTH",
"132 528 OFFCURVE",
"38 393 OFFCURVE",
"38 188 CURVE SMOOTH",
"38 67 OFFCURVE",
"80 -12 OFFCURVE",
"189 -12 CURVE SMOOTH",
"277 -12 OFFCURVE",
"323 44 OFFCURVE",
"362 123 CURVE",
"367 123 LINE",
"347 0 LINE"
);
},
{
closed = 1;
nodes = (
"204 101 OFFCURVE",
"187 139 OFFCURVE",
"186 188 CURVE",
"186 205 OFFCURVE",
"188 221 OFFCURVE",
"190 233 CURVE SMOOTH",
"200 293 LINE SMOOTH",
"213 371 OFFCURVE",
"250 415 OFFCURVE",
"322 415 CURVE SMOOTH",
"385 415 OFFCURVE",
"411 384 OFFCURVE",
"402 330 CURVE SMOOTH",
"388 247 LINE SMOOTH",
"381 204 OFFCURVE",
"357 169 OFFCURVE",
"341 150 CURVE SMOOTH",
"317 120 OFFCURVE",
"290 101 OFFCURVE",
"254 101 CURVE SMOOTH"
);
}
);
width = 600;
}
);
note = uni1EA7;
unicode = 1EA7;
},
{
glyphname = uni1EA9;
lastChange = "2017-11-24 23:54:01 +0000";
layers = (
{
layerId = "2D832C46-3B02-4AC2-BC3D-33D8B64E8998";
paths = (
{
closed = 1;
nodes = (
"423 842 LINE",
"535 842 LINE",
"483 746 LINE",
"554 712 LINE",
"608 778 LINE SMOOTH",
"636 813 OFFCURVE",
"657 843 OFFCURVE",
"657 884 CURVE SMOOTH",
"657 917 OFFCURVE",
"631 943 OFFCURVE",
"576 943 CURVE SMOOTH",
"439 943 LINE"
);
},
{
closed = 1;
nodes = (
"325 771 LINE",
"158 625 LINE",
"221 562 LINE",
"357 666 LINE",
"466 562 LINE",
"540 625 LINE",
"419 771 LINE"
);
},
{
closed = 1;
nodes = (
"493 0 LINE",
"579 516 LINE",
"433 516 LINE",
"417 420 LINE",
"410 420 LINE",
"395 488 OFFCURVE",
"356 528 OFFCURVE",
"275 528 CURVE SMOOTH",
"132 528 OFFCURVE",
"38 393 OFFCURVE",
"38 188 CURVE SMOOTH",
"38 67 OFFCURVE",
"80 -12 OFFCURVE",
"189 -12 CURVE SMOOTH",
"277 -12 OFFCURVE",
"323 44 OFFCURVE",
"362 123 CURVE",
"367 123 LINE",
"347 0 LINE"
);
},
{
closed = 1;
nodes = (
"204 101 OFFCURVE",
"187 139 OFFCURVE",
"186 188 CURVE",
"186 205 OFFCURVE",
"188 221 OFFCURVE",
"190 233 CURVE SMOOTH",
"200 293 LINE SMOOTH",
"213 371 OFFCURVE",
"250 415 OFFCURVE",
"322 415 CURVE SMOOTH",
"385 415 OFFCURVE",
"411 384 OFFCURVE",
"402 330 CURVE SMOOTH",
"388 247 LINE SMOOTH",
"381 204 OFFCURVE",
"357 169 OFFCURVE",
"341 150 CURVE SMOOTH",
"317 120 OFFCURVE",
"290 101 OFFCURVE",
"254 101 CURVE SMOOTH"
);
}
);
width = 600;
}
);
note = uni1EA9;
unicode = 1EA9;
},
{
glyphname = uni1EAB;
lastChange = "2017-11-24 23:54:01 +0000";
layers = (
{
layerId = "2D832C46-3B02-4AC2-BC3D-33D8B64E8998";
paths = (
{
closed = 1;
nodes = (
"271 932 OFFCURVE",
"228 905 OFFCURVE",
"200 870 CURVE",
"238 804 LINE",
"262 821 OFFCURVE",
"278 829 OFFCURVE",
"301 829 CURVE SMOOTH",
"327 829 OFFCURVE",
"349 820 OFFCURVE",
"376 807 CURVE SMOOTH",
"399 796 OFFCURVE",
"419 787 OFFCURVE",
"449 787 CURVE SMOOTH",
"502 787 OFFCURVE",
"545 814 OFFCURVE",
"573 849 CURVE",
"535 915 LINE",
"511 898 OFFCURVE",
"495 890 OFFCURVE",
"472 890 CURVE SMOOTH",
"446 890 OFFCURVE",
"424 899 OFFCURVE",
"397 912 CURVE SMOOTH",
"374 923 OFFCURVE",
"354 932 OFFCURVE",
"324 932 CURVE SMOOTH"
);
},
{
closed = 1;
nodes = (
"323 759 LINE",
"158 625 LINE",
"223 562 LINE",
"357 658 LINE",
"468 562 LINE",
"540 625 LINE",
"418 759 LINE"
);
},
{
closed = 1;
nodes = (
"493 0 LINE",
"579 516 LINE",
"433 516 LINE",
"417 420 LINE",
"410 420 LINE",
"395 488 OFFCURVE",
"356 528 OFFCURVE",
"275 528 CURVE SMOOTH",
"132 528 OFFCURVE",
"38 393 OFFCURVE",
"38 188 CURVE SMOOTH",
"38 67 OFFCURVE",
"80 -12 OFFCURVE",
"189 -12 CURVE SMOOTH",
"277 -12 OFFCURVE",
"323 44 OFFCURVE",
"362 123 CURVE",
"367 123 LINE",
"347 0 LINE"
);
},
{
closed = 1;
nodes = (
"204 101 OFFCURVE",
"187 139 OFFCURVE",
"186 188 CURVE",
"186 205 OFFCURVE",
"188 221 OFFCURVE",
"190 233 CURVE SMOOTH",
"200 293 LINE SMOOTH",
"213 371 OFFCURVE",
"250 415 OFFCURVE",
"322 415 CURVE SMOOTH",
"385 415 OFFCURVE",
"411 384 OFFCURVE",
"402 330 CURVE SMOOTH",
"388 247 LINE SMOOTH",
"381 204 OFFCURVE",
"357 169 OFFCURVE",
"341 150 CURVE SMOOTH",
"317 120 OFFCURVE",
"290 101 OFFCURVE",
"254 101 CURVE SMOOTH"
);
}
);
width = 600;
}
);
note = uni1EAB;
unicode = 1EAB;
},
{
glyphname = aacute.alt01;
lastChange = "2017-11-24 23:54:01 +0000";
layers = (
{
layerId = "2D832C46-3B02-4AC2-BC3D-33D8B64E8998";
paths = (
{
closed = 1;
nodes = (
"506 746 LINE",
"392 806 LINE",
"277 616 LINE",
"363 570 LINE"
);
},
{
closed = 1;
nodes = (
"269 -12 OFFCURVE",
"324 25 OFFCURVE",
"353 91 CURVE",
"358 91 LINE",
"343 0 LINE",
"483 0 LINE",
"531 290 LINE SMOOTH",
"535 316 OFFCURVE",
"538 337 OFFCURVE",
"538 358 CURVE SMOOTH",
"538 471 OFFCURVE",
"448 528 OFFCURVE",
"311 528 CURVE SMOOTH",
"204 528 OFFCURVE",
"129 481 OFFCURVE",
"88 432 CURVE",
"162 357 LINE",
"198 396 OFFCURVE",
"236 420 OFFCURVE",
"298 420 CURVE SMOOTH",
"365 420 OFFCURVE",
"393 391 OFFCURVE",
"393 347 CURVE SMOOTH",
"393 339 OFFCURVE",
"392 329 OFFCURVE",
"391 323 CURVE SMOOTH",
"387 301 LINE",
"292 301 LINE SMOOTH",
"126 301 OFFCURVE",
"37 240 OFFCURVE",
"37 117 CURVE SMOOTH",
"37 36 OFFCURVE",
"99 -12 OFFCURVE",
"199 -12 CURVE SMOOTH"
);
},
{
closed = 1;
nodes = (
"211 84 OFFCURVE",
"185 100 OFFCURVE",
"185 132 CURVE SMOOTH",
"185 139 OFFCURVE",
"185 144 OFFCURVE",
"187 160 CURVE SMOOTH",
"192 200 OFFCURVE",
"229 221 OFFCURVE",
"289 221 CURVE SMOOTH",
"374 221 LINE",
"364 161 LINE SMOOTH",
"356 113 OFFCURVE",
"308 84 OFFCURVE",
"253 84 CURVE SMOOTH"
);
}
);
width = 600;
}
);
note = aacute.alt01;
},
{
glyphname = abreve.alt01;
lastChange = "2017-11-24 23:54:01 +0000";
layers = (
{
layerId = "2D832C46-3B02-4AC2-BC3D-33D8B64E8998";
paths = (
{
closed = 1;
nodes = (
"472 570 OFFCURVE",
"529 655 OFFCURVE",
"572 740 CURVE",
"489 782 LINE",
"463 747 LINE SMOOTH",
"427 698 OFFCURVE",
"405 673 OFFCURVE",
"369 673 CURVE SMOOTH",
"327 673 OFFCURVE",
"309 700 OFFCURVE",
"285 745 CURVE SMOOTH",
"265 782 LINE",
"184 740 LINE",
"205 658 OFFCURVE",
"250 570 OFFCURVE",
"363 570 CURVE SMOOTH"
);
},
{
closed = 1;
nodes = (
"269 -12 OFFCURVE",
"324 25 OFFCURVE",
"353 91 CURVE",
"358 91 LINE",
"343 0 LINE",
"483 0 LINE",
"531 290 LINE SMOOTH",
"535 316 OFFCURVE",
"538 337 OFFCURVE",
"538 358 CURVE SMOOTH",
"538 471 OFFCURVE",
"448 528 OFFCURVE",
"311 528 CURVE SMOOTH",
"204 528 OFFCURVE",
"129 481 OFFCURVE",
"88 432 CURVE",
"162 357 LINE",
"198 396 OFFCURVE",
"236 420 OFFCURVE",
"298 420 CURVE SMOOTH",
"365 420 OFFCURVE",
"393 391 OFFCURVE",
"393 347 CURVE SMOOTH",
"393 339 OFFCURVE",
"392 329 OFFCURVE",
"391 323 CURVE SMOOTH",
"387 301 LINE",
"292 301 LINE SMOOTH",
"126 301 OFFCURVE",
"37 240 OFFCURVE",
"37 117 CURVE SMOOTH",
"37 36 OFFCURVE",
"99 -12 OFFCURVE",
"199 -12 CURVE SMOOTH"
);
},
{
closed = 1;
nodes = (
"211 84 OFFCURVE",
"185 100 OFFCURVE",
"185 132 CURVE SMOOTH",
"185 139 OFFCURVE",
"185 144 OFFCURVE",
"187 160 CURVE SMOOTH",
"192 200 OFFCURVE",
"229 221 OFFCURVE",
"289 221 CURVE SMOOTH",
"374 221 LINE",
"364 161 LINE SMOOTH",
"356 113 OFFCURVE",
"308 84 OFFCURVE",
"253 84 CURVE SMOOTH"
);
}
);
width = 600;
}
);
note = abreve.alt01;
},
{
glyphname = acircumflex.alt01;
lastChange = "2017-11-24 23:54:01 +0000";
layers = (
{
layerId = "2D832C46-3B02-4AC2-BC3D-33D8B64E8998";
paths = (
{
closed = 1;
nodes = (
"319 785 LINE",
"165 627 LINE",
"235 570 LINE",
"369 685 LINE",
"475 570 LINE",
"551 627 LINE",
"443 785 LINE"
);
},
{
closed = 1;
nodes = (
"269 -12 OFFCURVE",
"324 25 OFFCURVE",
"353 91 CURVE",
"358 91 LINE",
"343 0 LINE",
"483 0 LINE",
"531 290 LINE SMOOTH",
"535 316 OFFCURVE",
"538 337 OFFCURVE",
"538 358 CURVE SMOOTH",
"538 471 OFFCURVE",
"448 528 OFFCURVE",
"311 528 CURVE SMOOTH",
"204 528 OFFCURVE",
"129 481 OFFCURVE",
"88 432 CURVE",
"162 357 LINE",
"198 396 OFFCURVE",
"236 420 OFFCURVE",
"298 420 CURVE SMOOTH",
"365 420 OFFCURVE",
"393 391 OFFCURVE",
"393 347 CURVE SMOOTH",
"393 339 OFFCURVE",
"392 329 OFFCURVE",
"391 323 CURVE SMOOTH",
"387 301 LINE",
"292 301 LINE SMOOTH",
"126 301 OFFCURVE",
"37 240 OFFCURVE",
"37 117 CURVE SMOOTH",
"37 36 OFFCURVE",
"99 -12 OFFCURVE",
"199 -12 CURVE SMOOTH"
);
},
{
closed = 1;
nodes = (
"211 84 OFFCURVE",
"185 100 OFFCURVE",
"185 132 CURVE SMOOTH",
"185 139 OFFCURVE",
"185 144 OFFCURVE",
"187 160 CURVE SMOOTH",
"192 200 OFFCURVE",
"229 221 OFFCURVE",
"289 221 CURVE SMOOTH",
"374 221 LINE",
"364 161 LINE SMOOTH",
"356 113 OFFCURVE",
"308 84 OFFCURVE",
"253 84 CURVE SMOOTH"
);
}
);
width = 600;
}
);
note = acircumflex.alt01;
},
{
glyphname = adieresis.alt01;
lastChange = "2017-11-24 23:54:01 +0000";
layers = (
{
layerId = "2D832C46-3B02-4AC2-BC3D-33D8B64E8998";
paths = (
{
closed = 1;
nodes = (
"306 592 OFFCURVE",
"327 616 OFFCURVE",
"333 652 CURVE SMOOTH",
"336 670 OFFCURVE",
"338 681 OFFCURVE",
"338 687 CURVE SMOOTH",
"338 718 OFFCURVE",
"318 741 OFFCURVE",
"264 741 CURVE SMOOTH",
"206 741 OFFCURVE",
"185 717 OFFCURVE",
"179 681 CURVE SMOOTH",
"176 663 OFFCURVE",
"174 652 OFFCURVE",
"174 646 CURVE SMOOTH",
"174 615 OFFCURVE",
"194 592 OFFCURVE",
"248 592 CURVE SMOOTH"
);
},
{
closed = 1;
nodes = (
"524 592 OFFCURVE",
"545 616 OFFCURVE",
"551 652 CURVE SMOOTH",
"554 670 OFFCURVE",
"556 681 OFFCURVE",
"556 687 CURVE SMOOTH",
"556 718 OFFCURVE",
"536 741 OFFCURVE",
"482 741 CURVE SMOOTH",
"424 741 OFFCURVE",
"403 717 OFFCURVE",
"397 681 CURVE SMOOTH",
"394 663 OFFCURVE",
"392 652 OFFCURVE",
"392 646 CURVE SMOOTH",
"392 615 OFFCURVE",
"412 592 OFFCURVE",
"466 592 CURVE SMOOTH"
);
},
{
closed = 1;
nodes = (
"269 -12 OFFCURVE",
"324 25 OFFCURVE",
"353 91 CURVE",
"358 91 LINE",
"343 0 LINE",
"483 0 LINE",
"531 290 LINE SMOOTH",
"535 316 OFFCURVE",
"538 337 OFFCURVE",
"538 358 CURVE SMOOTH",
"538 471 OFFCURVE",
"448 528 OFFCURVE",
"311 528 CURVE SMOOTH",
"204 528 OFFCURVE",
"129 481 OFFCURVE",
"88 432 CURVE",
"162 357 LINE",
"198 396 OFFCURVE",
"236 420 OFFCURVE",
"298 420 CURVE SMOOTH",
"365 420 OFFCURVE",
"393 391 OFFCURVE",
"393 347 CURVE SMOOTH",
"393 339 OFFCURVE",
"392 329 OFFCURVE",
"391 323 CURVE SMOOTH",
"387 301 LINE",
"292 301 LINE SMOOTH",
"126 301 OFFCURVE",
"37 240 OFFCURVE",
"37 117 CURVE SMOOTH",
"37 36 OFFCURVE",
"99 -12 OFFCURVE",
"199 -12 CURVE SMOOTH"
);
},
{
closed = 1;
nodes = (
"211 84 OFFCURVE",
"185 100 OFFCURVE",
"185 132 CURVE SMOOTH",
"185 139 OFFCURVE",
"185 144 OFFCURVE",
"187 160 CURVE SMOOTH",
"192 200 OFFCURVE",
"229 221 OFFCURVE",
"289 221 CURVE SMOOTH",
"374 221 LINE",
"364 161 LINE SMOOTH",
"356 113 OFFCURVE",
"308 84 OFFCURVE",
"253 84 CURVE SMOOTH"
);
}
);
width = 600;
}
);
note = adieresis.alt01;
},
{
glyphname = uni1EA1.alt01;
lastChange = "2017-11-24 23:54:01 +0000";
layers = (
{
layerId = "2D832C46-3B02-4AC2-BC3D-33D8B64E8998";
paths = (
{
closed = 1;
nodes = (
"284 -202 OFFCURVE",
"306 -179 OFFCURVE",
"312 -143 CURVE SMOOTH",
"315 -125 OFFCURVE",
"317 -114 OFFCURVE",
"317 -107 CURVE SMOOTH",
"317 -76 OFFCURVE",
"299 -53 OFFCURVE",
"245 -53 CURVE SMOOTH",
"190 -53 OFFCURVE",
"168 -76 OFFCURVE",
"162 -112 CURVE SMOOTH",
"159 -130 OFFCURVE",
"157 -141 OFFCURVE",
"157 -148 CURVE SMOOTH",
"157 -179 OFFCURVE",
"175 -202 OFFCURVE",
"229 -202 CURVE SMOOTH"
);
},
{
closed = 1;
nodes = (
"269 -12 OFFCURVE",
"324 25 OFFCURVE",
"353 91 CURVE",
"358 91 LINE",
"343 0 LINE",
"483 0 LINE",
"531 290 LINE SMOOTH",
"535 316 OFFCURVE",
"538 337 OFFCURVE",
"538 358 CURVE SMOOTH",
"538 471 OFFCURVE",
"448 528 OFFCURVE",
"311 528 CURVE SMOOTH",
"204 528 OFFCURVE",
"129 481 OFFCURVE",
"88 432 CURVE",
"162 357 LINE",
"198 396 OFFCURVE",
"236 420 OFFCURVE",
"298 420 CURVE SMOOTH",
"365 420 OFFCURVE",
"393 391 OFFCURVE",
"393 347 CURVE SMOOTH",
"393 339 OFFCURVE",
"392 329 OFFCURVE",
"391 323 CURVE SMOOTH",
"387 301 LINE",
"292 301 LINE SMOOTH",
"126 301 OFFCURVE",
"37 240 OFFCURVE",
"37 117 CURVE SMOOTH",
"37 36 OFFCURVE",
"99 -12 OFFCURVE",
"199 -12 CURVE SMOOTH"
);
},
{
closed = 1;
nodes = (
"211 84 OFFCURVE",
"185 100 OFFCURVE",
"185 132 CURVE SMOOTH",
"185 139 OFFCURVE",
"185 144 OFFCURVE",
"187 160 CURVE SMOOTH",
"192 200 OFFCURVE",
"229 221 OFFCURVE",
"289 221 CURVE SMOOTH",
"374 221 LINE",
"364 161 LINE SMOOTH",
"356 113 OFFCURVE",
"308 84 OFFCURVE",
"253 84 CURVE SMOOTH"
);
}
);
width = 600;
}
);
note = uni1EA1.alt01;
},
{
glyphname = agrave.alt01;
lastChange = "2017-11-24 23:54:01 +0000";
layers = (
{
layerId = "2D832C46-3B02-4AC2-BC3D-33D8B64E8998";
paths = (
{
closed = 1;
nodes = (
"333 571 LINE",
"420 610 LINE",
"343 806 LINE",
"219 747 LINE"
);
},
{
closed = 1;
nodes = (
"269 -12 OFFCURVE",
"324 25 OFFCURVE",
"353 91 CURVE",
"358 91 LINE",
"343 0 LINE",
"483 0 LINE",
"531 290 LINE SMOOTH",
"535 316 OFFCURVE",
"538 337 OFFCURVE",
"538 358 CURVE SMOOTH",
"538 471 OFFCURVE",
"448 528 OFFCURVE",
"311 528 CURVE SMOOTH",
"204 528 OFFCURVE",
"129 481 OFFCURVE",
"88 432 CURVE",
"162 357 LINE",
"198 396 OFFCURVE",
"236 420 OFFCURVE",
"298 420 CURVE SMOOTH",
"365 420 OFFCURVE",
"393 391 OFFCURVE",
"393 347 CURVE SMOOTH",
"393 339 OFFCURVE",
"392 329 OFFCURVE",
"391 323 CURVE SMOOTH",
"387 301 LINE",
"292 301 LINE SMOOTH",
"126 301 OFFCURVE",
"37 240 OFFCURVE",
"37 117 CURVE SMOOTH",
"37 36 OFFCURVE",
"99 -12 OFFCURVE",
"199 -12 CURVE SMOOTH"
);
},
{
closed = 1;
nodes = (
"211 84 OFFCURVE",
"185 100 OFFCURVE",
"185 132 CURVE SMOOTH",
"185 139 OFFCURVE",
"185 144 OFFCURVE",
"187 160 CURVE SMOOTH",
"192 200 OFFCURVE",
"229 221 OFFCURVE",
"289 221 CURVE SMOOTH",
"374 221 LINE",
"364 161 LINE SMOOTH",
"356 113 OFFCURVE",
"308 84 OFFCURVE",
"253 84 CURVE SMOOTH"
);
}
);
width = 600;
}
);
note = agrave.alt01;
},
{
glyphname = uni1EA3.alt01;
lastChange = "2017-11-24 23:54:01 +0000";
layers = (
{
layerId = "2D832C46-3B02-4AC2-BC3D-33D8B64E8998";
paths = (
{
closed = 1;
nodes = (
"249 688 LINE",
"371 688 LINE",
"321 595 LINE",
"392 561 LINE",
"446 627 LINE SMOOTH",
"474 662 OFFCURVE",
"495 692 OFFCURVE",
"495 733 CURVE SMOOTH",
"495 766 OFFCURVE",
"469 792 OFFCURVE",
"414 792 CURVE SMOOTH",
"267 792 LINE"
);
},
{
closed = 1;
nodes = (
"269 -12 OFFCURVE",
"324 25 OFFCURVE",
"353 91 CURVE",
"358 91 LINE",
"343 0 LINE",
"483 0 LINE",
"531 290 LINE SMOOTH",
"535 316 OFFCURVE",
"538 337 OFFCURVE",
"538 358 CURVE SMOOTH",
"538 471 OFFCURVE",
"448 528 OFFCURVE",
"311 528 CURVE SMOOTH",
"204 528 OFFCURVE",
"129 481 OFFCURVE",
"88 432 CURVE",
"162 357 LINE",
"198 396 OFFCURVE",
"236 420 OFFCURVE",
"298 420 CURVE SMOOTH",
"365 420 OFFCURVE",
"393 391 OFFCURVE",
"393 347 CURVE SMOOTH",
"393 339 OFFCURVE",
"392 329 OFFCURVE",
"391 323 CURVE SMOOTH",
"387 301 LINE",
"292 301 LINE SMOOTH",
"126 301 OFFCURVE",
"37 240 OFFCURVE",
"37 117 CURVE SMOOTH",
"37 36 OFFCURVE",
"99 -12 OFFCURVE",
"199 -12 CURVE SMOOTH"
);
},
{
closed = 1;
nodes = (
"211 84 OFFCURVE",
"185 100 OFFCURVE",
"185 132 CURVE SMOOTH",
"185 139 OFFCURVE",
"185 144 OFFCURVE",
"187 160 CURVE SMOOTH",
"192 200 OFFCURVE",
"229 221 OFFCURVE",
"289 221 CURVE SMOOTH",
"374 221 LINE",
"364 161 LINE SMOOTH",
"356 113 OFFCURVE",
"308 84 OFFCURVE",
"253 84 CURVE SMOOTH"
);
}
);
width = 600;
}
);
note = uni1EA3.alt01;
},
{
glyphname = amacron.alt01;
lastChange = "2017-11-24 23:54:01 +0000";
layers = (
{
layerId = "2D832C46-3B02-4AC2-BC3D-33D8B64E8998";
paths = (
{
closed = 1;
nodes = (
"204 616 LINE",
"509 616 LINE",
"526 718 LINE",
"221 718 LINE"
);
},
{
closed = 1;
nodes = (
"269 -12 OFFCURVE",
"324 25 OFFCURVE",
"353 91 CURVE",
"358 91 LINE",
"343 0 LINE",
"483 0 LINE",
"531 290 LINE SMOOTH",
"535 316 OFFCURVE",
"538 337 OFFCURVE",
"538 358 CURVE SMOOTH",
"538 471 OFFCURVE",
"448 528 OFFCURVE",
"311 528 CURVE SMOOTH",
"204 528 OFFCURVE",
"129 481 OFFCURVE",
"88 432 CURVE",
"162 357 LINE",
"198 396 OFFCURVE",
"236 420 OFFCURVE",
"298 420 CURVE SMOOTH",
"365 420 OFFCURVE",
"393 391 OFFCURVE",
"393 347 CURVE SMOOTH",
"393 339 OFFCURVE",
"392 329 OFFCURVE",
"391 323 CURVE SMOOTH",
"387 301 LINE",
"292 301 LINE SMOOTH",
"126 301 OFFCURVE",
"37 240 OFFCURVE",
"37 117 CURVE SMOOTH",
"37 36 OFFCURVE",
"99 -12 OFFCURVE",
"199 -12 CURVE SMOOTH"
);
},
{
closed = 1;
nodes = (
"211 84 OFFCURVE",
"185 100 OFFCURVE",
"185 132 CURVE SMOOTH",
"185 139 OFFCURVE",
"185 144 OFFCURVE",
"187 160 CURVE SMOOTH",
"192 200 OFFCURVE",
"229 221 OFFCURVE",
"289 221 CURVE SMOOTH",
"374 221 LINE",
"364 161 LINE SMOOTH",
"356 113 OFFCURVE",
"308 84 OFFCURVE",
"253 84 CURVE SMOOTH"
);
}
);
width = 600;
}
);
note = amacron.alt01;
},
{
glyphname = aogonek.alt01;
lastChange = "2017-11-24 23:54:01 +0000";
layers = (
{
layerId = "2D832C46-3B02-4AC2-BC3D-33D8B64E8998";
paths = (
{
closed = 1;
nodes = (
"447 -212 OFFCURVE",
"486 -190 OFFCURVE",
"511 -158 CURVE",
"457 -113 LINE",
"443 -134 OFFCURVE",
"424 -140 OFFCURVE",
"404 -140 CURVE SMOOTH",
"378 -140 OFFCURVE",
"367 -127 OFFCURVE",
"367 -110 CURVE SMOOTH",
"367 -90 OFFCURVE",
"378 -63 OFFCURVE",
"483 0 CURVE",
"531 290 LINE SMOOTH",
"535 316 OFFCURVE",
"538 337 OFFCURVE",
"538 358 CURVE SMOOTH",
"538 471 OFFCURVE",
"448 528 OFFCURVE",
"311 528 CURVE SMOOTH",
"204 528 OFFCURVE",
"129 481 OFFCURVE",
"88 432 CURVE",
"162 357 LINE",
"198 396 OFFCURVE",
"236 420 OFFCURVE",
"298 420 CURVE SMOOTH",
"365 420 OFFCURVE",
"393 391 OFFCURVE",
"393 347 CURVE SMOOTH",
"393 339 OFFCURVE",
"392 329 OFFCURVE",
"391 323 CURVE SMOOTH",
"387 301 LINE",
"292 301 LINE SMOOTH",
"126 301 OFFCURVE",
"37 240 OFFCURVE",
"37 117 CURVE SMOOTH",
"37 36 OFFCURVE",
"99 -12 OFFCURVE",
"199 -12 CURVE SMOOTH",
"269 -12 OFFCURVE",
"324 25 OFFCURVE",
"353 91 CURVE",
"358 91 LINE",
"343 0 LINE",
"407 0 LINE",
"408 -4 LINE",
"309 -30 OFFCURVE",
"268 -78 OFFCURVE",
"268 -127 CURVE SMOOTH",
"268 -182 OFFCURVE",
"319 -212 OFFCURVE",
"390 -212 CURVE SMOOTH"
);
},
{
closed = 1;
nodes = (
"211 84 OFFCURVE",
"185 100 OFFCURVE",
"185 132 CURVE SMOOTH",
"185 139 OFFCURVE",
"185 144 OFFCURVE",
"187 160 CURVE SMOOTH",
"192 200 OFFCURVE",
"229 221 OFFCURVE",
"289 221 CURVE SMOOTH",
"374 221 LINE",
"364 161 LINE SMOOTH",
"356 113 OFFCURVE",
"308 84 OFFCURVE",
"253 84 CURVE SMOOTH"
);
}
);
width = 600;
}
);
note = aogonek.alt01;
},
{
glyphname = aring.alt01;
lastChange = "2017-11-24 23:54:01 +0000";
layers = (
{
layerId = "2D832C46-3B02-4AC2-BC3D-33D8B64E8998";
paths = (
{
closed = 1;
nodes = (
"441 550 OFFCURVE",
"517 616 OFFCURVE",
"517 710 CURVE SMOOTH",
"517 780 OFFCURVE",
"460 834 OFFCURVE",
"387 834 CURVE SMOOTH",
"295 834 OFFCURVE",
"219 768 OFFCURVE",
"219 674 CURVE SMOOTH",
"219 604 OFFCURVE",
"276 550 OFFCURVE",
"349 550 CURVE SMOOTH"
);
},
{
closed = 1;
nodes = (
"328 624 OFFCURVE",
"314 639 OFFCURVE",
"314 664 CURVE SMOOTH",
"314 674 OFFCURVE",
"316 685 OFFCURVE",
"320 709 CURVE SMOOTH",
"325 739 OFFCURVE",
"345 760 OFFCURVE",
"379 760 CURVE SMOOTH",
"408 760 OFFCURVE",
"422 745 OFFCURVE",
"422 720 CURVE SMOOTH",
"422 710 OFFCURVE",
"420 699 OFFCURVE",
"416 675 CURVE SMOOTH",
"411 645 OFFCURVE",
"391 624 OFFCURVE",
"357 624 CURVE SMOOTH"
);
},
{
closed = 1;
nodes = (
"269 -12 OFFCURVE",
"324 25 OFFCURVE",
"353 91 CURVE",
"358 91 LINE",
"343 0 LINE",
"483 0 LINE",
"531 290 LINE SMOOTH",
"535 316 OFFCURVE",
"538 337 OFFCURVE",
"538 358 CURVE SMOOTH",
"538 471 OFFCURVE",
"448 528 OFFCURVE",
"311 528 CURVE SMOOTH",
"204 528 OFFCURVE",
"129 481 OFFCURVE",
"88 432 CURVE",
"162 357 LINE",
"198 396 OFFCURVE",
"236 420 OFFCURVE",
"298 420 CURVE SMOOTH",
"365 420 OFFCURVE",
"393 391 OFFCURVE",
"393 347 CURVE SMOOTH",
"393 339 OFFCURVE",
"392 329 OFFCURVE",
"391 323 CURVE SMOOTH",
"387 301 LINE",
"292 301 LINE SMOOTH",
"126 301 OFFCURVE",
"37 240 OFFCURVE",
"37 117 CURVE SMOOTH",
"37 36 OFFCURVE",
"99 -12 OFFCURVE",
"199 -12 CURVE SMOOTH"
);
},
{
closed = 1;
nodes = (
"211 84 OFFCURVE",
"185 100 OFFCURVE",
"185 132 CURVE SMOOTH",
"185 139 OFFCURVE",
"185 144 OFFCURVE",
"187 160 CURVE SMOOTH",
"192 200 OFFCURVE",
"229 221 OFFCURVE",
"289 221 CURVE SMOOTH",
"374 221 LINE",
"364 161 LINE SMOOTH",
"356 113 OFFCURVE",
"308 84 OFFCURVE",
"253 84 CURVE SMOOTH"
);
}
);
width = 600;
}
);
note = aring.alt01;
},
{
glyphname = aringacute.alt01;
lastChange = "2017-11-24 23:54:01 +0000";
layers = (
{
layerId = "2D832C46-3B02-4AC2-BC3D-33D8B64E8998";
paths = (
{
closed = 1;
nodes = (
"544 900 LINE",
"479 979 LINE",
"337 862 LINE",
"386 806 LINE"
);
},
{
closed = 1;
nodes = (
"439 556 OFFCURVE",
"515 606 OFFCURVE",
"515 690 CURVE SMOOTH",
"515 756 OFFCURVE",
"457 795 OFFCURVE",
"382 795 CURVE SMOOTH",
"290 795 OFFCURVE",
"214 745 OFFCURVE",
"214 661 CURVE SMOOTH",
"214 595 OFFCURVE",
"272 556 OFFCURVE",
"347 556 CURVE SMOOTH"
);
},
{
closed = 1;
nodes = (
"326 625 OFFCURVE",
"310 636 OFFCURVE",
"310 660 CURVE SMOOTH",
"310 663 OFFCURVE",
"311 670 OFFCURVE",
"313 682 CURVE SMOOTH",
"318 712 OFFCURVE",
"337 726 OFFCURVE",
"373 726 CURVE SMOOTH",
"403 726 OFFCURVE",
"419 715 OFFCURVE",
"419 691 CURVE SMOOTH",
"419 688 OFFCURVE",
"418 681 OFFCURVE",
"416 669 CURVE SMOOTH",
"411 639 OFFCURVE",
"392 625 OFFCURVE",
"356 625 CURVE SMOOTH"
);
},
{
closed = 1;
nodes = (
"269 -12 OFFCURVE",
"324 25 OFFCURVE",
"353 91 CURVE",
"358 91 LINE",
"343 0 LINE",
"483 0 LINE",
"531 290 LINE SMOOTH",
"535 316 OFFCURVE",
"538 337 OFFCURVE",
"538 358 CURVE SMOOTH",
"538 471 OFFCURVE",
"448 528 OFFCURVE",
"311 528 CURVE SMOOTH",
"204 528 OFFCURVE",
"129 481 OFFCURVE",
"88 432 CURVE",
"162 357 LINE",
"198 396 OFFCURVE",
"236 420 OFFCURVE",
"298 420 CURVE SMOOTH",
"365 420 OFFCURVE",
"393 391 OFFCURVE",
"393 347 CURVE SMOOTH",
"393 339 OFFCURVE",
"392 329 OFFCURVE",
"391 323 CURVE SMOOTH",
"387 301 LINE",
"292 301 LINE SMOOTH",
"126 301 OFFCURVE",
"37 240 OFFCURVE",
"37 117 CURVE SMOOTH",
"37 36 OFFCURVE",
"99 -12 OFFCURVE",
"199 -12 CURVE SMOOTH"
);
},
{
closed = 1;
nodes = (
"211 84 OFFCURVE",
"185 100 OFFCURVE",
"185 132 CURVE SMOOTH",
"185 139 OFFCURVE",
"185 144 OFFCURVE",
"187 160 CURVE SMOOTH",
"192 200 OFFCURVE",
"229 221 OFFCURVE",
"289 221 CURVE SMOOTH",
"374 221 LINE",
"364 161 LINE SMOOTH",
"356 113 OFFCURVE",
"308 84 OFFCURVE",
"253 84 CURVE SMOOTH"
);
}
);
width = 600;
}
);
note = aringacute.alt01;
},
{
glyphname = atilde.alt01;
lastChange = "2017-11-24 23:54:01 +0000";
layers = (
{
layerId = "2D832C46-3B02-4AC2-BC3D-33D8B64E8998";
paths = (
{
closed = 1;
nodes = (
"482 592 OFFCURVE",
"524 620 OFFCURVE",
"553 656 CURVE",
"513 723 LINE",
"489 706 OFFCURVE",
"473 698 OFFCURVE",
"450 698 CURVE SMOOTH",
"424 698 OFFCURVE",
"402 708 OFFCURVE",
"375 720 CURVE SMOOTH",
"352 731 OFFCURVE",
"332 741 OFFCURVE",
"302 741 CURVE SMOOTH",
"249 741 OFFCURVE",
"207 713 OFFCURVE",
"178 677 CURVE",
"218 610 LINE",
"242 627 OFFCURVE",
"258 635 OFFCURVE",
"281 635 CURVE SMOOTH",
"307 635 OFFCURVE",
"329 625 OFFCURVE",
"356 613 CURVE SMOOTH",
"379 602 OFFCURVE",
"399 592 OFFCURVE",
"429 592 CURVE SMOOTH"
);
},
{
closed = 1;
nodes = (
"269 -12 OFFCURVE",
"324 25 OFFCURVE",
"353 91 CURVE",
"358 91 LINE",
"343 0 LINE",
"483 0 LINE",
"531 290 LINE SMOOTH",
"535 316 OFFCURVE",
"538 337 OFFCURVE",
"538 358 CURVE SMOOTH",
"538 471 OFFCURVE",
"448 528 OFFCURVE",
"311 528 CURVE SMOOTH",
"204 528 OFFCURVE",
"129 481 OFFCURVE",
"88 432 CURVE",
"162 357 LINE",
"198 396 OFFCURVE",
"236 420 OFFCURVE",
"298 420 CURVE SMOOTH",
"365 420 OFFCURVE",
"393 391 OFFCURVE",
"393 347 CURVE SMOOTH",
"393 339 OFFCURVE",
"392 329 OFFCURVE",
"391 323 CURVE SMOOTH",
"387 301 LINE",
"292 301 LINE SMOOTH",
"126 301 OFFCURVE",
"37 240 OFFCURVE",
"37 117 CURVE SMOOTH",
"37 36 OFFCURVE",
"99 -12 OFFCURVE",
"199 -12 CURVE SMOOTH"
);
},
{
closed = 1;
nodes = (
"211 84 OFFCURVE",
"185 100 OFFCURVE",
"185 132 CURVE SMOOTH",
"185 139 OFFCURVE",
"185 144 OFFCURVE",
"187 160 CURVE SMOOTH",
"192 200 OFFCURVE",
"229 221 OFFCURVE",
"289 221 CURVE SMOOTH",
"374 221 LINE",
"364 161 LINE SMOOTH",
"356 113 OFFCURVE",
"308 84 OFFCURVE",
"253 84 CURVE SMOOTH"
);
}
);
width = 600;
}
);
note = atilde.alt01;
},
{
glyphname = uni1EAF.alt01;
lastChange = "2017-11-24 23:54:01 +0000";
layers = (
{
layerId = "2D832C46-3B02-4AC2-BC3D-33D8B64E8998";
paths = (
{
closed = 1;
nodes = (
"471 563 OFFCURVE",
"525 628 OFFCURVE",
"573 712 CURVE",
"499 759 LINE",
"474 731 LINE SMOOTH",
"428 679 OFFCURVE",
"401 664 OFFCURVE",
"361 664 CURVE SMOOTH",
"316 664 OFFCURVE",
"294 680 OFFCURVE",
"261 731 CURVE SMOOTH",
"243 759 LINE",
"169 712 LINE",
"189 636 OFFCURVE",
"240 563 OFFCURVE",
"361 563 CURVE SMOOTH"
);
},
{
closed = 1;
nodes = (
"521 900 LINE",
"412 958 LINE",
"309 764 LINE",
"388 724 LINE"
);
},
{
closed = 1;
nodes = (
"269 -12 OFFCURVE",
"324 25 OFFCURVE",
"353 91 CURVE",
"358 91 LINE",
"343 0 LINE",
"483 0 LINE",
"531 290 LINE SMOOTH",
"535 316 OFFCURVE",
"538 337 OFFCURVE",
"538 358 CURVE SMOOTH",
"538 471 OFFCURVE",
"448 528 OFFCURVE",
"311 528 CURVE SMOOTH",
"204 528 OFFCURVE",
"129 481 OFFCURVE",
"88 432 CURVE",
"162 357 LINE",
"198 396 OFFCURVE",
"236 420 OFFCURVE",
"298 420 CURVE SMOOTH",
"365 420 OFFCURVE",
"393 391 OFFCURVE",
"393 347 CURVE SMOOTH",
"393 339 OFFCURVE",
"392 329 OFFCURVE",
"391 323 CURVE SMOOTH",
"387 301 LINE",
"292 301 LINE SMOOTH",
"126 301 OFFCURVE",
"37 240 OFFCURVE",
"37 117 CURVE SMOOTH",
"37 36 OFFCURVE",
"99 -12 OFFCURVE",
"199 -12 CURVE SMOOTH"
);
},
{
closed = 1;
nodes = (
"211 84 OFFCURVE",
"185 100 OFFCURVE",
"185 132 CURVE SMOOTH",
"185 139 OFFCURVE",
"185 144 OFFCURVE",
"187 160 CURVE SMOOTH",
"192 200 OFFCURVE",
"229 221 OFFCURVE",
"289 221 CURVE SMOOTH",
"374 221 LINE",
"364 161 LINE SMOOTH",
"356 113 OFFCURVE",
"308 84 OFFCURVE",
"253 84 CURVE SMOOTH"
);
}
);
width = 600;
}
);
note = uni1EAF.alt01;
},
{
glyphname = uni1EB7.alt01;
lastChange = "2017-11-24 23:54:01 +0000";
layers = (
{
layerId = "2D832C46-3B02-4AC2-BC3D-33D8B64E8998";
paths = (
{
closed = 1;
nodes = (
"284 -202 OFFCURVE",
"306 -179 OFFCURVE",
"312 -143 CURVE SMOOTH",
"315 -125 OFFCURVE",
"317 -114 OFFCURVE",
"317 -107 CURVE SMOOTH",
"317 -76 OFFCURVE",
"299 -53 OFFCURVE",
"245 -53 CURVE SMOOTH",
"190 -53 OFFCURVE",
"168 -76 OFFCURVE",
"162 -112 CURVE SMOOTH",
"159 -130 OFFCURVE",
"157 -141 OFFCURVE",
"157 -148 CURVE SMOOTH",
"157 -179 OFFCURVE",
"175 -202 OFFCURVE",
"229 -202 CURVE SMOOTH"
);
},
{
closed = 1;
nodes = (
"472 570 OFFCURVE",
"529 655 OFFCURVE",
"572 740 CURVE",
"489 782 LINE",
"463 747 LINE SMOOTH",
"427 698 OFFCURVE",
"405 673 OFFCURVE",
"369 673 CURVE SMOOTH",
"327 673 OFFCURVE",
"309 700 OFFCURVE",
"285 745 CURVE SMOOTH",
"265 782 LINE",
"184 740 LINE",
"205 658 OFFCURVE",
"250 570 OFFCURVE",
"363 570 CURVE SMOOTH"
);
},
{
closed = 1;
nodes = (
"269 -12 OFFCURVE",
"324 25 OFFCURVE",
"353 91 CURVE",
"358 91 LINE",
"343 0 LINE",
"483 0 LINE",
"531 290 LINE SMOOTH",
"535 316 OFFCURVE",
"538 337 OFFCURVE",
"538 358 CURVE SMOOTH",
"538 471 OFFCURVE",
"448 528 OFFCURVE",
"311 528 CURVE SMOOTH",
"204 528 OFFCURVE",
"129 481 OFFCURVE",
"88 432 CURVE",
"162 357 LINE",
"198 396 OFFCURVE",
"236 420 OFFCURVE",
"298 420 CURVE SMOOTH",
"365 420 OFFCURVE",
"393 391 OFFCURVE",
"393 347 CURVE SMOOTH",
"393 339 OFFCURVE",
"392 329 OFFCURVE",
"391 323 CURVE SMOOTH",
"387 301 LINE",
"292 301 LINE SMOOTH",
"126 301 OFFCURVE",
"37 240 OFFCURVE",
"37 117 CURVE SMOOTH",
"37 36 OFFCURVE",
"99 -12 OFFCURVE",
"199 -12 CURVE SMOOTH"
);
},
{
closed = 1;
nodes = (
"211 84 OFFCURVE",
"185 100 OFFCURVE",
"185 132 CURVE SMOOTH",
"185 139 OFFCURVE",
"185 144 OFFCURVE",
"187 160 CURVE SMOOTH",
"192 200 OFFCURVE",
"229 221 OFFCURVE",
"289 221 CURVE SMOOTH",
"374 221 LINE",
"364 161 LINE SMOOTH",
"356 113 OFFCURVE",
"308 84 OFFCURVE",
"253 84 CURVE SMOOTH"
);
}
);
width = 600;
}
);
note = uni1EB7.alt01;
},
{
glyphname = uni1EB1.alt01;
lastChange = "2017-11-24 23:54:01 +0000";
layers = (
{
layerId = "2D832C46-3B02-4AC2-BC3D-33D8B64E8998";
paths = (
{
closed = 1;
nodes = (
"471 563 OFFCURVE",
"525 628 OFFCURVE",
"573 712 CURVE",
"499 759 LINE",
"474 731 LINE SMOOTH",
"428 679 OFFCURVE",
"401 664 OFFCURVE",
"361 664 CURVE SMOOTH",
"316 664 OFFCURVE",
"294 680 OFFCURVE",
"261 731 CURVE SMOOTH",
"243 759 LINE",
"169 712 LINE",
"189 636 OFFCURVE",
"240 563 OFFCURVE",
"361 563 CURVE SMOOTH"
);
},
{
closed = 1;
nodes = (
"345 725 LINE",
"425 763 LINE",
"356 956 LINE",
"237 901 LINE"
);
},
{
closed = 1;
nodes = (
"269 -12 OFFCURVE",
"324 25 OFFCURVE",
"353 91 CURVE",
"358 91 LINE",
"343 0 LINE",
"483 0 LINE",
"531 290 LINE SMOOTH",
"535 316 OFFCURVE",
"538 337 OFFCURVE",
"538 358 CURVE SMOOTH",
"538 471 OFFCURVE",
"448 528 OFFCURVE",
"311 528 CURVE SMOOTH",
"204 528 OFFCURVE",
"129 481 OFFCURVE",
"88 432 CURVE",
"162 357 LINE",
"198 396 OFFCURVE",
"236 420 OFFCURVE",
"298 420 CURVE SMOOTH",
"365 420 OFFCURVE",
"393 391 OFFCURVE",
"393 347 CURVE SMOOTH",
"393 339 OFFCURVE",
"392 329 OFFCURVE",
"391 323 CURVE SMOOTH",
"387 301 LINE",
"292 301 LINE SMOOTH",
"126 301 OFFCURVE",
"37 240 OFFCURVE",
"37 117 CURVE SMOOTH",
"37 36 OFFCURVE",
"99 -12 OFFCURVE",
"199 -12 CURVE SMOOTH"
);
},
{
closed = 1;
nodes = (
"211 84 OFFCURVE",
"185 100 OFFCURVE",
"185 132 CURVE SMOOTH",
"185 139 OFFCURVE",
"185 144 OFFCURVE",
"187 160 CURVE SMOOTH",
"192 200 OFFCURVE",
"229 221 OFFCURVE",
"289 221 CURVE SMOOTH",
"374 221 LINE",
"364 161 LINE SMOOTH",
"356 113 OFFCURVE",
"308 84 OFFCURVE",
"253 84 CURVE SMOOTH"
);
}
);
width = 600;
}
);
note = uni1EB1.alt01;
},
{
glyphname = uni1EB3.alt01;
lastChange = "2017-11-24 23:54:01 +0000";
layers = (
{
layerId = "2D832C46-3B02-4AC2-BC3D-33D8B64E8998";
paths = (
{
closed = 1;
nodes = (
"471 563 OFFCURVE",
"525 628 OFFCURVE",
"573 712 CURVE",
"499 759 LINE",
"474 731 LINE SMOOTH",
"428 679 OFFCURVE",
"401 664 OFFCURVE",
"361 664 CURVE SMOOTH",
"316 664 OFFCURVE",
"294 680 OFFCURVE",
"261 731 CURVE SMOOTH",
"243 759 LINE",
"169 712 LINE",
"189 636 OFFCURVE",
"240 563 OFFCURVE",
"361 563 CURVE SMOOTH"
);
},
{
closed = 1;
nodes = (
"242 842 LINE",
"359 842 LINE",
"302 744 LINE",
"363 713 LINE",
"399 750 LINE SMOOTH",
"454 806 OFFCURVE",
"481 844 OFFCURVE",
"481 881 CURVE SMOOTH",
"481 918 OFFCURVE",
"455 943 OFFCURVE",
"400 943 CURVE SMOOTH",
"258 943 LINE"
);
},
{
closed = 1;
nodes = (
"269 -12 OFFCURVE",
"324 25 OFFCURVE",
"353 91 CURVE",
"358 91 LINE",
"343 0 LINE",
"483 0 LINE",
"531 290 LINE SMOOTH",
"535 316 OFFCURVE",
"538 337 OFFCURVE",
"538 358 CURVE SMOOTH",
"538 471 OFFCURVE",
"448 528 OFFCURVE",
"311 528 CURVE SMOOTH",
"204 528 OFFCURVE",
"129 481 OFFCURVE",
"88 432 CURVE",
"162 357 LINE",
"198 396 OFFCURVE",
"236 420 OFFCURVE",
"298 420 CURVE SMOOTH",
"365 420 OFFCURVE",
"393 391 OFFCURVE",
"393 347 CURVE SMOOTH",
"393 339 OFFCURVE",
"392 329 OFFCURVE",
"391 323 CURVE SMOOTH",
"387 301 LINE",
"292 301 LINE SMOOTH",
"126 301 OFFCURVE",
"37 240 OFFCURVE",
"37 117 CURVE SMOOTH",
"37 36 OFFCURVE",
"99 -12 OFFCURVE",
"199 -12 CURVE SMOOTH"
);
},
{
closed = 1;
nodes = (
"211 84 OFFCURVE",
"185 100 OFFCURVE",
"185 132 CURVE SMOOTH",
"185 139 OFFCURVE",
"185 144 OFFCURVE",
"187 160 CURVE SMOOTH",
"192 200 OFFCURVE",
"229 221 OFFCURVE",
"289 221 CURVE SMOOTH",
"374 221 LINE",
"364 161 LINE SMOOTH",
"356 113 OFFCURVE",
"308 84 OFFCURVE",
"253 84 CURVE SMOOTH"
);
}
);
width = 600;
}
);
note = uni1EB3.alt01;
},
{
glyphname = uni1EB5.alt01;
lastChange = "2017-11-24 23:54:01 +0000";
layers = (
{
layerId = "2D832C46-3B02-4AC2-BC3D-33D8B64E8998";
paths = (
{
closed = 1;
nodes = (
"471 563 OFFCURVE",
"525 628 OFFCURVE",
"573 712 CURVE",
"499 759 LINE",
"474 731 LINE SMOOTH",
"428 679 OFFCURVE",
"401 664 OFFCURVE",
"361 664 CURVE SMOOTH",
"316 664 OFFCURVE",
"294 680 OFFCURVE",
"261 731 CURVE SMOOTH",
"243 759 LINE",
"169 712 LINE",
"189 636 OFFCURVE",
"240 563 OFFCURVE",
"361 563 CURVE SMOOTH"
);
},
{
closed = 1;
nodes = (
"494 782 OFFCURVE",
"535 809 OFFCURVE",
"564 843 CURVE",
"526 908 LINE",
"502 891 OFFCURVE",
"487 883 OFFCURVE",
"462 883 CURVE SMOOTH",
"436 883 OFFCURVE",
"416 891 OFFCURVE",
"388 903 CURVE SMOOTH",
"368 912 OFFCURVE",
"349 921 OFFCURVE",
"317 921 CURVE SMOOTH",
"261 921 OFFCURVE",
"220 894 OFFCURVE",
"191 860 CURVE",
"229 795 LINE",
"253 812 OFFCURVE",
"268 820 OFFCURVE",
"293 820 CURVE SMOOTH",
"319 820 OFFCURVE",
"339 812 OFFCURVE",
"367 800 CURVE SMOOTH",
"387 791 OFFCURVE",
"406 782 OFFCURVE",
"438 782 CURVE SMOOTH"
);
},
{
closed = 1;
nodes = (
"269 -12 OFFCURVE",
"324 25 OFFCURVE",
"353 91 CURVE",
"358 91 LINE",
"343 0 LINE",
"483 0 LINE",
"531 290 LINE SMOOTH",
"535 316 OFFCURVE",
"538 337 OFFCURVE",
"538 358 CURVE SMOOTH",
"538 471 OFFCURVE",
"448 528 OFFCURVE",
"311 528 CURVE SMOOTH",
"204 528 OFFCURVE",
"129 481 OFFCURVE",
"88 432 CURVE",
"162 357 LINE",
"198 396 OFFCURVE",
"236 420 OFFCURVE",
"298 420 CURVE SMOOTH",
"365 420 OFFCURVE",
"393 391 OFFCURVE",
"393 347 CURVE SMOOTH",
"393 339 OFFCURVE",
"392 329 OFFCURVE",
"391 323 CURVE SMOOTH",
"387 301 LINE",
"292 301 LINE SMOOTH",
"126 301 OFFCURVE",
"37 240 OFFCURVE",
"37 117 CURVE SMOOTH",
"37 36 OFFCURVE",
"99 -12 OFFCURVE",
"199 -12 CURVE SMOOTH"
);
},
{
closed = 1;
nodes = (
"211 84 OFFCURVE",
"185 100 OFFCURVE",
"185 132 CURVE SMOOTH",
"185 139 OFFCURVE",
"185 144 OFFCURVE",
"187 160 CURVE SMOOTH",
"192 200 OFFCURVE",
"229 221 OFFCURVE",
"289 221 CURVE SMOOTH",
"374 221 LINE",
"364 161 LINE SMOOTH",
"356 113 OFFCURVE",
"308 84 OFFCURVE",
"253 84 CURVE SMOOTH"
);
}
);
width = 600;
}
);
note = uni1EB5.alt01;
},
